solid OpenSCAD_Model
  facet normal -1 0 0
    outer loop
      vertex -25 -20 -1.5
      vertex -25 20 45
      vertex -25 20 -1.5
    endloop
  endfacet
  facet normal -1 -0 0
    outer loop
      vertex -25 20 45
      vertex -25 -20 -1.5
      vertex -25 -20 45
    endloop
  endfacet
  facet normal 0 0 1
    outer loop
      vertex -6.08658 -4.6194 1.5
      vertex -7.62918 -7.35873 1.5
      vertex -6.8 -8.5 1.5
    endloop
  endfacet
  facet normal -0 0 1
    outer loop
      vertex -8 -5 1.5
      vertex -7.62918 -7.35873 1.5
      vertex -6.08658 -4.6194 1.5
    endloop
  endfacet
  facet normal 0 0 1
    outer loop
      vertex -8 -5 1.5
      vertex -8.97082 -7.79466 1.5
      vertex -7.62918 -7.35873 1.5
    endloop
  endfacet
  facet normal 0 0 1
    outer loop
      vertex -11.5355 -3.53553 1.5
      vertex -8.97082 -7.79466 1.5
      vertex -9.91342 -4.6194 1.5
    endloop
  endfacet
  facet normal 0 0 1
    outer loop
      vertex -9.91342 -4.6194 1.5
      vertex -8.97082 -7.79466 1.5
      vertex -8 -5 1.5
    endloop
  endfacet
  facet normal 0 0 1
    outer loop
      vertex 22 17 1.5
      vertex 11 0 1.5
      vertex 22 -17 1.5
    endloop
  endfacet
  facet normal 0 0 1
    outer loop
      vertex 22 17 1.5
      vertex 10.4271 1.76336 1.5
      vertex 11 0 1.5
    endloop
  endfacet
  facet normal 0 0 1
    outer loop
      vertex 22 17 1.5
      vertex 8.92705 2.85317 1.5
      vertex 10.4271 1.76336 1.5
    endloop
  endfacet
  facet normal 0 0 1
    outer loop
      vertex 22 17 1.5
      vertex 7.07295 2.85317 1.5
      vertex 8.92705 2.85317 1.5
    endloop
  endfacet
  facet normal -0 0 1
    outer loop
      vertex -7.62918 9.64127 1.5
      vertex 7.07295 2.85317 1.5
      vertex 22 17 1.5
    endloop
  endfacet
  facet normal 0 0 1
    outer loop
      vertex -3.3806 1.91342 1.5
      vertex 5 0 1.5
      vertex 5.57295 1.76336 1.5
    endloop
  endfacet
  facet normal -0 -0 1
    outer loop
      vertex -4.46447 3.53553 1.5
      vertex 7.07295 2.85317 1.5
      vertex -6.8 8.5 1.5
    endloop
  endfacet
  facet normal 0 0 1
    outer loop
      vertex 5 0 1.5
      vertex -3.3806 1.91342 1.5
      vertex -3 0 1.5
    endloop
  endfacet
  facet normal 0 0 1
    outer loop
      vertex 5.57295 1.76336 1.5
      vertex -4.46447 3.53553 1.5
      vertex -3.3806 1.91342 1.5
    endloop
  endfacet
  facet normal 0 0 1
    outer loop
      vertex 7.07295 2.85317 1.5
      vertex -4.46447 3.53553 1.5
      vertex 5.57295 1.76336 1.5
    endloop
  endfacet
  facet normal 0 0 1
    outer loop
      vertex -4.46447 3.53553 1.5
      vertex -6.8 8.5 1.5
      vertex -6.08658 4.6194 1.5
    endloop
  endfacet
  facet normal 0 0 1
    outer loop
      vertex 7.07295 2.85317 1.5
      vertex -7.62918 9.64127 1.5
      vertex -6.8 8.5 1.5
    endloop
  endfacet
  facet normal 0 0 1
    outer loop
      vertex -11.5355 3.53553 1.5
      vertex -8.97082 7.79466 1.5
      vertex -8.97082 9.20534 1.5
    endloop
  endfacet
  facet normal 0 0 1
    outer loop
      vertex -8.97082 7.79466 1.5
      vertex -11.5355 3.53553 1.5
      vertex -9.91342 4.6194 1.5
    endloop
  endfacet
  facet normal 0 0 1
    outer loop
      vertex -22 17 1.5
      vertex -11.5355 3.53553 1.5
      vertex -8.97082 9.20534 1.5
    endloop
  endfacet
  facet normal 0 0 1
    outer loop
      vertex -12.6194 1.91342 1.5
      vertex -22 17 1.5
      vertex -13 0 1.5
    endloop
  endfacet
  facet normal 0 0 1
    outer loop
      vertex -11.5355 3.53553 1.5
      vertex -22 17 1.5
      vertex -12.6194 1.91342 1.5
    endloop
  endfacet
  facet normal 0 0 1
    outer loop
      vertex -7.62918 9.64127 1.5
      vertex -22 17 1.5
      vertex -8.97082 9.20534 1.5
    endloop
  endfacet
  facet normal -0 0 1
    outer loop
      vertex -22 17 1.5
      vertex -7.62918 9.64127 1.5
      vertex 22 17 1.5
    endloop
  endfacet
  facet normal -0 0 1
    outer loop
      vertex 10.4271 -1.76336 1.5
      vertex 22 -17 1.5
      vertex 11 0 1.5
    endloop
  endfacet
  facet normal -0 0 1
    outer loop
      vertex 8.92705 -2.85317 1.5
      vertex 22 -17 1.5
      vertex 10.4271 -1.76336 1.5
    endloop
  endfacet
  facet normal -0 0 1
    outer loop
      vertex 7.07295 -2.85317 1.5
      vertex 22 -17 1.5
      vertex 8.92705 -2.85317 1.5
    endloop
  endfacet
  facet normal 0 0 1
    outer loop
      vertex -4.46447 -3.53553 1.5
      vertex 7.07295 -2.85317 1.5
      vertex 5.57295 -1.76336 1.5
    endloop
  endfacet
  facet normal 0 0 1
    outer loop
      vertex -3.3806 -1.91342 1.5
      vertex 5 0 1.5
      vertex -3 0 1.5
    endloop
  endfacet
  facet normal 0 0 1
    outer loop
      vertex 5 0 1.5
      vertex -3.3806 -1.91342 1.5
      vertex 5.57295 -1.76336 1.5
    endloop
  endfacet
  facet normal 0 0 1
    outer loop
      vertex -4.46447 -3.53553 1.5
      vertex 5.57295 -1.76336 1.5
      vertex -3.3806 -1.91342 1.5
    endloop
  endfacet
  facet normal 0 0 1
    outer loop
      vertex 7.07295 -2.85317 1.5
      vertex -4.46447 -3.53553 1.5
      vertex -6.8 -8.5 1.5
    endloop
  endfacet
  facet normal 0 0 1
    outer loop
      vertex -6.8 -8.5 1.5
      vertex -4.46447 -3.53553 1.5
      vertex -6.08658 -4.6194 1.5
    endloop
  endfacet
  facet normal 0 0 1
    outer loop
      vertex -7.62918 -9.64127 1.5
      vertex 7.07295 -2.85317 1.5
      vertex -6.8 -8.5 1.5
    endloop
  endfacet
  facet normal 0 0 1
    outer loop
      vertex 7.07295 -2.85317 1.5
      vertex -7.62918 -9.64127 1.5
      vertex 22 -17 1.5
    endloop
  endfacet
  facet normal 0 0 1
    outer loop
      vertex -8.97082 -7.79466 1.5
      vertex -11.5355 -3.53553 1.5
      vertex -8.97082 -9.20534 1.5
    endloop
  endfacet
  facet normal 0 0 1
    outer loop
      vertex -22 -17 1.5
      vertex -11.5355 -3.53553 1.5
      vertex -12.6194 -1.91342 1.5
    endloop
  endfacet
  facet normal 0 0 1
    outer loop
      vertex -22 -17 1.5
      vertex -13 0 1.5
      vertex -22 17 1.5
    endloop
  endfacet
  facet normal 0 0 1
    outer loop
      vertex -7.62918 -9.64127 1.5
      vertex -22 -17 1.5
      vertex 22 -17 1.5
    endloop
  endfacet
  facet normal 0 0 1
    outer loop
      vertex -8.97082 -9.20534 1.5
      vertex -22 -17 1.5
      vertex -7.62918 -9.64127 1.5
    endloop
  endfacet
  facet normal 0 0 1
    outer loop
      vertex -11.5355 -3.53553 1.5
      vertex -22 -17 1.5
      vertex -8.97082 -9.20534 1.5
    endloop
  endfacet
  facet normal 0 0 1
    outer loop
      vertex -13 0 1.5
      vertex -22 -17 1.5
      vertex -12.6194 -1.91342 1.5
    endloop
  endfacet
  facet normal -0 0 1
    outer loop
      vertex -7.62918 7.35873 1.5
      vertex -6.08658 4.6194 1.5
      vertex -6.8 8.5 1.5
    endloop
  endfacet
  facet normal 0 0 1
    outer loop
      vertex -7.62918 7.35873 1.5
      vertex -8 5 1.5
      vertex -6.08658 4.6194 1.5
    endloop
  endfacet
  facet normal 0 0 1
    outer loop
      vertex -8.97082 7.79466 1.5
      vertex -8 5 1.5
      vertex -7.62918 7.35873 1.5
    endloop
  endfacet
  facet normal 0 0 1
    outer loop
      vertex -8 5 1.5
      vertex -8.97082 7.79466 1.5
      vertex -9.91342 4.6194 1.5
    endloop
  endfacet
  facet normal 1 -0 0
    outer loop
      vertex 25 -20 45
      vertex 25 20 -1.5
      vertex 25 20 45
    endloop
  endfacet
  facet normal 1 0 0
    outer loop
      vertex 25 20 -1.5
      vertex 25 -20 45
      vertex 25 -20 -1.5
    endloop
  endfacet
  facet normal 0 1 0
    outer loop
      vertex 25 20 45
      vertex 22 20 4
      vertex 22 20 45
    endloop
  endfacet
  facet normal 0 1 0
    outer loop
      vertex 22 20 4
      vertex 25 20 -1.5
      vertex -22 20 4
    endloop
  endfacet
  facet normal 0 1 -0
    outer loop
      vertex 25 20 -1.5
      vertex 22 20 4
      vertex 25 20 45
    endloop
  endfacet
  facet normal 0 1 -0
    outer loop
      vertex -22 20 4
      vertex -25 20 45
      vertex -22 20 45
    endloop
  endfacet
  facet normal 0 1 0
    outer loop
      vertex -22 20 4
      vertex -25 20 -1.5
      vertex -25 20 45
    endloop
  endfacet
  facet normal 0 1 0
    outer loop
      vertex -25 20 -1.5
      vertex -22 20 4
      vertex 25 20 -1.5
    endloop
  endfacet
  facet normal 0 0 -1
    outer loop
      vertex -6.08658 4.6194 -1.5
      vertex -7.62918 7.35873 -1.5
      vertex -6.8 8.5 -1.5
    endloop
  endfacet
  facet normal 0 0 -1
    outer loop
      vertex -8 5 -1.5
      vertex -7.62918 7.35873 -1.5
      vertex -6.08658 4.6194 -1.5
    endloop
  endfacet
  facet normal 0 0 -1
    outer loop
      vertex -8 5 -1.5
      vertex -8.97082 7.79466 -1.5
      vertex -7.62918 7.35873 -1.5
    endloop
  endfacet
  facet normal 0 0 -1
    outer loop
      vertex -11.5355 3.53553 -1.5
      vertex -8.97082 7.79466 -1.5
      vertex -9.91342 4.6194 -1.5
    endloop
  endfacet
  facet normal 0 0 -1
    outer loop
      vertex -9.91342 4.6194 -1.5
      vertex -8.97082 7.79466 -1.5
      vertex -8 5 -1.5
    endloop
  endfacet
  facet normal 0 0 -1
    outer loop
      vertex 25 -20 -1.5
      vertex 9.5 0 -1.5
      vertex 25 20 -1.5
    endloop
  endfacet
  facet normal 0 0 -1
    outer loop
      vertex 25 -20 -1.5
      vertex 8.46352 -1.42658 -1.5
      vertex 9.5 0 -1.5
    endloop
  endfacet
  facet normal 0 0 -1
    outer loop
      vertex -6.8 -8.5 -1.5
      vertex 8.46352 -1.42658 -1.5
      vertex 25 -20 -1.5
    endloop
  endfacet
  facet normal 0 0 -1
    outer loop
      vertex 6.78647 -0.881678 -1.5
      vertex -3 0 -1.5
      vertex 6.78647 0.881678 -1.5
    endloop
  endfacet
  facet normal -0 0 -1
    outer loop
      vertex 8.46352 -1.42658 -1.5
      vertex -6.8 -8.5 -1.5
      vertex 6.78647 -0.881678 -1.5
    endloop
  endfacet
  facet normal -0 0 -1
    outer loop
      vertex 6.78647 -0.881678 -1.5
      vertex -3.3806 -1.91342 -1.5
      vertex -3 0 -1.5
    endloop
  endfacet
  facet normal 0 0 -1
    outer loop
      vertex 6.78647 -0.881678 -1.5
      vertex -4.46447 -3.53553 -1.5
      vertex -3.3806 -1.91342 -1.5
    endloop
  endfacet
  facet normal 0 0 -1
    outer loop
      vertex 6.78647 -0.881678 -1.5
      vertex -6.8 -8.5 -1.5
      vertex -4.46447 -3.53553 -1.5
    endloop
  endfacet
  facet normal 0 0 -1
    outer loop
      vertex -4.46447 -3.53553 -1.5
      vertex -6.8 -8.5 -1.5
      vertex -6.08658 -4.6194 -1.5
    endloop
  endfacet
  facet normal 0 0 -1
    outer loop
      vertex 25 -20 -1.5
      vertex -7.62918 -9.64127 -1.5
      vertex -6.8 -8.5 -1.5
    endloop
  endfacet
  facet normal 0 0 -1
    outer loop
      vertex -11.5355 -3.53553 -1.5
      vertex -8.97082 -7.79466 -1.5
      vertex -8.97082 -9.20534 -1.5
    endloop
  endfacet
  facet normal 0 0 -1
    outer loop
      vertex -8.97082 -7.79466 -1.5
      vertex -11.5355 -3.53553 -1.5
      vertex -9.91342 -4.6194 -1.5
    endloop
  endfacet
  facet normal 0 0 -1
    outer loop
      vertex -25 -20 -1.5
      vertex -11.5355 -3.53553 -1.5
      vertex -8.97082 -9.20534 -1.5
    endloop
  endfacet
  facet normal -0 0 -1
    outer loop
      vertex -12.6194 -1.91342 -1.5
      vertex -25 -20 -1.5
      vertex -13 0 -1.5
    endloop
  endfacet
  facet normal -0 0 -1
    outer loop
      vertex -11.5355 -3.53553 -1.5
      vertex -25 -20 -1.5
      vertex -12.6194 -1.91342 -1.5
    endloop
  endfacet
  facet normal -0 0 -1
    outer loop
      vertex -7.62918 -9.64127 -1.5
      vertex -25 -20 -1.5
      vertex -8.97082 -9.20534 -1.5
    endloop
  endfacet
  facet normal 0 0 -1
    outer loop
      vertex -25 -20 -1.5
      vertex -7.62918 -9.64127 -1.5
      vertex 25 -20 -1.5
    endloop
  endfacet
  facet normal 0 0 -1
    outer loop
      vertex 8.46352 1.42658 -1.5
      vertex 25 20 -1.5
      vertex 9.5 0 -1.5
    endloop
  endfacet
  facet normal 0 0 -1
    outer loop
      vertex -6.8 8.5 -1.5
      vertex 8.46352 1.42658 -1.5
      vertex 6.78647 0.881678 -1.5
    endloop
  endfacet
  facet normal 0 0 -1
    outer loop
      vertex -3.3806 1.91342 -1.5
      vertex 6.78647 0.881678 -1.5
      vertex -3 0 -1.5
    endloop
  endfacet
  facet normal 0 0 -1
    outer loop
      vertex -4.46447 3.53553 -1.5
      vertex 6.78647 0.881678 -1.5
      vertex -3.3806 1.91342 -1.5
    endloop
  endfacet
  facet normal 0 0 -1
    outer loop
      vertex -6.8 8.5 -1.5
      vertex 6.78647 0.881678 -1.5
      vertex -4.46447 3.53553 -1.5
    endloop
  endfacet
  facet normal 0 0 -1
    outer loop
      vertex -6.8 8.5 -1.5
      vertex -4.46447 3.53553 -1.5
      vertex -6.08658 4.6194 -1.5
    endloop
  endfacet
  facet normal 0 0 -1
    outer loop
      vertex 8.46352 1.42658 -1.5
      vertex -6.8 8.5 -1.5
      vertex 25 20 -1.5
    endloop
  endfacet
  facet normal 0 0 -1
    outer loop
      vertex -7.62918 9.64127 -1.5
      vertex 25 20 -1.5
      vertex -6.8 8.5 -1.5
    endloop
  endfacet
  facet normal -0 0 -1
    outer loop
      vertex -8.97082 7.79466 -1.5
      vertex -11.5355 3.53553 -1.5
      vertex -8.97082 9.20534 -1.5
    endloop
  endfacet
  facet normal 0 0 -1
    outer loop
      vertex -25 20 -1.5
      vertex -11.5355 3.53553 -1.5
      vertex -12.6194 1.91342 -1.5
    endloop
  endfacet
  facet normal 0 0 -1
    outer loop
      vertex -25 20 -1.5
      vertex -13 0 -1.5
      vertex -25 -20 -1.5
    endloop
  endfacet
  facet normal 0 0 -1
    outer loop
      vertex -13 0 -1.5
      vertex -25 20 -1.5
      vertex -12.6194 1.91342 -1.5
    endloop
  endfacet
  facet normal 0 0 -1
    outer loop
      vertex -7.62918 9.64127 -1.5
      vertex -25 20 -1.5
      vertex 25 20 -1.5
    endloop
  endfacet
  facet normal 0 0 -1
    outer loop
      vertex -8.97082 9.20534 -1.5
      vertex -25 20 -1.5
      vertex -7.62918 9.64127 -1.5
    endloop
  endfacet
  facet normal 0 0 -1
    outer loop
      vertex -11.5355 3.53553 -1.5
      vertex -25 20 -1.5
      vertex -8.97082 9.20534 -1.5
    endloop
  endfacet
  facet normal 0 0 -1
    outer loop
      vertex -7.62918 -7.35873 -1.5
      vertex -6.08658 -4.6194 -1.5
      vertex -6.8 -8.5 -1.5
    endloop
  endfacet
  facet normal 0 0 -1
    outer loop
      vertex -7.62918 -7.35873 -1.5
      vertex -8 -5 -1.5
      vertex -6.08658 -4.6194 -1.5
    endloop
  endfacet
  facet normal 0 0 -1
    outer loop
      vertex -8.97082 -7.79466 -1.5
      vertex -8 -5 -1.5
      vertex -7.62918 -7.35873 -1.5
    endloop
  endfacet
  facet normal -0 0 -1
    outer loop
      vertex -8 -5 -1.5
      vertex -8.97082 -7.79466 -1.5
      vertex -9.91342 -4.6194 -1.5
    endloop
  endfacet
  facet normal 0 -1 0
    outer loop
      vertex -25 -20 45
      vertex -22 -20 4
      vertex -22 -20 45
    endloop
  endfacet
  facet normal 0 -1 -0
    outer loop
      vertex -22 -20 4
      vertex -25 -20 -1.5
      vertex 22 -20 4
    endloop
  endfacet
  facet normal 0 -1 0
    outer loop
      vertex -25 -20 -1.5
      vertex -22 -20 4
      vertex -25 -20 45
    endloop
  endfacet
  facet normal 0 -1 0
    outer loop
      vertex 22 -20 4
      vertex 25 -20 45
      vertex 22 -20 45
    endloop
  endfacet
  facet normal 0 -1 0
    outer loop
      vertex 22 -20 4
      vertex 25 -20 -1.5
      vertex 25 -20 45
    endloop
  endfacet
  facet normal 0 -1 0
    outer loop
      vertex 25 -20 -1.5
      vertex 22 -20 4
      vertex -25 -20 -1.5
    endloop
  endfacet
  facet normal -0.809017 -0.587786 0
    outer loop
      vertex 9.5 0 -1.5
      vertex 8.46352 1.42658 0.5
      vertex 8.46352 1.42658 -1.5
    endloop
  endfacet
  facet normal -0.809017 -0.587786 -0
    outer loop
      vertex 9.5 0 2.5
      vertex 8.46352 1.42658 0.5
      vertex 9.5 0 -1.5
    endloop
  endfacet
  facet normal -0.809017 -0.587786 0
    outer loop
      vertex 8.46352 1.42658 0.5
      vertex 9.5 0 2.5
      vertex 8.46352 1.42658 2.5
    endloop
  endfacet
  facet normal 1 -0 0
    outer loop
      vertex 6.78647 -0.881678 0.5
      vertex 6.78647 0.881678 -1.5
      vertex 6.78647 0.881678 0.5
    endloop
  endfacet
  facet normal 1 0 0
    outer loop
      vertex 6.78647 0.881678 -1.5
      vertex 6.78647 -0.881678 0.5
      vertex 6.78647 -0.881678 -1.5
    endloop
  endfacet
  facet normal 0.309017 -0.951057 0
    outer loop
      vertex 6.78647 0.881678 -1.5
      vertex 8.46352 1.42658 0.5
      vertex 6.78647 0.881678 0.5
    endloop
  endfacet
  facet normal 0.309017 -0.951057 0
    outer loop
      vertex 8.46352 1.42658 0.5
      vertex 6.78647 0.881678 -1.5
      vertex 8.46352 1.42658 -1.5
    endloop
  endfacet
  facet normal -0.809017 0.587786 0
    outer loop
      vertex 8.46352 -1.42658 0.5
      vertex 9.5 0 -1.5
      vertex 8.46352 -1.42658 -1.5
    endloop
  endfacet
  facet normal -0.809017 0.587786 0
    outer loop
      vertex 9.5 0 -1.5
      vertex 8.46352 -1.42658 0.5
      vertex 9.5 0 2.5
    endloop
  endfacet
  facet normal -0.809017 0.587786 0
    outer loop
      vertex 9.5 0 2.5
      vertex 8.46352 -1.42658 0.5
      vertex 8.46352 -1.42658 2.5
    endloop
  endfacet
  facet normal 0.309017 0.951057 -0
    outer loop
      vertex 8.46352 -1.42658 -1.5
      vertex 6.78647 -0.881678 0.5
      vertex 8.46352 -1.42658 0.5
    endloop
  endfacet
  facet normal 0.309017 0.951057 0
    outer loop
      vertex 6.78647 -0.881678 0.5
      vertex 8.46352 -1.42658 -1.5
      vertex 6.78647 -0.881678 -1.5
    endloop
  endfacet
  facet normal -0.980785 -0.19509 0
    outer loop
      vertex -3 0 -1.5
      vertex -3.3806 1.91342 1.5
      vertex -3.3806 1.91342 -1.5
    endloop
  endfacet
  facet normal -0.980785 -0.19509 0
    outer loop
      vertex -3.3806 1.91342 1.5
      vertex -3 0 -1.5
      vertex -3 0 1.5
    endloop
  endfacet
  facet normal 0.980785 -0.195091 0
    outer loop
      vertex -13 0 1.5
      vertex -12.6194 1.91342 -1.5
      vertex -12.6194 1.91342 1.5
    endloop
  endfacet
  facet normal 0.980785 -0.195091 0
    outer loop
      vertex -12.6194 1.91342 -1.5
      vertex -13 0 1.5
      vertex -13 0 -1.5
    endloop
  endfacet
  facet normal -0.195091 -0.980785 0
    outer loop
      vertex -8 5 -1.5
      vertex -6.08658 4.6194 1.5
      vertex -8 5 1.5
    endloop
  endfacet
  facet normal -0.195091 -0.980785 -0
    outer loop
      vertex -6.08658 4.6194 1.5
      vertex -8 5 -1.5
      vertex -6.08658 4.6194 -1.5
    endloop
  endfacet
  facet normal -0.83147 -0.55557 0
    outer loop
      vertex -3.3806 1.91342 -1.5
      vertex -4.46447 3.53553 1.5
      vertex -4.46447 3.53553 -1.5
    endloop
  endfacet
  facet normal -0.83147 -0.55557 0
    outer loop
      vertex -4.46447 3.53553 1.5
      vertex -3.3806 1.91342 -1.5
      vertex -3.3806 1.91342 1.5
    endloop
  endfacet
  facet normal 0.195091 0.980785 -0
    outer loop
      vertex -8 -5 -1.5
      vertex -9.91342 -4.6194 1.5
      vertex -8 -5 1.5
    endloop
  endfacet
  facet normal 0.195091 0.980785 0
    outer loop
      vertex -9.91342 -4.6194 1.5
      vertex -8 -5 -1.5
      vertex -9.91342 -4.6194 -1.5
    endloop
  endfacet
  facet normal -0.55557 -0.83147 0
    outer loop
      vertex -6.08658 4.6194 -1.5
      vertex -4.46447 3.53553 1.5
      vertex -6.08658 4.6194 1.5
    endloop
  endfacet
  facet normal -0.55557 -0.83147 -0
    outer loop
      vertex -4.46447 3.53553 1.5
      vertex -6.08658 4.6194 -1.5
      vertex -4.46447 3.53553 -1.5
    endloop
  endfacet
  facet normal 0.55557 -0.83147 0
    outer loop
      vertex -11.5355 3.53553 -1.5
      vertex -9.91342 4.6194 1.5
      vertex -11.5355 3.53553 1.5
    endloop
  endfacet
  facet normal 0.55557 -0.83147 0
    outer loop
      vertex -9.91342 4.6194 1.5
      vertex -11.5355 3.53553 -1.5
      vertex -9.91342 4.6194 -1.5
    endloop
  endfacet
  facet normal 0.83147 -0.55557 0
    outer loop
      vertex -12.6194 1.91342 1.5
      vertex -11.5355 3.53553 -1.5
      vertex -11.5355 3.53553 1.5
    endloop
  endfacet
  facet normal 0.83147 -0.55557 0
    outer loop
      vertex -11.5355 3.53553 -1.5
      vertex -12.6194 1.91342 1.5
      vertex -12.6194 1.91342 -1.5
    endloop
  endfacet
  facet normal 0.195091 -0.980785 0
    outer loop
      vertex -9.91342 4.6194 -1.5
      vertex -8 5 1.5
      vertex -9.91342 4.6194 1.5
    endloop
  endfacet
  facet normal 0.195091 -0.980785 0
    outer loop
      vertex -8 5 1.5
      vertex -9.91342 4.6194 -1.5
      vertex -8 5 -1.5
    endloop
  endfacet
  facet normal -0.195091 0.980785 0
    outer loop
      vertex -6.08658 -4.6194 -1.5
      vertex -8 -5 1.5
      vertex -6.08658 -4.6194 1.5
    endloop
  endfacet
  facet normal -0.195091 0.980785 0
    outer loop
      vertex -8 -5 1.5
      vertex -6.08658 -4.6194 -1.5
      vertex -8 -5 -1.5
    endloop
  endfacet
  facet normal -0.83147 0.55557 0
    outer loop
      vertex -4.46447 -3.53553 -1.5
      vertex -3.3806 -1.91342 1.5
      vertex -3.3806 -1.91342 -1.5
    endloop
  endfacet
  facet normal -0.83147 0.55557 0
    outer loop
      vertex -3.3806 -1.91342 1.5
      vertex -4.46447 -3.53553 -1.5
      vertex -4.46447 -3.53553 1.5
    endloop
  endfacet
  facet normal 0.55557 0.83147 -0
    outer loop
      vertex -9.91342 -4.6194 -1.5
      vertex -11.5355 -3.53553 1.5
      vertex -9.91342 -4.6194 1.5
    endloop
  endfacet
  facet normal 0.55557 0.83147 0
    outer loop
      vertex -11.5355 -3.53553 1.5
      vertex -9.91342 -4.6194 -1.5
      vertex -11.5355 -3.53553 -1.5
    endloop
  endfacet
  facet normal 0.980785 0.195091 0
    outer loop
      vertex -12.6194 -1.91342 1.5
      vertex -13 0 -1.5
      vertex -13 0 1.5
    endloop
  endfacet
  facet normal 0.980785 0.195091 0
    outer loop
      vertex -13 0 -1.5
      vertex -12.6194 -1.91342 1.5
      vertex -12.6194 -1.91342 -1.5
    endloop
  endfacet
  facet normal -0.980785 0.19509 0
    outer loop
      vertex -3.3806 -1.91342 -1.5
      vertex -3 0 1.5
      vertex -3 0 -1.5
    endloop
  endfacet
  facet normal -0.980785 0.19509 0
    outer loop
      vertex -3 0 1.5
      vertex -3.3806 -1.91342 -1.5
      vertex -3.3806 -1.91342 1.5
    endloop
  endfacet
  facet normal -0.55557 0.83147 0
    outer loop
      vertex -4.46447 -3.53553 -1.5
      vertex -6.08658 -4.6194 1.5
      vertex -4.46447 -3.53553 1.5
    endloop
  endfacet
  facet normal -0.55557 0.83147 0
    outer loop
      vertex -6.08658 -4.6194 1.5
      vertex -4.46447 -3.53553 -1.5
      vertex -6.08658 -4.6194 -1.5
    endloop
  endfacet
  facet normal 0.83147 0.55557 0
    outer loop
      vertex -11.5355 -3.53553 1.5
      vertex -12.6194 -1.91342 -1.5
      vertex -12.6194 -1.91342 1.5
    endloop
  endfacet
  facet normal 0.83147 0.55557 0
    outer loop
      vertex -12.6194 -1.91342 -1.5
      vertex -11.5355 -3.53553 1.5
      vertex -11.5355 -3.53553 -1.5
    endloop
  endfacet
  facet normal -0.809017 -0.587785 0
    outer loop
      vertex -6.8 8.5 -1.5
      vertex -7.62918 9.64127 1.5
      vertex -7.62918 9.64127 -1.5
    endloop
  endfacet
  facet normal -0.809017 -0.587785 0
    outer loop
      vertex -7.62918 9.64127 1.5
      vertex -6.8 8.5 -1.5
      vertex -6.8 8.5 1.5
    endloop
  endfacet
  facet normal 1 -0 0
    outer loop
      vertex -8.97082 7.79466 1.5
      vertex -8.97082 9.20534 -1.5
      vertex -8.97082 9.20534 1.5
    endloop
  endfacet
  facet normal 1 0 0
    outer loop
      vertex -8.97082 9.20534 -1.5
      vertex -8.97082 7.79466 1.5
      vertex -8.97082 7.79466 -1.5
    endloop
  endfacet
  facet normal 0.309017 -0.951057 0
    outer loop
      vertex -8.97082 9.20534 -1.5
      vertex -7.62918 9.64127 1.5
      vertex -8.97082 9.20534 1.5
    endloop
  endfacet
  facet normal 0.309017 -0.951057 0
    outer loop
      vertex -7.62918 9.64127 1.5
      vertex -8.97082 9.20534 -1.5
      vertex -7.62918 9.64127 -1.5
    endloop
  endfacet
  facet normal -0.809017 0.587785 0
    outer loop
      vertex -7.62918 7.35873 -1.5
      vertex -6.8 8.5 1.5
      vertex -6.8 8.5 -1.5
    endloop
  endfacet
  facet normal -0.809017 0.587785 0
    outer loop
      vertex -6.8 8.5 1.5
      vertex -7.62918 7.35873 -1.5
      vertex -7.62918 7.35873 1.5
    endloop
  endfacet
  facet normal 0.309017 0.951057 -0
    outer loop
      vertex -7.62918 7.35873 -1.5
      vertex -8.97082 7.79466 1.5
      vertex -7.62918 7.35873 1.5
    endloop
  endfacet
  facet normal 0.309017 0.951057 0
    outer loop
      vertex -8.97082 7.79466 1.5
      vertex -7.62918 7.35873 -1.5
      vertex -8.97082 7.79466 -1.5
    endloop
  endfacet
  facet normal -0.809017 -0.587785 0
    outer loop
      vertex -6.8 -8.5 -1.5
      vertex -7.62918 -7.35873 1.5
      vertex -7.62918 -7.35873 -1.5
    endloop
  endfacet
  facet normal -0.809017 -0.587785 0
    outer loop
      vertex -7.62918 -7.35873 1.5
      vertex -6.8 -8.5 -1.5
      vertex -6.8 -8.5 1.5
    endloop
  endfacet
  facet normal 1 -0 0
    outer loop
      vertex -8.97082 -9.20534 1.5
      vertex -8.97082 -7.79466 -1.5
      vertex -8.97082 -7.79466 1.5
    endloop
  endfacet
  facet normal 1 0 0
    outer loop
      vertex -8.97082 -7.79466 -1.5
      vertex -8.97082 -9.20534 1.5
      vertex -8.97082 -9.20534 -1.5
    endloop
  endfacet
  facet normal 0.309017 -0.951057 0
    outer loop
      vertex -8.97082 -7.79466 -1.5
      vertex -7.62918 -7.35873 1.5
      vertex -8.97082 -7.79466 1.5
    endloop
  endfacet
  facet normal 0.309017 -0.951057 0
    outer loop
      vertex -7.62918 -7.35873 1.5
      vertex -8.97082 -7.79466 -1.5
      vertex -7.62918 -7.35873 -1.5
    endloop
  endfacet
  facet normal -0.809017 0.587785 0
    outer loop
      vertex -7.62918 -9.64127 -1.5
      vertex -6.8 -8.5 1.5
      vertex -6.8 -8.5 -1.5
    endloop
  endfacet
  facet normal -0.809017 0.587785 0
    outer loop
      vertex -6.8 -8.5 1.5
      vertex -7.62918 -9.64127 -1.5
      vertex -7.62918 -9.64127 1.5
    endloop
  endfacet
  facet normal 0.309017 0.951057 -0
    outer loop
      vertex -7.62918 -9.64127 -1.5
      vertex -8.97082 -9.20534 1.5
      vertex -7.62918 -9.64127 1.5
    endloop
  endfacet
  facet normal 0.309017 0.951057 0
    outer loop
      vertex -8.97082 -9.20534 1.5
      vertex -7.62918 -9.64127 -1.5
      vertex -8.97082 -9.20534 -1.5
    endloop
  endfacet
  facet normal 0.951056 0.309017 0
    outer loop
      vertex 11 0 5.5
      vertex 10.4271 1.76336 1.5
      vertex 10.4271 1.76336 5.5
    endloop
  endfacet
  facet normal 0.951056 0.309017 0
    outer loop
      vertex 10.4271 1.76336 1.5
      vertex 11 0 5.5
      vertex 11 0 1.5
    endloop
  endfacet
  facet normal -0.951056 0.309017 0
    outer loop
      vertex 5 0 1.5
      vertex 5.57295 1.76336 5.5
      vertex 5.57295 1.76336 1.5
    endloop
  endfacet
  facet normal -0.951056 0.309017 0
    outer loop
      vertex 5.57295 1.76336 5.5
      vertex 5 0 1.5
      vertex 5 0 5.5
    endloop
  endfacet
  facet normal 0 -1 0
    outer loop
      vertex 7.07295 -2.85317 1.5
      vertex 8.92705 -2.85317 5.5
      vertex 7.07295 -2.85317 5.5
    endloop
  endfacet
  facet normal 0 -1 -0
    outer loop
      vertex 8.92705 -2.85317 5.5
      vertex 7.07295 -2.85317 1.5
      vertex 8.92705 -2.85317 1.5
    endloop
  endfacet
  facet normal 0 1 -0
    outer loop
      vertex 8.92705 2.85317 1.5
      vertex 7.07295 2.85317 5.5
      vertex 8.92705 2.85317 5.5
    endloop
  endfacet
  facet normal 0 1 0
    outer loop
      vertex 7.07295 2.85317 5.5
      vertex 8.92705 2.85317 1.5
      vertex 7.07295 2.85317 1.5
    endloop
  endfacet
  facet normal 0.587785 0.809017 -0
    outer loop
      vertex 10.4271 1.76336 1.5
      vertex 8.92705 2.85317 5.5
      vertex 10.4271 1.76336 5.5
    endloop
  endfacet
  facet normal 0.587785 0.809017 0
    outer loop
      vertex 8.92705 2.85317 5.5
      vertex 10.4271 1.76336 1.5
      vertex 8.92705 2.85317 1.5
    endloop
  endfacet
  facet normal 0 0 1
    outer loop
      vertex 10.4271 1.76336 5.5
      vertex 10.4271 -1.76336 5.5
      vertex 11 0 5.5
    endloop
  endfacet
  facet normal 0 0 1
    outer loop
      vertex 8.92705 2.85317 5.5
      vertex 10.4271 -1.76336 5.5
      vertex 10.4271 1.76336 5.5
    endloop
  endfacet
  facet normal 0 0 1
    outer loop
      vertex 8.92705 2.85317 5.5
      vertex 8.92705 -2.85317 5.5
      vertex 10.4271 -1.76336 5.5
    endloop
  endfacet
  facet normal -0 0 1
    outer loop
      vertex 7.07295 2.85317 5.5
      vertex 8.92705 -2.85317 5.5
      vertex 8.92705 2.85317 5.5
    endloop
  endfacet
  facet normal 0 0 1
    outer loop
      vertex 7.07295 2.85317 5.5
      vertex 7.07295 -2.85317 5.5
      vertex 8.92705 -2.85317 5.5
    endloop
  endfacet
  facet normal -0 0 1
    outer loop
      vertex 5.57295 1.76336 5.5
      vertex 7.07295 -2.85317 5.5
      vertex 7.07295 2.85317 5.5
    endloop
  endfacet
  facet normal 0 0 1
    outer loop
      vertex 5.57295 1.76336 5.5
      vertex 5.57295 -1.76336 5.5
      vertex 7.07295 -2.85317 5.5
    endloop
  endfacet
  facet normal 0 -0 1
    outer loop
      vertex 5.57295 -1.76336 5.5
      vertex 5.57295 1.76336 5.5
      vertex 5 0 5.5
    endloop
  endfacet
  facet normal -0.587785 0.809017 0
    outer loop
      vertex 7.07295 2.85317 1.5
      vertex 5.57295 1.76336 5.5
      vertex 7.07295 2.85317 5.5
    endloop
  endfacet
  facet normal -0.587785 0.809017 0
    outer loop
      vertex 5.57295 1.76336 5.5
      vertex 7.07295 2.85317 1.5
      vertex 5.57295 1.76336 1.5
    endloop
  endfacet
  facet normal 0.951056 -0.309017 0
    outer loop
      vertex 10.4271 -1.76336 5.5
      vertex 11 0 1.5
      vertex 11 0 5.5
    endloop
  endfacet
  facet normal 0.951056 -0.309017 0
    outer loop
      vertex 11 0 1.5
      vertex 10.4271 -1.76336 5.5
      vertex 10.4271 -1.76336 1.5
    endloop
  endfacet
  facet normal 0 0 -1
    outer loop
      vertex 6.78648 -0.881678 0.5
      vertex 6.78647 -0.881678 0.5
      vertex 6.78648 0.881678 0.5
    endloop
  endfacet
  facet normal 0 0 -1
    outer loop
      vertex 6.78647 -0.881678 0.5
      vertex 6.78648 -0.881678 0.5
      vertex 8.46352 -1.42658 0.5
    endloop
  endfacet
  facet normal 0 0 -1
    outer loop
      vertex 6.78648 0.881678 0.5
      vertex 6.78647 0.881678 0.5
      vertex 8.46352 1.42658 0.5
    endloop
  endfacet
  facet normal 0 0 -1
    outer loop
      vertex 6.78647 0.881678 0.5
      vertex 6.78648 0.881678 0.5
      vertex 6.78647 -0.881678 0.5
    endloop
  endfacet
  facet normal 0.587785 -0.809017 0
    outer loop
      vertex 8.92705 -2.85317 1.5
      vertex 10.4271 -1.76336 5.5
      vertex 8.92705 -2.85317 5.5
    endloop
  endfacet
  facet normal 0.587785 -0.809017 0
    outer loop
      vertex 10.4271 -1.76336 5.5
      vertex 8.92705 -2.85317 1.5
      vertex 10.4271 -1.76336 1.5
    endloop
  endfacet
  facet normal -0.587785 -0.809017 0
    outer loop
      vertex 5.57295 -1.76336 1.5
      vertex 7.07295 -2.85317 5.5
      vertex 5.57295 -1.76336 5.5
    endloop
  endfacet
  facet normal -0.587785 -0.809017 -0
    outer loop
      vertex 7.07295 -2.85317 5.5
      vertex 5.57295 -1.76336 1.5
      vertex 7.07295 -2.85317 1.5
    endloop
  endfacet
  facet normal -0.951056 -0.309017 0
    outer loop
      vertex 5.57295 -1.76336 1.5
      vertex 5 0 5.5
      vertex 5 0 1.5
    endloop
  endfacet
  facet normal -0.951056 -0.309017 0
    outer loop
      vertex 5 0 5.5
      vertex 5.57295 -1.76336 1.5
      vertex 5.57295 -1.76336 5.5
    endloop
  endfacet
  facet normal 1 -0 0
    outer loop
      vertex 6.78648 -0.881678 2.5
      vertex 6.78648 0.881678 0.5
      vertex 6.78648 0.881678 2.5
    endloop
  endfacet
  facet normal 1 0 0
    outer loop
      vertex 6.78648 0.881678 0.5
      vertex 6.78648 -0.881678 2.5
      vertex 6.78648 -0.881678 0.5
    endloop
  endfacet
  facet normal 0.309017 -0.951056 0
    outer loop
      vertex 6.78648 0.881678 0.5
      vertex 8.46352 1.42658 2.5
      vertex 6.78648 0.881678 2.5
    endloop
  endfacet
  facet normal 0.309017 -0.951056 0
    outer loop
      vertex 8.46352 1.42658 2.5
      vertex 6.78648 0.881678 0.5
      vertex 8.46352 1.42658 0.5
    endloop
  endfacet
  facet normal 0 0 -1
    outer loop
      vertex 8.46352 -1.42658 2.5
      vertex 8.46352 1.42658 2.5
      vertex 9.5 0 2.5
    endloop
  endfacet
  facet normal 0 0 -1
    outer loop
      vertex 6.78648 -0.881678 2.5
      vertex 8.46352 1.42658 2.5
      vertex 8.46352 -1.42658 2.5
    endloop
  endfacet
  facet normal 0 0 -1
    outer loop
      vertex 8.46352 1.42658 2.5
      vertex 6.78648 -0.881678 2.5
      vertex 6.78648 0.881678 2.5
    endloop
  endfacet
  facet normal 0.309017 0.951056 -0
    outer loop
      vertex 8.46352 -1.42658 0.5
      vertex 6.78648 -0.881678 2.5
      vertex 8.46352 -1.42658 2.5
    endloop
  endfacet
  facet normal 0.309017 0.951056 0
    outer loop
      vertex 6.78648 -0.881678 2.5
      vertex 8.46352 -1.42658 0.5
      vertex 6.78648 -0.881678 0.5
    endloop
  endfacet
  facet normal -1 0 0
    outer loop
      vertex 22 17 1.5
      vertex 22 -17 1.5
      vertex 22 17 4
    endloop
  endfacet
  facet normal -1 0 0
    outer loop
      vertex 22 17 4
      vertex 22 20 45
      vertex 22 20 4
    endloop
  endfacet
  facet normal -1 0 0
    outer loop
      vertex 22 -17 4
      vertex 22 17 4
      vertex 22 -17 1.5
    endloop
  endfacet
  facet normal -1 0 0
    outer loop
      vertex 22 17 4
      vertex 22 -17 4
      vertex 22 20 45
    endloop
  endfacet
  facet normal -1 0 0
    outer loop
      vertex 22 -20 45
      vertex 22 -17 4
      vertex 22 -20 4
    endloop
  endfacet
  facet normal -1 0 0
    outer loop
      vertex 22 -17 4
      vertex 22 -20 45
      vertex 22 20 45
    endloop
  endfacet
  facet normal -0 0 1
    outer loop
      vertex 22 20 45
      vertex 25 -20 45
      vertex 25 20 45
    endloop
  endfacet
  facet normal 0 0 1
    outer loop
      vertex 25 -20 45
      vertex 22 20 45
      vertex 22 -20 45
    endloop
  endfacet
  facet normal -0 0 1
    outer loop
      vertex -25 20 45
      vertex -22 -20 45
      vertex -22 20 45
    endloop
  endfacet
  facet normal 0 0 1
    outer loop
      vertex -22 -20 45
      vertex -25 20 45
      vertex -25 -20 45
    endloop
  endfacet
  facet normal 1 0 0
    outer loop
      vertex -22 20 45
      vertex -22 17 4
      vertex -22 20 4
    endloop
  endfacet
  facet normal 1 0 0
    outer loop
      vertex -22 17 4
      vertex -22 -17 4
      vertex -22 17 1.5
    endloop
  endfacet
  facet normal 1 0 0
    outer loop
      vertex -22 20 45
      vertex -22 -17 4
      vertex -22 17 4
    endloop
  endfacet
  facet normal 1 -0 0
    outer loop
      vertex -22 -20 45
      vertex -22 -17 4
      vertex -22 20 45
    endloop
  endfacet
  facet normal 1 0 0
    outer loop
      vertex -22 -17 4
      vertex -22 -20 45
      vertex -22 -20 4
    endloop
  endfacet
  facet normal 1 0 0
    outer loop
      vertex -22 17 1.5
      vertex -22 -17 4
      vertex -22 -17 1.5
    endloop
  endfacet
  facet normal -0 0 1
    outer loop
      vertex -22 20 4
      vertex 22 17 4
      vertex 22 20 4
    endloop
  endfacet
  facet normal 0 0 1
    outer loop
      vertex 22 17 4
      vertex -22 20 4
      vertex -22 17 4
    endloop
  endfacet
  facet normal 0 -1 0
    outer loop
      vertex -22 17 1.5
      vertex 22 17 4
      vertex -22 17 4
    endloop
  endfacet
  facet normal 0 -1 -0
    outer loop
      vertex 22 17 4
      vertex -22 17 1.5
      vertex 22 17 1.5
    endloop
  endfacet
  facet normal -0 0 1
    outer loop
      vertex -22 -17 4
      vertex 22 -20 4
      vertex 22 -17 4
    endloop
  endfacet
  facet normal 0 0 1
    outer loop
      vertex 22 -20 4
      vertex -22 -17 4
      vertex -22 -20 4
    endloop
  endfacet
  facet normal 0 1 -0
    outer loop
      vertex 22 -17 1.5
      vertex -22 -17 4
      vertex 22 -17 4
    endloop
  endfacet
  facet normal 0 1 0
    outer loop
      vertex -22 -17 4
      vertex 22 -17 1.5
      vertex -22 -17 1.5
    endloop
  endfacet
endsolid OpenSCAD_Model
