solid OpenSCAD_Model
  facet normal -0.239317 0.970942 0
    outer loop
      vertex -18 8 2
      vertex -19.8589 7.54182 6
      vertex -18 8 6
    endloop
  endfacet
  facet normal -0.239317 0.970942 0
    outer loop
      vertex -19.8589 7.54182 6
      vertex -18 8 2
      vertex -19.8589 7.54182 2
    endloop
  endfacet
  facet normal -0.992713 -0.1205 0
    outer loop
      vertex -21.7401 2.58158 2
      vertex -21.9708 4.48215 6
      vertex -21.9708 4.48215 2
    endloop
  endfacet
  facet normal -0.992713 -0.1205 0
    outer loop
      vertex -21.9708 4.48215 6
      vertex -21.7401 2.58158 2
      vertex -21.7401 2.58158 6
    endloop
  endfacet
  facet normal -0.663132 0.748502 0
    outer loop
      vertex -19.8589 7.54182 2
      vertex -21.2919 6.27226 6
      vertex -19.8589 7.54182 6
    endloop
  endfacet
  facet normal -0.663132 0.748502 0
    outer loop
      vertex -21.2919 6.27226 6
      vertex -19.8589 7.54182 2
      vertex -21.2919 6.27226 2
    endloop
  endfacet
  facet normal -0.822941 -0.568126 0
    outer loop
      vertex -21.3386 2 2
      vertex -21.7401 2.58158 6
      vertex -21.7401 2.58158 2
    endloop
  endfacet
  facet normal -0.822941 -0.568126 0
    outer loop
      vertex -21.7401 2.58158 6
      vertex -21.3386 2 2
      vertex -21.3386 2 6
    endloop
  endfacet
  facet normal 0.239317 0.970942 -0
    outer loop
      vertex -16.1411 7.54182 2
      vertex -18 8 6
      vertex -16.1411 7.54182 6
    endloop
  endfacet
  facet normal 0.239317 0.970942 0
    outer loop
      vertex -18 8 6
      vertex -16.1411 7.54182 2
      vertex -18 8 2
    endloop
  endfacet
  facet normal -0.935016 0.354605 0
    outer loop
      vertex -21.9708 4.48215 2
      vertex -21.2919 6.27226 6
      vertex -21.2919 6.27226 2
    endloop
  endfacet
  facet normal -0.935016 0.354605 0
    outer loop
      vertex -21.2919 6.27226 6
      vertex -21.9708 4.48215 2
      vertex -21.9708 4.48215 6
    endloop
  endfacet
  facet normal 0.663132 0.748502 -0
    outer loop
      vertex -14.7081 6.27226 2
      vertex -16.1411 7.54182 6
      vertex -14.7081 6.27226 6
    endloop
  endfacet
  facet normal 0.663132 0.748502 0
    outer loop
      vertex -16.1411 7.54182 6
      vertex -14.7081 6.27226 2
      vertex -16.1411 7.54182 2
    endloop
  endfacet
  facet normal -0 0 1
    outer loop
      vertex -74.5734 4.46352 6
      vertex -72.2599 2.58158 6
      vertex -72.0292 4.48215 6
    endloop
  endfacet
  facet normal 0 0 1
    outer loop
      vertex -74.5734 4.46352 6
      vertex -72.0292 4.48215 6
      vertex -72.7081 6.27226 6
    endloop
  endfacet
  facet normal -0 0 1
    outer loop
      vertex -16.5734 4.46352 6
      vertex -14.2599 2.58158 6
      vertex -14.0292 4.48215 6
    endloop
  endfacet
  facet normal 0 0 1
    outer loop
      vertex -16.5734 4.46352 6
      vertex -14.0292 4.48215 6
      vertex -14.7081 6.27226 6
    endloop
  endfacet
  facet normal 0 0 1
    outer loop
      vertex 0 100 6
      vertex -2 98 6
      vertex 0 0 6
    endloop
  endfacet
  facet normal 0 0 1
    outer loop
      vertex 0 100 6
      vertex -78 98 6
      vertex -2 98 6
    endloop
  endfacet
  facet normal 0 0 1
    outer loop
      vertex -80 100 6
      vertex -78 92.5309 6
      vertex -78 98 6
    endloop
  endfacet
  facet normal 0 0 1
    outer loop
      vertex -78 92.5309 6
      vertex -80 100 6
      vertex -78 87.5094 6
    endloop
  endfacet
  facet normal 0 0 1
    outer loop
      vertex -80 0 6
      vertex -78 87.5094 6
      vertex -80 100 6
    endloop
  endfacet
  facet normal -0 0 1
    outer loop
      vertex -80 100 6
      vertex -78 98 6
      vertex 0 100 6
    endloop
  endfacet
  facet normal 0 0 1
    outer loop
      vertex 0 100 6
      vertex 2 102 6
      vertex 0 102 6
    endloop
  endfacet
  facet normal 0 0 1
    outer loop
      vertex 2 102 6
      vertex 0 100 6
      vertex 2 -2 6
    endloop
  endfacet
  facet normal -0 0 1
    outer loop
      vertex 0 0 6
      vertex 2 -2 6
      vertex 0 100 6
    endloop
  endfacet
  facet normal 0 0 1
    outer loop
      vertex 2 -2 6
      vertex 0 0 6
      vertex 0 -2 6
    endloop
  endfacet
  facet normal -0 0 1
    outer loop
      vertex -2 2 6
      vertex 0 0 6
      vertex -2 98 6
    endloop
  endfacet
  facet normal -0 0 1
    outer loop
      vertex -14.6614 2 6
      vertex 0 0 6
      vertex -2 2 6
    endloop
  endfacet
  facet normal 0 0 1
    outer loop
      vertex -16.5734 4.46352 6
      vertex -14.7081 6.27226 6
      vertex -16.1411 7.54182 6
    endloop
  endfacet
  facet normal -0 0 1
    outer loop
      vertex -17.1183 2.78648 6
      vertex -14.2599 2.58158 6
      vertex -16.5734 4.46352 6
    endloop
  endfacet
  facet normal 0 0 1
    outer loop
      vertex -14.2599 2.58158 6
      vertex -17.1183 2.78648 6
      vertex -14.6614 2 6
    endloop
  endfacet
  facet normal -0 0 1
    outer loop
      vertex -18.8817 2.78648 6
      vertex -14.6614 2 6
      vertex -17.1183 2.78648 6
    endloop
  endfacet
  facet normal -0 0 1
    outer loop
      vertex -21.2919 6.27226 6
      vertex -19.4266 4.46352 6
      vertex -19.8589 7.54182 6
    endloop
  endfacet
  facet normal -0 0 1
    outer loop
      vertex -21.9708 4.48215 6
      vertex -19.4266 4.46352 6
      vertex -21.2919 6.27226 6
    endloop
  endfacet
  facet normal 0 -0 1
    outer loop
      vertex -21.7401 2.58158 6
      vertex -19.4266 4.46352 6
      vertex -21.9708 4.48215 6
    endloop
  endfacet
  facet normal 0 0 1
    outer loop
      vertex -21.3386 2 6
      vertex -14.6614 2 6
      vertex -18.8817 2.78648 6
    endloop
  endfacet
  facet normal -0 0 1
    outer loop
      vertex -21.3386 2 6
      vertex 0 0 6
      vertex -14.6614 2 6
    endloop
  endfacet
  facet normal 0 0 1
    outer loop
      vertex -80 0 6
      vertex -21.3386 2 6
      vertex -72.6614 2 6
    endloop
  endfacet
  facet normal 0 0 1
    outer loop
      vertex -74.5734 4.46352 6
      vertex -72.7081 6.27226 6
      vertex -74.1411 7.54182 6
    endloop
  endfacet
  facet normal -0 0 1
    outer loop
      vertex -75.1183 2.78648 6
      vertex -72.2599 2.58158 6
      vertex -74.5734 4.46352 6
    endloop
  endfacet
  facet normal 0 0 1
    outer loop
      vertex -72.2599 2.58158 6
      vertex -75.1183 2.78648 6
      vertex -72.6614 2 6
    endloop
  endfacet
  facet normal 0 0 1
    outer loop
      vertex -80 0 6
      vertex -75.1183 2.78648 6
      vertex -76.8817 2.78648 6
    endloop
  endfacet
  facet normal 0 0 1
    outer loop
      vertex -76 5.5 6
      vertex -78 7.41681 6
      vertex -77.4266 4.46352 6
    endloop
  endfacet
  facet normal 0 0 1
    outer loop
      vertex -21.3386 2 6
      vertex -80 0 6
      vertex 0 0 6
    endloop
  endfacet
  facet normal 0 0 1
    outer loop
      vertex -75.1183 2.78648 6
      vertex -80 0 6
      vertex -72.6614 2 6
    endloop
  endfacet
  facet normal 0 0 1
    outer loop
      vertex -77.4266 4.46352 6
      vertex -80 0 6
      vertex -76.8817 2.78648 6
    endloop
  endfacet
  facet normal 0 0 1
    outer loop
      vertex -78 7.41681 6
      vertex -80 0 6
      vertex -77.4266 4.46352 6
    endloop
  endfacet
  facet normal 0 0 1
    outer loop
      vertex -78 87.5094 6
      vertex -80 0 6
      vertex -78 7.41681 6
    endloop
  endfacet
  facet normal 0 0 1
    outer loop
      vertex -19.4266 4.46352 6
      vertex -21.7401 2.58158 6
      vertex -18.8817 2.78648 6
    endloop
  endfacet
  facet normal 0 0 1
    outer loop
      vertex -18.8817 2.78648 6
      vertex -21.7401 2.58158 6
      vertex -21.3386 2 6
    endloop
  endfacet
  facet normal 0 0 1
    outer loop
      vertex -76 5.5 6
      vertex -74.1411 7.54182 6
      vertex -76 8 6
    endloop
  endfacet
  facet normal 0 0 1
    outer loop
      vertex -74.1411 7.54182 6
      vertex -76 5.5 6
      vertex -74.5734 4.46352 6
    endloop
  endfacet
  facet normal -0 0 1
    outer loop
      vertex -77.8589 7.54182 6
      vertex -76 5.5 6
      vertex -76 8 6
    endloop
  endfacet
  facet normal -0 0 1
    outer loop
      vertex -78 7.41681 6
      vertex -76 5.5 6
      vertex -77.8589 7.54182 6
    endloop
  endfacet
  facet normal 0 0 1
    outer loop
      vertex -75 91.5 6
      vertex -73.1411 93.5418 6
      vertex -75 94 6
    endloop
  endfacet
  facet normal 0 0 1
    outer loop
      vertex -73.1411 93.5418 6
      vertex -75 91.5 6
      vertex -73.5734 90.4635 6
    endloop
  endfacet
  facet normal -0 0 1
    outer loop
      vertex -76.8589 93.5418 6
      vertex -75 91.5 6
      vertex -75 94 6
    endloop
  endfacet
  facet normal 0 0 1
    outer loop
      vertex -75 91.5 6
      vertex -76.8589 93.5418 6
      vertex -76.4266 90.4635 6
    endloop
  endfacet
  facet normal 0 0 1
    outer loop
      vertex -73.5734 90.4635 6
      vertex -71.0292 90.4821 6
      vertex -71.7081 92.2723 6
    endloop
  endfacet
  facet normal 0 0 1
    outer loop
      vertex -71.0292 90.4821 6
      vertex -73.5734 90.4635 6
      vertex -71.2599 88.5816 6
    endloop
  endfacet
  facet normal 0 0 1
    outer loop
      vertex -73.5734 90.4635 6
      vertex -71.7081 92.2723 6
      vertex -73.1411 93.5418 6
    endloop
  endfacet
  facet normal -0 0 1
    outer loop
      vertex -74.1183 88.7865 6
      vertex -71.2599 88.5816 6
      vertex -73.5734 90.4635 6
    endloop
  endfacet
  facet normal 0 0 1
    outer loop
      vertex -71.2599 88.5816 6
      vertex -74.1183 88.7865 6
      vertex -72.3475 87.006 6
    endloop
  endfacet
  facet normal 0 0 1
    outer loop
      vertex -72.3475 87.006 6
      vertex -74.1183 88.7865 6
      vertex -74.0427 86.1162 6
    endloop
  endfacet
  facet normal -0 0 1
    outer loop
      vertex -75.8817 88.7865 6
      vertex -74.0427 86.1162 6
      vertex -74.1183 88.7865 6
    endloop
  endfacet
  facet normal 0 0 1
    outer loop
      vertex -75.8817 88.7865 6
      vertex -75.9573 86.1162 6
      vertex -74.0427 86.1162 6
    endloop
  endfacet
  facet normal 0 0 1
    outer loop
      vertex -78 87.5094 6
      vertex -75.8817 88.7865 6
      vertex -76.4266 90.4635 6
    endloop
  endfacet
  facet normal -0 0 1
    outer loop
      vertex -78 92.5309 6
      vertex -76.4266 90.4635 6
      vertex -76.8589 93.5418 6
    endloop
  endfacet
  facet normal 0 0 1
    outer loop
      vertex -75.8817 88.7865 6
      vertex -78 87.5094 6
      vertex -77.6525 87.006 6
    endloop
  endfacet
  facet normal 0 0 1
    outer loop
      vertex -76.4266 90.4635 6
      vertex -78 92.5309 6
      vertex -78 87.5094 6
    endloop
  endfacet
  facet normal 0 0 1
    outer loop
      vertex -75.8817 88.7865 6
      vertex -77.6525 87.006 6
      vertex -75.9573 86.1162 6
    endloop
  endfacet
  facet normal 0 0 1
    outer loop
      vertex -18 5.5 6
      vertex -16.1411 7.54182 6
      vertex -18 8 6
    endloop
  endfacet
  facet normal 0 0 1
    outer loop
      vertex -16.1411 7.54182 6
      vertex -18 5.5 6
      vertex -16.5734 4.46352 6
    endloop
  endfacet
  facet normal -0 0 1
    outer loop
      vertex -19.8589 7.54182 6
      vertex -18 5.5 6
      vertex -18 8 6
    endloop
  endfacet
  facet normal 0 0 1
    outer loop
      vertex -18 5.5 6
      vertex -19.8589 7.54182 6
      vertex -19.4266 4.46352 6
    endloop
  endfacet
  facet normal 0 0 -1
    outer loop
      vertex -73.5734 90.4635 0
      vertex -71.0292 90.4821 0
      vertex -71.2599 88.5816 0
    endloop
  endfacet
  facet normal 0 0 -1
    outer loop
      vertex -78 62.6667 0
      vertex -45 70.6667 0
      vertex -45 62.6667 0
    endloop
  endfacet
  facet normal -0 0 -1
    outer loop
      vertex -45 70.6667 0
      vertex -78 62.6667 0
      vertex -78 70.6667 0
    endloop
  endfacet
  facet normal 0 0 -1
    outer loop
      vertex -78 29.3333 0
      vertex -45 37.3333 0
      vertex -45 29.3333 0
    endloop
  endfacet
  facet normal -0 0 -1
    outer loop
      vertex -45 37.3333 0
      vertex -78 29.3333 0
      vertex -78 37.3333 0
    endloop
  endfacet
  facet normal 0 0 -1
    outer loop
      vertex -53 -2 0
      vertex -28 -2 0
      vertex -28 -15 0
    endloop
  endfacet
  facet normal 0 0 -1
    outer loop
      vertex -45 29.3333 0
      vertex -35 29.3333 0
      vertex -35 10 0
    endloop
  endfacet
  facet normal 0 0 -1
    outer loop
      vertex -35 29.3333 0
      vertex -45 29.3333 0
      vertex -35 37.3333 0
    endloop
  endfacet
  facet normal 0 0 -1
    outer loop
      vertex -35 37.3333 0
      vertex -45 37.3333 0
      vertex -35 62.6667 0
    endloop
  endfacet
  facet normal 0 0 -1
    outer loop
      vertex -45 62.6667 0
      vertex -35 62.6667 0
      vertex -45 37.3333 0
    endloop
  endfacet
  facet normal 0 0 -1
    outer loop
      vertex -45 29.3333 0
      vertex -35 10 0
      vertex -45 10 0
    endloop
  endfacet
  facet normal 0 -0 -1
    outer loop
      vertex -45 10 0
      vertex -28 -2 0
      vertex -53 -2 0
    endloop
  endfacet
  facet normal 0 0 -1
    outer loop
      vertex -53 -2 0
      vertex -28 -15 0
      vertex -53 -15 0
    endloop
  endfacet
  facet normal 0 0 -1
    outer loop
      vertex -28 -2 0
      vertex -45 10 0
      vertex -35 10 0
    endloop
  endfacet
  facet normal 0 0 -1
    outer loop
      vertex -53 -2 0
      vertex -78 10 0
      vertex -45 10 0
    endloop
  endfacet
  facet normal 0 0 -1
    outer loop
      vertex -82 -2 0
      vertex -78 29.3333 0
      vertex -78 10 0
    endloop
  endfacet
  facet normal -0 0 -1
    outer loop
      vertex -78 29.3333 0
      vertex -82 -2 0
      vertex -78 37.3333 0
    endloop
  endfacet
  facet normal -0 0 -1
    outer loop
      vertex -78 37.3333 0
      vertex -82 -2 0
      vertex -78 62.6667 0
    endloop
  endfacet
  facet normal 0 0 -1
    outer loop
      vertex -82 102 0
      vertex -78 62.6667 0
      vertex -82 -2 0
    endloop
  endfacet
  facet normal 0 0 -1
    outer loop
      vertex -78 62.6667 0
      vertex -82 102 0
      vertex -78 70.6667 0
    endloop
  endfacet
  facet normal 0 0 -1
    outer loop
      vertex -82 -2 0
      vertex -78 10 0
      vertex -53 -2 0
    endloop
  endfacet
  facet normal 0 0 -1
    outer loop
      vertex -18.4266 90.4635 0
      vertex -20.9708 90.4821 0
      vertex -20.7744 91 0
    endloop
  endfacet
  facet normal 0 0 -1
    outer loop
      vertex -74.1183 88.7865 0
      vertex -72.3475 87.006 0
      vertex -74.0427 86.1162 0
    endloop
  endfacet
  facet normal 0 0 -1
    outer loop
      vertex -72.3475 87.006 0
      vertex -74.1183 88.7865 0
      vertex -73.5734 90.4635 0
    endloop
  endfacet
  facet normal 0 0 -1
    outer loop
      vertex -74.0427 86.1162 0
      vertex -75.8817 88.7865 0
      vertex -74.1183 88.7865 0
    endloop
  endfacet
  facet normal 0 0 -1
    outer loop
      vertex -75.9573 86.1162 0
      vertex -75.8817 88.7865 0
      vertex -74.0427 86.1162 0
    endloop
  endfacet
  facet normal 0 0 -1
    outer loop
      vertex -77.6525 87.006 0
      vertex -75.8817 88.7865 0
      vertex -75.9573 86.1162 0
    endloop
  endfacet
  facet normal 0 0 -1
    outer loop
      vertex -78 87.5094 0
      vertex -75.8817 88.7865 0
      vertex -77.6525 87.006 0
    endloop
  endfacet
  facet normal 0 0 -1
    outer loop
      vertex -15.5734 90.4635 0
      vertex -13.0292 90.4821 0
      vertex -13.2599 88.5816 0
    endloop
  endfacet
  facet normal 0 0 -1
    outer loop
      vertex -35 62.6667 0
      vertex -2 70.6667 0
      vertex -2 62.6667 0
    endloop
  endfacet
  facet normal -0 0 -1
    outer loop
      vertex -2 70.6667 0
      vertex -35 62.6667 0
      vertex -35 70.6667 0
    endloop
  endfacet
  facet normal 0 0 -1
    outer loop
      vertex -35 29.3333 0
      vertex -2 37.3333 0
      vertex -2 29.3333 0
    endloop
  endfacet
  facet normal -0 0 -1
    outer loop
      vertex -2 37.3333 0
      vertex -35 29.3333 0
      vertex -35 37.3333 0
    endloop
  endfacet
  facet normal 0 0 -1
    outer loop
      vertex -2 29.3333 0
      vertex 2 -2 0
      vertex -2 10 0
    endloop
  endfacet
  facet normal 0 0 -1
    outer loop
      vertex -28 -2 0
      vertex -2 10 0
      vertex 2 -2 0
    endloop
  endfacet
  facet normal -0 0 -1
    outer loop
      vertex -2 10 0
      vertex -28 -2 0
      vertex -35 10 0
    endloop
  endfacet
  facet normal 0 0 -1
    outer loop
      vertex -2 37.3333 0
      vertex 2 -2 0
      vertex -2 29.3333 0
    endloop
  endfacet
  facet normal 0 0 -1
    outer loop
      vertex 2 -2 0
      vertex -2 37.3333 0
      vertex 2 102 0
    endloop
  endfacet
  facet normal 0 0 -1
    outer loop
      vertex -2 62.6667 0
      vertex 2 102 0
      vertex -2 37.3333 0
    endloop
  endfacet
  facet normal 0 0 -1
    outer loop
      vertex -2 70.6667 0
      vertex 2 102 0
      vertex -2 62.6667 0
    endloop
  endfacet
  facet normal 0 0 -1
    outer loop
      vertex -2 91 0
      vertex 2 102 0
      vertex -2 70.6667 0
    endloop
  endfacet
  facet normal 0 0 -1
    outer loop
      vertex -13.2256 91 0
      vertex 2 102 0
      vertex -2 91 0
    endloop
  endfacet
  facet normal 0 0 -1
    outer loop
      vertex -16.1183 88.7865 0
      vertex -13.2599 88.5816 0
      vertex -14.3475 87.006 0
    endloop
  endfacet
  facet normal -0 0 -1
    outer loop
      vertex -13.0292 90.4821 0
      vertex -15.5734 90.4635 0
      vertex -13.2256 91 0
    endloop
  endfacet
  facet normal 0 0 -1
    outer loop
      vertex -16.3118 91 0
      vertex -13.2256 91 0
      vertex -15.5734 90.4635 0
    endloop
  endfacet
  facet normal 0 0 -1
    outer loop
      vertex -13.2256 91 0
      vertex -16.3118 91 0
      vertex 2 102 0
    endloop
  endfacet
  facet normal 0 0 -1
    outer loop
      vertex -17.6882 91 0
      vertex 2 102 0
      vertex -16.3118 91 0
    endloop
  endfacet
  facet normal -0 0 -1
    outer loop
      vertex -17.8817 88.7865 0
      vertex -20.7401 88.5816 0
      vertex -18.4266 90.4635 0
    endloop
  endfacet
  facet normal 0 0 -1
    outer loop
      vertex -20.9708 90.4821 0
      vertex -18.4266 90.4635 0
      vertex -20.7401 88.5816 0
    endloop
  endfacet
  facet normal 0 0 -1
    outer loop
      vertex -20.7744 91 0
      vertex -17.6882 91 0
      vertex -18.4266 90.4635 0
    endloop
  endfacet
  facet normal 0 0 -1
    outer loop
      vertex -20.7744 91 0
      vertex 2 102 0
      vertex -17.6882 91 0
    endloop
  endfacet
  facet normal 0 0 -1
    outer loop
      vertex -35 91 0
      vertex 2 102 0
      vertex -20.7744 91 0
    endloop
  endfacet
  facet normal -0 0 -1
    outer loop
      vertex -35 37.3333 0
      vertex -45 29.3333 0
      vertex -45 37.3333 0
    endloop
  endfacet
  facet normal 0 0 -1
    outer loop
      vertex -35 62.6667 0
      vertex -45 62.6667 0
      vertex -35 70.6667 0
    endloop
  endfacet
  facet normal 0 0 -1
    outer loop
      vertex -45 70.6667 0
      vertex -35 70.6667 0
      vertex -45 62.6667 0
    endloop
  endfacet
  facet normal 0 0 -1
    outer loop
      vertex -35 70.6667 0
      vertex -45 70.6667 0
      vertex -35 91 0
    endloop
  endfacet
  facet normal 0 0 -1
    outer loop
      vertex -45 91 0
      vertex -35 91 0
      vertex -45 70.6667 0
    endloop
  endfacet
  facet normal 0 0 -1
    outer loop
      vertex -45 91 0
      vertex 2 102 0
      vertex -35 91 0
    endloop
  endfacet
  facet normal 0 0 -1
    outer loop
      vertex -82 102 0
      vertex -45 91 0
      vertex -71.2256 91 0
    endloop
  endfacet
  facet normal 0 0 -1
    outer loop
      vertex -73.5734 90.4635 0
      vertex -71.2599 88.5816 0
      vertex -72.3475 87.006 0
    endloop
  endfacet
  facet normal -0 0 -1
    outer loop
      vertex -71.0292 90.4821 0
      vertex -73.5734 90.4635 0
      vertex -71.2256 91 0
    endloop
  endfacet
  facet normal 0 0 -1
    outer loop
      vertex -74.3118 91 0
      vertex -71.2256 91 0
      vertex -73.5734 90.4635 0
    endloop
  endfacet
  facet normal 0 0 -1
    outer loop
      vertex -82 102 0
      vertex -71.2256 91 0
      vertex -74.3118 91 0
    endloop
  endfacet
  facet normal 0 0 -1
    outer loop
      vertex -82 102 0
      vertex -74.3118 91 0
      vertex -75.6882 91 0
    endloop
  endfacet
  facet normal -0 0 -1
    outer loop
      vertex -75.8817 88.7865 0
      vertex -78 87.5094 0
      vertex -76.4266 90.4635 0
    endloop
  endfacet
  facet normal 0 0 -1
    outer loop
      vertex -45 91 0
      vertex -82 102 0
      vertex 2 102 0
    endloop
  endfacet
  facet normal 0 0 -1
    outer loop
      vertex -76.4266 90.4635 0
      vertex -82 102 0
      vertex -75.6882 91 0
    endloop
  endfacet
  facet normal 0 0 -1
    outer loop
      vertex -78 87.5094 0
      vertex -82 102 0
      vertex -76.4266 90.4635 0
    endloop
  endfacet
  facet normal 0 0 -1
    outer loop
      vertex -78 70.6667 0
      vertex -82 102 0
      vertex -78 87.5094 0
    endloop
  endfacet
  facet normal 0 0 -1
    outer loop
      vertex -16.1183 88.7865 0
      vertex -14.3475 87.006 0
      vertex -16.0427 86.1162 0
    endloop
  endfacet
  facet normal 0 0 -1
    outer loop
      vertex -13.2599 88.5816 0
      vertex -16.1183 88.7865 0
      vertex -15.5734 90.4635 0
    endloop
  endfacet
  facet normal 0 0 -1
    outer loop
      vertex -16.0427 86.1162 0
      vertex -17.8817 88.7865 0
      vertex -16.1183 88.7865 0
    endloop
  endfacet
  facet normal 0 0 -1
    outer loop
      vertex -17.9573 86.1162 0
      vertex -17.8817 88.7865 0
      vertex -16.0427 86.1162 0
    endloop
  endfacet
  facet normal 0 0 -1
    outer loop
      vertex -19.6525 87.006 0
      vertex -17.8817 88.7865 0
      vertex -17.9573 86.1162 0
    endloop
  endfacet
  facet normal 0 0 -1
    outer loop
      vertex -20.7401 88.5816 0
      vertex -17.8817 88.7865 0
      vertex -19.6525 87.006 0
    endloop
  endfacet
  facet normal 0.822941 -0.568126 0
    outer loop
      vertex -14.6614 2 6
      vertex -14.2599 2.58158 2
      vertex -14.2599 2.58158 6
    endloop
  endfacet
  facet normal 0.822941 -0.568126 0
    outer loop
      vertex -14.2599 2.58158 2
      vertex -14.6614 2 6
      vertex -14.6614 2 2
    endloop
  endfacet
  facet normal 0.935016 0.354605 0
    outer loop
      vertex -14.0292 4.48215 6
      vertex -14.7081 6.27226 2
      vertex -14.7081 6.27226 6
    endloop
  endfacet
  facet normal 0.935016 0.354605 0
    outer loop
      vertex -14.7081 6.27226 2
      vertex -14.0292 4.48215 6
      vertex -14.0292 4.48215 2
    endloop
  endfacet
  facet normal 0.992713 -0.1205 0
    outer loop
      vertex -14.2599 2.58158 6
      vertex -14.0292 4.48215 2
      vertex -14.0292 4.48215 6
    endloop
  endfacet
  facet normal 0.992713 -0.1205 0
    outer loop
      vertex -14.0292 4.48215 2
      vertex -14.2599 2.58158 6
      vertex -14.2599 2.58158 2
    endloop
  endfacet
  facet normal 0.587783 -0.809018 0
    outer loop
      vertex -19.4266 4.46352 2
      vertex -18 5.5 6
      vertex -19.4266 4.46352 6
    endloop
  endfacet
  facet normal 0.587783 -0.809018 0
    outer loop
      vertex -18 5.5 6
      vertex -19.4266 4.46352 2
      vertex -18 5.5 2
    endloop
  endfacet
  facet normal 0 1 -0
    outer loop
      vertex -17.1183 2.78648 2
      vertex -18.8817 2.78648 6
      vertex -17.1183 2.78648 6
    endloop
  endfacet
  facet normal 0 1 0
    outer loop
      vertex -18.8817 2.78648 6
      vertex -17.1183 2.78648 2
      vertex -18.8817 2.78648 2
    endloop
  endfacet
  facet normal 0.951057 0.309015 0
    outer loop
      vertex -18.8817 2.78648 6
      vertex -19.4266 4.46352 2
      vertex -19.4266 4.46352 6
    endloop
  endfacet
  facet normal 0.951057 0.309015 0
    outer loop
      vertex -19.4266 4.46352 2
      vertex -18.8817 2.78648 6
      vertex -18.8817 2.78648 2
    endloop
  endfacet
  facet normal -0.587783 -0.809018 0
    outer loop
      vertex -18 5.5 2
      vertex -16.5734 4.46352 6
      vertex -18 5.5 6
    endloop
  endfacet
  facet normal -0.587783 -0.809018 -0
    outer loop
      vertex -16.5734 4.46352 6
      vertex -18 5.5 2
      vertex -16.5734 4.46352 2
    endloop
  endfacet
  facet normal -0.951057 0.309015 0
    outer loop
      vertex -17.1183 2.78648 2
      vertex -16.5734 4.46352 6
      vertex -16.5734 4.46352 2
    endloop
  endfacet
  facet normal -0.951057 0.309015 0
    outer loop
      vertex -16.5734 4.46352 6
      vertex -17.1183 2.78648 2
      vertex -17.1183 2.78648 6
    endloop
  endfacet
  facet normal -0.239317 0.970942 0
    outer loop
      vertex -76 8 2
      vertex -77.8589 7.54182 6
      vertex -76 8 6
    endloop
  endfacet
  facet normal -0.239317 0.970942 0
    outer loop
      vertex -77.8589 7.54182 6
      vertex -76 8 2
      vertex -77.8589 7.54182 2
    endloop
  endfacet
  facet normal -0.663141 0.748494 0
    outer loop
      vertex -77.8589 7.54182 2
      vertex -78 7.41681 6
      vertex -77.8589 7.54182 6
    endloop
  endfacet
  facet normal -0.663141 0.748494 0
    outer loop
      vertex -78 7.41681 6
      vertex -77.8589 7.54182 2
      vertex -78 7.41681 2
    endloop
  endfacet
  facet normal 0.239317 0.970942 -0
    outer loop
      vertex -74.1411 7.54182 2
      vertex -76 8 6
      vertex -74.1411 7.54182 6
    endloop
  endfacet
  facet normal 0.239317 0.970942 0
    outer loop
      vertex -76 8 6
      vertex -74.1411 7.54182 2
      vertex -76 8 2
    endloop
  endfacet
  facet normal 0.663132 0.748502 -0
    outer loop
      vertex -72.7081 6.27226 2
      vertex -74.1411 7.54182 6
      vertex -72.7081 6.27226 6
    endloop
  endfacet
  facet normal 0.663132 0.748502 0
    outer loop
      vertex -74.1411 7.54182 6
      vertex -72.7081 6.27226 2
      vertex -74.1411 7.54182 2
    endloop
  endfacet
  facet normal 0.822941 -0.568126 0
    outer loop
      vertex -72.6614 2 6
      vertex -72.2599 2.58158 2
      vertex -72.2599 2.58158 6
    endloop
  endfacet
  facet normal 0.822941 -0.568126 0
    outer loop
      vertex -72.2599 2.58158 2
      vertex -72.6614 2 6
      vertex -72.6614 2 2
    endloop
  endfacet
  facet normal 0.935016 0.354605 0
    outer loop
      vertex -72.0292 4.48215 6
      vertex -72.7081 6.27226 2
      vertex -72.7081 6.27226 6
    endloop
  endfacet
  facet normal 0.935016 0.354605 0
    outer loop
      vertex -72.7081 6.27226 2
      vertex -72.0292 4.48215 6
      vertex -72.0292 4.48215 2
    endloop
  endfacet
  facet normal 0.992713 -0.1205 0
    outer loop
      vertex -72.2599 2.58158 6
      vertex -72.0292 4.48215 2
      vertex -72.0292 4.48215 6
    endloop
  endfacet
  facet normal 0.992713 -0.1205 0
    outer loop
      vertex -72.0292 4.48215 2
      vertex -72.2599 2.58158 6
      vertex -72.2599 2.58158 2
    endloop
  endfacet
  facet normal 0.587783 -0.809018 0
    outer loop
      vertex -77.4266 4.46352 2
      vertex -76 5.5 6
      vertex -77.4266 4.46352 6
    endloop
  endfacet
  facet normal 0.587783 -0.809018 0
    outer loop
      vertex -76 5.5 6
      vertex -77.4266 4.46352 2
      vertex -76 5.5 2
    endloop
  endfacet
  facet normal 0 1 -0
    outer loop
      vertex -75.1183 2.78648 2
      vertex -76.8817 2.78648 6
      vertex -75.1183 2.78648 6
    endloop
  endfacet
  facet normal 0 1 0
    outer loop
      vertex -76.8817 2.78648 6
      vertex -75.1183 2.78648 2
      vertex -76.8817 2.78648 2
    endloop
  endfacet
  facet normal 0.951057 0.309015 0
    outer loop
      vertex -76.8817 2.78648 6
      vertex -77.4266 4.46352 2
      vertex -77.4266 4.46352 6
    endloop
  endfacet
  facet normal 0.951057 0.309015 0
    outer loop
      vertex -77.4266 4.46352 2
      vertex -76.8817 2.78648 6
      vertex -76.8817 2.78648 2
    endloop
  endfacet
  facet normal -0.587783 -0.809018 0
    outer loop
      vertex -76 5.5 2
      vertex -74.5734 4.46352 6
      vertex -76 5.5 6
    endloop
  endfacet
  facet normal -0.587783 -0.809018 -0
    outer loop
      vertex -74.5734 4.46352 6
      vertex -76 5.5 2
      vertex -74.5734 4.46352 2
    endloop
  endfacet
  facet normal -0.951057 0.309015 0
    outer loop
      vertex -75.1183 2.78648 2
      vertex -74.5734 4.46352 6
      vertex -74.5734 4.46352 2
    endloop
  endfacet
  facet normal -0.951057 0.309015 0
    outer loop
      vertex -74.5734 4.46352 6
      vertex -75.1183 2.78648 2
      vertex -75.1183 2.78648 6
    endloop
  endfacet
  facet normal -0.239327 0.970939 0
    outer loop
      vertex -17 94 2
      vertex -18.8589 93.5418 6
      vertex -17 94 6
    endloop
  endfacet
  facet normal -0.239327 0.970939 0
    outer loop
      vertex -18.8589 93.5418 6
      vertex -17 94 2
      vertex -18.8589 93.5418 2
    endloop
  endfacet
  facet normal 0 -1 0
    outer loop
      vertex -17.9573 86.1162 0
      vertex -16.0427 86.1162 6
      vertex -17.9573 86.1162 6
    endloop
  endfacet
  facet normal 0 -1 -0
    outer loop
      vertex -16.0427 86.1162 6
      vertex -17.9573 86.1162 0
      vertex -16.0427 86.1162 0
    endloop
  endfacet
  facet normal -0.992713 -0.120505 0
    outer loop
      vertex -20.7401 88.5816 0
      vertex -20.9708 90.4821 6
      vertex -20.9708 90.4821 0
    endloop
  endfacet
  facet normal -0.992713 -0.120505 0
    outer loop
      vertex -20.9708 90.4821 6
      vertex -20.7401 88.5816 0
      vertex -20.7401 88.5816 6
    endloop
  endfacet
  facet normal -0.663115 0.748518 0
    outer loop
      vertex -18.8589 93.5418 2
      vertex -20.2919 92.2723 6
      vertex -18.8589 93.5418 6
    endloop
  endfacet
  facet normal -0.663115 0.748518 0
    outer loop
      vertex -20.2919 92.2723 6
      vertex -18.8589 93.5418 2
      vertex -20.2919 92.2723 2
    endloop
  endfacet
  facet normal -0.822974 -0.56808 0
    outer loop
      vertex -19.6525 87.006 0
      vertex -20.7401 88.5816 6
      vertex -20.7401 88.5816 0
    endloop
  endfacet
  facet normal -0.822974 -0.56808 0
    outer loop
      vertex -20.7401 88.5816 6
      vertex -19.6525 87.006 0
      vertex -19.6525 87.006 6
    endloop
  endfacet
  facet normal 0.239327 0.970939 -0
    outer loop
      vertex -15.1411 93.5418 2
      vertex -17 94 6
      vertex -15.1411 93.5418 6
    endloop
  endfacet
  facet normal 0.239327 0.970939 0
    outer loop
      vertex -17 94 6
      vertex -15.1411 93.5418 2
      vertex -17 94 2
    endloop
  endfacet
  facet normal -0.935024 0.354583 0
    outer loop
      vertex -20.7744 91 0
      vertex -20.9708 90.4821 0
      vertex -20.7744 91 2
    endloop
  endfacet
  facet normal -0.935021 0.354592 0
    outer loop
      vertex -20.7744 91 2
      vertex -20.2919 92.2723 6
      vertex -20.2919 92.2723 2
    endloop
  endfacet
  facet normal -0.935022 0.35459 9.17943e-07
    outer loop
      vertex -20.7744 91 2
      vertex -20.9708 90.4821 6
      vertex -20.2919 92.2723 6
    endloop
  endfacet
  facet normal -0.935024 0.354583 0
    outer loop
      vertex -20.9708 90.4821 6
      vertex -20.7744 91 2
      vertex -20.9708 90.4821 0
    endloop
  endfacet
  facet normal 0.46476 -0.885437 0
    outer loop
      vertex -16.0427 86.1162 0
      vertex -14.3475 87.006 6
      vertex -16.0427 86.1162 6
    endloop
  endfacet
  facet normal 0.46476 -0.885437 0
    outer loop
      vertex -14.3475 87.006 6
      vertex -16.0427 86.1162 0
      vertex -14.3475 87.006 0
    endloop
  endfacet
  facet normal 0.663115 0.748518 -0
    outer loop
      vertex -13.7081 92.2723 2
      vertex -15.1411 93.5418 6
      vertex -13.7081 92.2723 6
    endloop
  endfacet
  facet normal 0.663115 0.748518 0
    outer loop
      vertex -15.1411 93.5418 6
      vertex -13.7081 92.2723 2
      vertex -15.1411 93.5418 2
    endloop
  endfacet
  facet normal 0 0 1
    outer loop
      vertex -17 91.5 6
      vertex -15.1411 93.5418 6
      vertex -17 94 6
    endloop
  endfacet
  facet normal 0 0 1
    outer loop
      vertex -15.1411 93.5418 6
      vertex -17 91.5 6
      vertex -15.5734 90.4635 6
    endloop
  endfacet
  facet normal -0 0 1
    outer loop
      vertex -18.8589 93.5418 6
      vertex -17 91.5 6
      vertex -17 94 6
    endloop
  endfacet
  facet normal 0 0 1
    outer loop
      vertex -17 91.5 6
      vertex -18.8589 93.5418 6
      vertex -18.4266 90.4635 6
    endloop
  endfacet
  facet normal 0 0 1
    outer loop
      vertex -15.5734 90.4635 6
      vertex -13.0292 90.4821 6
      vertex -13.7081 92.2723 6
    endloop
  endfacet
  facet normal 0 0 1
    outer loop
      vertex -13.0292 90.4821 6
      vertex -15.5734 90.4635 6
      vertex -13.2599 88.5816 6
    endloop
  endfacet
  facet normal 0 0 1
    outer loop
      vertex -15.5734 90.4635 6
      vertex -13.7081 92.2723 6
      vertex -15.1411 93.5418 6
    endloop
  endfacet
  facet normal -0 0 1
    outer loop
      vertex -16.1183 88.7865 6
      vertex -13.2599 88.5816 6
      vertex -15.5734 90.4635 6
    endloop
  endfacet
  facet normal 0 0 1
    outer loop
      vertex -13.2599 88.5816 6
      vertex -16.1183 88.7865 6
      vertex -14.3475 87.006 6
    endloop
  endfacet
  facet normal 0 0 1
    outer loop
      vertex -14.3475 87.006 6
      vertex -16.1183 88.7865 6
      vertex -16.0427 86.1162 6
    endloop
  endfacet
  facet normal -0 0 1
    outer loop
      vertex -17.8817 88.7865 6
      vertex -16.0427 86.1162 6
      vertex -16.1183 88.7865 6
    endloop
  endfacet
  facet normal 0 0 1
    outer loop
      vertex -17.8817 88.7865 6
      vertex -17.9573 86.1162 6
      vertex -16.0427 86.1162 6
    endloop
  endfacet
  facet normal 0 0 1
    outer loop
      vertex -20.7401 88.5816 6
      vertex -17.8817 88.7865 6
      vertex -18.4266 90.4635 6
    endloop
  endfacet
  facet normal -0 0 1
    outer loop
      vertex -20.2919 92.2723 6
      vertex -18.4266 90.4635 6
      vertex -18.8589 93.5418 6
    endloop
  endfacet
  facet normal 0 0 1
    outer loop
      vertex -17.8817 88.7865 6
      vertex -19.6525 87.006 6
      vertex -17.9573 86.1162 6
    endloop
  endfacet
  facet normal -0 0 1
    outer loop
      vertex -20.9708 90.4821 6
      vertex -18.4266 90.4635 6
      vertex -20.2919 92.2723 6
    endloop
  endfacet
  facet normal 0 0 1
    outer loop
      vertex -17.8817 88.7865 6
      vertex -20.7401 88.5816 6
      vertex -19.6525 87.006 6
    endloop
  endfacet
  facet normal 0 0 1
    outer loop
      vertex -18.4266 90.4635 6
      vertex -20.9708 90.4821 6
      vertex -20.7401 88.5816 6
    endloop
  endfacet
  facet normal -0.46476 -0.885437 0
    outer loop
      vertex -19.6525 87.006 0
      vertex -17.9573 86.1162 6
      vertex -19.6525 87.006 6
    endloop
  endfacet
  facet normal -0.46476 -0.885437 -0
    outer loop
      vertex -17.9573 86.1162 6
      vertex -19.6525 87.006 0
      vertex -17.9573 86.1162 0
    endloop
  endfacet
  facet normal 0.822974 -0.56808 0
    outer loop
      vertex -14.3475 87.006 6
      vertex -13.2599 88.5816 0
      vertex -13.2599 88.5816 6
    endloop
  endfacet
  facet normal 0.822974 -0.56808 0
    outer loop
      vertex -13.2599 88.5816 0
      vertex -14.3475 87.006 6
      vertex -14.3475 87.006 0
    endloop
  endfacet
  facet normal 0.935021 0.354592 0
    outer loop
      vertex -13.7081 92.2723 6
      vertex -13.2256 91 2
      vertex -13.7081 92.2723 2
    endloop
  endfacet
  facet normal 0.935022 0.35459 9.17943e-07
    outer loop
      vertex -13.0292 90.4821 6
      vertex -13.2256 91 2
      vertex -13.7081 92.2723 6
    endloop
  endfacet
  facet normal 0.935024 0.354583 -0
    outer loop
      vertex -13.0292 90.4821 0
      vertex -13.2256 91 2
      vertex -13.0292 90.4821 6
    endloop
  endfacet
  facet normal 0.935024 0.354583 0
    outer loop
      vertex -13.2256 91 2
      vertex -13.0292 90.4821 0
      vertex -13.2256 91 0
    endloop
  endfacet
  facet normal 0.992713 -0.120505 0
    outer loop
      vertex -13.2599 88.5816 6
      vertex -13.0292 90.4821 0
      vertex -13.0292 90.4821 6
    endloop
  endfacet
  facet normal 0.992713 -0.120505 0
    outer loop
      vertex -13.0292 90.4821 0
      vertex -13.2599 88.5816 6
      vertex -13.2599 88.5816 0
    endloop
  endfacet
  facet normal 0.587791 -0.809013 -2.73622e-06
    outer loop
      vertex -18.4266 90.4635 6
      vertex -17.6882 91 2
      vertex -17 91.5 6
    endloop
  endfacet
  facet normal 0.5878 -0.809006 0
    outer loop
      vertex -18.4266 90.4635 0
      vertex -17.6882 91 2
      vertex -18.4266 90.4635 6
    endloop
  endfacet
  facet normal 0.5878 -0.809006 0
    outer loop
      vertex -17.6882 91 2
      vertex -18.4266 90.4635 0
      vertex -17.6882 91 0
    endloop
  endfacet
  facet normal 0.58778 -0.809021 0
    outer loop
      vertex -17 91.5 6
      vertex -17.6882 91 2
      vertex -17 91.5 2
    endloop
  endfacet
  facet normal 0 1 -0
    outer loop
      vertex -16.1183 88.7865 0
      vertex -17.8817 88.7865 6
      vertex -16.1183 88.7865 6
    endloop
  endfacet
  facet normal 0 1 0
    outer loop
      vertex -17.8817 88.7865 6
      vertex -16.1183 88.7865 0
      vertex -17.8817 88.7865 0
    endloop
  endfacet
  facet normal 0.951055 0.309022 0
    outer loop
      vertex -17.8817 88.7865 6
      vertex -18.4266 90.4635 0
      vertex -18.4266 90.4635 6
    endloop
  endfacet
  facet normal 0.951055 0.309022 0
    outer loop
      vertex -18.4266 90.4635 0
      vertex -17.8817 88.7865 6
      vertex -17.8817 88.7865 0
    endloop
  endfacet
  facet normal -0.58778 -0.809021 0
    outer loop
      vertex -16.3118 91 2
      vertex -17 91.5 6
      vertex -17 91.5 2
    endloop
  endfacet
  facet normal -0.587791 -0.809013 -2.73622e-06
    outer loop
      vertex -17 91.5 6
      vertex -16.3118 91 2
      vertex -15.5734 90.4635 6
    endloop
  endfacet
  facet normal -0.5878 -0.809006 0
    outer loop
      vertex -15.5734 90.4635 0
      vertex -16.3118 91 2
      vertex -16.3118 91 0
    endloop
  endfacet
  facet normal -0.5878 -0.809006 0
    outer loop
      vertex -16.3118 91 2
      vertex -15.5734 90.4635 0
      vertex -15.5734 90.4635 6
    endloop
  endfacet
  facet normal -0.951055 0.309022 0
    outer loop
      vertex -16.1183 88.7865 0
      vertex -15.5734 90.4635 6
      vertex -15.5734 90.4635 0
    endloop
  endfacet
  facet normal -0.951055 0.309022 0
    outer loop
      vertex -15.5734 90.4635 6
      vertex -16.1183 88.7865 0
      vertex -16.1183 88.7865 6
    endloop
  endfacet
  facet normal -0.239327 0.970939 0
    outer loop
      vertex -75 94 2
      vertex -76.8589 93.5418 6
      vertex -75 94 6
    endloop
  endfacet
  facet normal -0.239327 0.970939 0
    outer loop
      vertex -76.8589 93.5418 6
      vertex -75 94 2
      vertex -76.8589 93.5418 2
    endloop
  endfacet
  facet normal 0 -1 0
    outer loop
      vertex -75.9573 86.1162 0
      vertex -74.0427 86.1162 6
      vertex -75.9573 86.1162 6
    endloop
  endfacet
  facet normal 0 -1 -0
    outer loop
      vertex -74.0427 86.1162 6
      vertex -75.9573 86.1162 0
      vertex -74.0427 86.1162 0
    endloop
  endfacet
  facet normal -0.663113 0.748519 0
    outer loop
      vertex -76.8589 93.5418 2
      vertex -78 92.5309 6
      vertex -76.8589 93.5418 6
    endloop
  endfacet
  facet normal -0.663113 0.748519 0
    outer loop
      vertex -78 92.5309 6
      vertex -76.8589 93.5418 2
      vertex -78 92.5309 2
    endloop
  endfacet
  facet normal -0.822962 -0.568096 0
    outer loop
      vertex -77.6525 87.006 0
      vertex -78 87.5094 6
      vertex -78 87.5094 0
    endloop
  endfacet
  facet normal -0.822962 -0.568096 0
    outer loop
      vertex -78 87.5094 6
      vertex -77.6525 87.006 0
      vertex -77.6525 87.006 6
    endloop
  endfacet
  facet normal 0.239327 0.970939 -0
    outer loop
      vertex -73.1411 93.5418 2
      vertex -75 94 6
      vertex -73.1411 93.5418 6
    endloop
  endfacet
  facet normal 0.239327 0.970939 0
    outer loop
      vertex -75 94 6
      vertex -73.1411 93.5418 2
      vertex -75 94 2
    endloop
  endfacet
  facet normal 0.46476 -0.885437 0
    outer loop
      vertex -74.0427 86.1162 0
      vertex -72.3475 87.006 6
      vertex -74.0427 86.1162 6
    endloop
  endfacet
  facet normal 0.46476 -0.885437 0
    outer loop
      vertex -72.3475 87.006 6
      vertex -74.0427 86.1162 0
      vertex -72.3475 87.006 0
    endloop
  endfacet
  facet normal 0.663115 0.748518 -0
    outer loop
      vertex -71.7081 92.2723 2
      vertex -73.1411 93.5418 6
      vertex -71.7081 92.2723 6
    endloop
  endfacet
  facet normal 0.663115 0.748518 0
    outer loop
      vertex -73.1411 93.5418 6
      vertex -71.7081 92.2723 2
      vertex -73.1411 93.5418 2
    endloop
  endfacet
  facet normal -0.46476 -0.885437 0
    outer loop
      vertex -77.6525 87.006 0
      vertex -75.9573 86.1162 6
      vertex -77.6525 87.006 6
    endloop
  endfacet
  facet normal -0.46476 -0.885437 -0
    outer loop
      vertex -75.9573 86.1162 6
      vertex -77.6525 87.006 0
      vertex -75.9573 86.1162 0
    endloop
  endfacet
  facet normal 0.822974 -0.56808 0
    outer loop
      vertex -72.3475 87.006 6
      vertex -71.2599 88.5816 0
      vertex -71.2599 88.5816 6
    endloop
  endfacet
  facet normal 0.822974 -0.56808 0
    outer loop
      vertex -71.2599 88.5816 0
      vertex -72.3475 87.006 6
      vertex -72.3475 87.006 0
    endloop
  endfacet
  facet normal 0.935021 0.354592 0
    outer loop
      vertex -71.7081 92.2723 6
      vertex -71.2256 91 2
      vertex -71.7081 92.2723 2
    endloop
  endfacet
  facet normal 0.935022 0.35459 9.17943e-07
    outer loop
      vertex -71.0292 90.4821 6
      vertex -71.2256 91 2
      vertex -71.7081 92.2723 6
    endloop
  endfacet
  facet normal 0.935024 0.354583 -0
    outer loop
      vertex -71.0292 90.4821 0
      vertex -71.2256 91 2
      vertex -71.0292 90.4821 6
    endloop
  endfacet
  facet normal 0.935024 0.354583 0
    outer loop
      vertex -71.2256 91 2
      vertex -71.0292 90.4821 0
      vertex -71.2256 91 0
    endloop
  endfacet
  facet normal 0.992713 -0.120505 0
    outer loop
      vertex -71.2599 88.5816 6
      vertex -71.0292 90.4821 0
      vertex -71.0292 90.4821 6
    endloop
  endfacet
  facet normal 0.992713 -0.120505 0
    outer loop
      vertex -71.0292 90.4821 0
      vertex -71.2599 88.5816 6
      vertex -71.2599 88.5816 0
    endloop
  endfacet
  facet normal 0.587791 -0.809013 -2.73622e-06
    outer loop
      vertex -76.4266 90.4635 6
      vertex -75.6882 91 2
      vertex -75 91.5 6
    endloop
  endfacet
  facet normal 0.5878 -0.809006 0
    outer loop
      vertex -76.4266 90.4635 0
      vertex -75.6882 91 2
      vertex -76.4266 90.4635 6
    endloop
  endfacet
  facet normal 0.5878 -0.809006 0
    outer loop
      vertex -75.6882 91 2
      vertex -76.4266 90.4635 0
      vertex -75.6882 91 0
    endloop
  endfacet
  facet normal 0.58778 -0.809021 0
    outer loop
      vertex -75 91.5 6
      vertex -75.6882 91 2
      vertex -75 91.5 2
    endloop
  endfacet
  facet normal 0 1 -0
    outer loop
      vertex -74.1183 88.7865 0
      vertex -75.8817 88.7865 6
      vertex -74.1183 88.7865 6
    endloop
  endfacet
  facet normal 0 1 0
    outer loop
      vertex -75.8817 88.7865 6
      vertex -74.1183 88.7865 0
      vertex -75.8817 88.7865 0
    endloop
  endfacet
  facet normal 0.951055 0.309022 0
    outer loop
      vertex -75.8817 88.7865 6
      vertex -76.4266 90.4635 0
      vertex -76.4266 90.4635 6
    endloop
  endfacet
  facet normal 0.951055 0.309022 0
    outer loop
      vertex -76.4266 90.4635 0
      vertex -75.8817 88.7865 6
      vertex -75.8817 88.7865 0
    endloop
  endfacet
  facet normal -0.58778 -0.809021 0
    outer loop
      vertex -74.3118 91 2
      vertex -75 91.5 6
      vertex -75 91.5 2
    endloop
  endfacet
  facet normal -0.587791 -0.809013 -2.73622e-06
    outer loop
      vertex -75 91.5 6
      vertex -74.3118 91 2
      vertex -73.5734 90.4635 6
    endloop
  endfacet
  facet normal -0.5878 -0.809006 0
    outer loop
      vertex -73.5734 90.4635 0
      vertex -74.3118 91 2
      vertex -74.3118 91 0
    endloop
  endfacet
  facet normal -0.5878 -0.809006 0
    outer loop
      vertex -74.3118 91 2
      vertex -73.5734 90.4635 0
      vertex -73.5734 90.4635 6
    endloop
  endfacet
  facet normal -0.951055 0.309022 0
    outer loop
      vertex -74.1183 88.7865 0
      vertex -73.5734 90.4635 6
      vertex -73.5734 90.4635 0
    endloop
  endfacet
  facet normal -0.951055 0.309022 0
    outer loop
      vertex -73.5734 90.4635 6
      vertex -74.1183 88.7865 0
      vertex -74.1183 88.7865 6
    endloop
  endfacet
  facet normal 0 -1 0
    outer loop
      vertex -45.7636 -13 44.5983
      vertex -34.7641 -13 46.0517
      vertex -46.2359 -13 46.0517
    endloop
  endfacet
  facet normal 0 -1 0
    outer loop
      vertex -45.7636 -13 44.5983
      vertex -35.2364 -13 44.5983
      vertex -34.7641 -13 46.0517
    endloop
  endfacet
  facet normal 0 -1 0
    outer loop
      vertex -47 -13 43.7
      vertex -35.2364 -13 44.5983
      vertex -45.7636 -13 44.5983
    endloop
  endfacet
  facet normal 0 -1 -0
    outer loop
      vertex -35.2364 -13 44.5983
      vertex -47 -13 43.7
      vertex -34 -13 43.7
    endloop
  endfacet
  facet normal 0 -1 0
    outer loop
      vertex -46.2359 -13 46.0517
      vertex -53 -13 58
      vertex -47.7641 -13 46.0517
    endloop
  endfacet
  facet normal 0 -1 0
    outer loop
      vertex -53 -13 58
      vertex -48.2364 -13 44.5983
      vertex -47.7641 -13 46.0517
    endloop
  endfacet
  facet normal 0 -1 -0
    outer loop
      vertex -47 -13 43.7
      vertex -53 -13 35
      vertex -34 -13 43.7
    endloop
  endfacet
  facet normal 0 -1 -0
    outer loop
      vertex -48.2364 -13 44.5983
      vertex -53 -13 35
      vertex -47 -13 43.7
    endloop
  endfacet
  facet normal 0 -1 0
    outer loop
      vertex -53 -13 35
      vertex -48.2364 -13 44.5983
      vertex -53 -13 58
    endloop
  endfacet
  facet normal 0 -1 0
    outer loop
      vertex -53 -13 58
      vertex -46.2359 -13 46.0517
      vertex -28 -13 58
    endloop
  endfacet
  facet normal 0 -1 0
    outer loop
      vertex -34.7641 -13 46.0517
      vertex -28 -13 58
      vertex -46.2359 -13 46.0517
    endloop
  endfacet
  facet normal 0 -1 0
    outer loop
      vertex -33.2359 -13 46.0517
      vertex -28 -13 58
      vertex -34.7641 -13 46.0517
    endloop
  endfacet
  facet normal 0 -1 0
    outer loop
      vertex -32.7636 -13 44.5983
      vertex -28 -13 58
      vertex -33.2359 -13 46.0517
    endloop
  endfacet
  facet normal 0 -1 0
    outer loop
      vertex -32.7636 -13 44.5983
      vertex -28 -13 35
      vertex -28 -13 58
    endloop
  endfacet
  facet normal 0 -1 0
    outer loop
      vertex -34 -13 43.7
      vertex -28 -13 35
      vertex -32.7636 -13 44.5983
    endloop
  endfacet
  facet normal 0 -1 0
    outer loop
      vertex -28 -13 35
      vertex -34 -13 43.7
      vertex -53 -13 35
    endloop
  endfacet
  facet normal -0 0 1
    outer loop
      vertex -53 -11 58
      vertex -28 -13 58
      vertex -28 -11 58
    endloop
  endfacet
  facet normal 0 0 1
    outer loop
      vertex -28 -13 58
      vertex -53 -11 58
      vertex -53 -13 58
    endloop
  endfacet
  facet normal 0 1 -0
    outer loop
      vertex -35.2364 -11 44.5983
      vertex -46.2359 -11 46.0517
      vertex -34.7641 -11 46.0517
    endloop
  endfacet
  facet normal 0 1 0
    outer loop
      vertex -35.2364 -11 44.5983
      vertex -45.7636 -11 44.5983
      vertex -46.2359 -11 46.0517
    endloop
  endfacet
  facet normal 0 1 0
    outer loop
      vertex -34 -11 43.7
      vertex -45.7636 -11 44.5983
      vertex -35.2364 -11 44.5983
    endloop
  endfacet
  facet normal 0 1 0
    outer loop
      vertex -45.7636 -11 44.5983
      vertex -34 -11 43.7
      vertex -47 -11 43.7
    endloop
  endfacet
  facet normal 0 1 0
    outer loop
      vertex -34.7641 -11 46.0517
      vertex -28 -11 58
      vertex -33.2359 -11 46.0517
    endloop
  endfacet
  facet normal 0 1 0
    outer loop
      vertex -28 -11 58
      vertex -32.7636 -11 44.5983
      vertex -33.2359 -11 46.0517
    endloop
  endfacet
  facet normal 0 1 0
    outer loop
      vertex -34 -11 43.7
      vertex -28 -11 3
      vertex -47 -11 43.7
    endloop
  endfacet
  facet normal 0 1 0
    outer loop
      vertex -32.7636 -11 44.5983
      vertex -28 -11 3
      vertex -34 -11 43.7
    endloop
  endfacet
  facet normal 0 1 -0
    outer loop
      vertex -28 -11 3
      vertex -32.7636 -11 44.5983
      vertex -28 -11 58
    endloop
  endfacet
  facet normal 0 1 0
    outer loop
      vertex -28 -11 58
      vertex -34.7641 -11 46.0517
      vertex -53 -11 58
    endloop
  endfacet
  facet normal 0 1 -0
    outer loop
      vertex -46.2359 -11 46.0517
      vertex -53 -11 58
      vertex -34.7641 -11 46.0517
    endloop
  endfacet
  facet normal 0 1 -0
    outer loop
      vertex -47.7641 -11 46.0517
      vertex -53 -11 58
      vertex -46.2359 -11 46.0517
    endloop
  endfacet
  facet normal 0 1 -0
    outer loop
      vertex -48.2364 -11 44.5983
      vertex -53 -11 58
      vertex -47.7641 -11 46.0517
    endloop
  endfacet
  facet normal 0 1 0
    outer loop
      vertex -53 -11 3
      vertex -47 -11 43.7
      vertex -28 -11 3
    endloop
  endfacet
  facet normal 0 1 0
    outer loop
      vertex -48.2364 -11 44.5983
      vertex -53 -11 3
      vertex -53 -11 58
    endloop
  endfacet
  facet normal 0 1 0
    outer loop
      vertex -47 -11 43.7
      vertex -53 -11 3
      vertex -48.2364 -11 44.5983
    endloop
  endfacet
  facet normal -1 0 0
    outer loop
      vertex -53 -2 0
      vertex -53 -11 3
      vertex -53 -2 3
    endloop
  endfacet
  facet normal -1 0 0
    outer loop
      vertex -53 -11 3
      vertex -53 -13 35
      vertex -53 -11 58
    endloop
  endfacet
  facet normal -1 0 0
    outer loop
      vertex -53 -15 0
      vertex -53 -11 3
      vertex -53 -2 0
    endloop
  endfacet
  facet normal -1 0 0
    outer loop
      vertex -53 -15 35
      vertex -53 -11 3
      vertex -53 -15 0
    endloop
  endfacet
  facet normal -1 0 0
    outer loop
      vertex -53 -11 3
      vertex -53 -15 35
      vertex -53 -13 35
    endloop
  endfacet
  facet normal -1 -0 0
    outer loop
      vertex -53 -11 58
      vertex -53 -13 35
      vertex -53 -13 58
    endloop
  endfacet
  facet normal 1 0 0
    outer loop
      vertex -28 -13 35
      vertex -28 -11 58
      vertex -28 -13 58
    endloop
  endfacet
  facet normal 1 -0 0
    outer loop
      vertex -28 -11 3
      vertex -28 -2 0
      vertex -28 -2 3
    endloop
  endfacet
  facet normal 1 0 0
    outer loop
      vertex -28 -11 58
      vertex -28 -13 35
      vertex -28 -11 3
    endloop
  endfacet
  facet normal 1 -0 0
    outer loop
      vertex -28 -15 35
      vertex -28 -11 3
      vertex -28 -13 35
    endloop
  endfacet
  facet normal 1 0 0
    outer loop
      vertex -28 -11 3
      vertex -28 -15 0
      vertex -28 -2 0
    endloop
  endfacet
  facet normal 1 0 0
    outer loop
      vertex -28 -15 0
      vertex -28 -11 3
      vertex -28 -15 35
    endloop
  endfacet
  facet normal 0.587786 0 0.809016
    outer loop
      vertex -35.2364 -11 44.5983
      vertex -34 -13 43.7
      vertex -34 -11 43.7
    endloop
  endfacet
  facet normal 0.587786 0 0.809016
    outer loop
      vertex -34 -13 43.7
      vertex -35.2364 -11 44.5983
      vertex -35.2364 -13 44.5983
    endloop
  endfacet
  facet normal 0 0 -1
    outer loop
      vertex -34.7641 -13 46.0517
      vertex -33.2359 -11 46.0517
      vertex -33.2359 -13 46.0517
    endloop
  endfacet
  facet normal -0 0 -1
    outer loop
      vertex -33.2359 -11 46.0517
      vertex -34.7641 -13 46.0517
      vertex -34.7641 -11 46.0517
    endloop
  endfacet
  facet normal 0.951045 0 -0.309054
    outer loop
      vertex -34.7641 -13 46.0517
      vertex -35.2364 -11 44.5983
      vertex -34.7641 -11 46.0517
    endloop
  endfacet
  facet normal 0.951045 0 -0.309054
    outer loop
      vertex -35.2364 -11 44.5983
      vertex -34.7641 -13 46.0517
      vertex -35.2364 -13 44.5983
    endloop
  endfacet
  facet normal -0.951045 0 -0.309054
    outer loop
      vertex -32.7636 -13 44.5983
      vertex -33.2359 -11 46.0517
      vertex -32.7636 -11 44.5983
    endloop
  endfacet
  facet normal -0.951045 -0 -0.309054
    outer loop
      vertex -33.2359 -11 46.0517
      vertex -32.7636 -13 44.5983
      vertex -33.2359 -13 46.0517
    endloop
  endfacet
  facet normal -0.587786 0 0.809016
    outer loop
      vertex -34 -11 43.7
      vertex -32.7636 -13 44.5983
      vertex -32.7636 -11 44.5983
    endloop
  endfacet
  facet normal -0.587786 0 0.809016
    outer loop
      vertex -32.7636 -13 44.5983
      vertex -34 -11 43.7
      vertex -34 -13 43.7
    endloop
  endfacet
  facet normal 0.587786 0 0.809016
    outer loop
      vertex -48.2364 -11 44.5983
      vertex -47 -13 43.7
      vertex -47 -11 43.7
    endloop
  endfacet
  facet normal 0.587786 0 0.809016
    outer loop
      vertex -47 -13 43.7
      vertex -48.2364 -11 44.5983
      vertex -48.2364 -13 44.5983
    endloop
  endfacet
  facet normal 0 0 -1
    outer loop
      vertex -47.7641 -13 46.0517
      vertex -46.2359 -11 46.0517
      vertex -46.2359 -13 46.0517
    endloop
  endfacet
  facet normal -0 0 -1
    outer loop
      vertex -46.2359 -11 46.0517
      vertex -47.7641 -13 46.0517
      vertex -47.7641 -11 46.0517
    endloop
  endfacet
  facet normal 0.951045 0 -0.309054
    outer loop
      vertex -47.7641 -13 46.0517
      vertex -48.2364 -11 44.5983
      vertex -47.7641 -11 46.0517
    endloop
  endfacet
  facet normal 0.951045 0 -0.309054
    outer loop
      vertex -48.2364 -11 44.5983
      vertex -47.7641 -13 46.0517
      vertex -48.2364 -13 44.5983
    endloop
  endfacet
  facet normal -0.951045 0 -0.309054
    outer loop
      vertex -45.7636 -13 44.5983
      vertex -46.2359 -11 46.0517
      vertex -45.7636 -11 44.5983
    endloop
  endfacet
  facet normal -0.951045 -0 -0.309054
    outer loop
      vertex -46.2359 -11 46.0517
      vertex -45.7636 -13 44.5983
      vertex -46.2359 -13 46.0517
    endloop
  endfacet
  facet normal -0.587786 0 0.809016
    outer loop
      vertex -47 -11 43.7
      vertex -45.7636 -13 44.5983
      vertex -45.7636 -11 44.5983
    endloop
  endfacet
  facet normal -0.587786 0 0.809016
    outer loop
      vertex -45.7636 -13 44.5983
      vertex -47 -11 43.7
      vertex -47 -13 43.7
    endloop
  endfacet
  facet normal 0 -1 0
    outer loop
      vertex -53 -15 0
      vertex -28 -15 35
      vertex -53 -15 35
    endloop
  endfacet
  facet normal 0 -1 -0
    outer loop
      vertex -28 -15 35
      vertex -53 -15 0
      vertex -28 -15 0
    endloop
  endfacet
  facet normal -0 0 1
    outer loop
      vertex -53 -2 3
      vertex -28 -11 3
      vertex -28 -2 3
    endloop
  endfacet
  facet normal 0 0 1
    outer loop
      vertex -28 -11 3
      vertex -53 -2 3
      vertex -53 -11 3
    endloop
  endfacet
  facet normal -0 0 1
    outer loop
      vertex -53 -13 35
      vertex -28 -15 35
      vertex -28 -13 35
    endloop
  endfacet
  facet normal 0 0 1
    outer loop
      vertex -28 -15 35
      vertex -53 -13 35
      vertex -53 -15 35
    endloop
  endfacet
  facet normal 0 1 -0
    outer loop
      vertex 0 0 6
      vertex -80 0 9
      vertex 0 0 9
    endloop
  endfacet
  facet normal 0 1 0
    outer loop
      vertex -80 0 9
      vertex 0 0 6
      vertex -80 0 6
    endloop
  endfacet
  facet normal 0 -1 0
    outer loop
      vertex -80 100 6
      vertex 0 100 9
      vertex -80 100 9
    endloop
  endfacet
  facet normal 0 -1 -0
    outer loop
      vertex 0 100 9
      vertex -80 100 6
      vertex 0 100 6
    endloop
  endfacet
  facet normal -1 0 0
    outer loop
      vertex -2 29.3333 0
      vertex -2 10 0
      vertex -2 29.3333 2
    endloop
  endfacet
  facet normal -1 0 0
    outer loop
      vertex -2 62.6667 0
      vertex -2 37.3333 0
      vertex -2 62.6667 2
    endloop
  endfacet
  facet normal -1 0 0
    outer loop
      vertex -2 91 0
      vertex -2 70.6667 0
      vertex -2 91 2
    endloop
  endfacet
  facet normal -1 0 0
    outer loop
      vertex -2 91 2
      vertex -2 98 6
      vertex -2 98 2
    endloop
  endfacet
  facet normal -1 0 0
    outer loop
      vertex -2 70.6667 2
      vertex -2 91 2
      vertex -2 70.6667 0
    endloop
  endfacet
  facet normal -1 0 0
    outer loop
      vertex -2 91 2
      vertex -2 70.6667 2
      vertex -2 98 6
    endloop
  endfacet
  facet normal -1 0 0
    outer loop
      vertex -2 62.6667 2
      vertex -2 98 6
      vertex -2 70.6667 2
    endloop
  endfacet
  facet normal -1 0 0
    outer loop
      vertex -2 37.3333 2
      vertex -2 62.6667 2
      vertex -2 37.3333 0
    endloop
  endfacet
  facet normal -1 0 0
    outer loop
      vertex -2 62.6667 2
      vertex -2 37.3333 2
      vertex -2 98 6
    endloop
  endfacet
  facet normal -1 0 0
    outer loop
      vertex -2 2 6
      vertex -2 37.3333 2
      vertex -2 29.3333 2
    endloop
  endfacet
  facet normal -1 0 0
    outer loop
      vertex -2 10 2
      vertex -2 29.3333 2
      vertex -2 10 0
    endloop
  endfacet
  facet normal -1 0 0
    outer loop
      vertex -2 2 6
      vertex -2 29.3333 2
      vertex -2 10 2
    endloop
  endfacet
  facet normal -1 0 0
    outer loop
      vertex -2 2 6
      vertex -2 10 2
      vertex -2 2 2
    endloop
  endfacet
  facet normal -1 0 0
    outer loop
      vertex -2 37.3333 2
      vertex -2 2 6
      vertex -2 98 6
    endloop
  endfacet
  facet normal 1 -0 0
    outer loop
      vertex 0 100 9
      vertex 0 102 6
      vertex 0 102 9
    endloop
  endfacet
  facet normal 1 0 0
    outer loop
      vertex 0 102 6
      vertex 0 100 9
      vertex 0 100 6
    endloop
  endfacet
  facet normal 1 -0 0
    outer loop
      vertex 0 -2 9
      vertex 0 0 6
      vertex 0 0 9
    endloop
  endfacet
  facet normal 1 0 0
    outer loop
      vertex 0 0 6
      vertex 0 -2 9
      vertex 0 -2 6
    endloop
  endfacet
  facet normal 1 -0 0
    outer loop
      vertex -80 0 9
      vertex -80 100 6
      vertex -80 100 9
    endloop
  endfacet
  facet normal 1 0 0
    outer loop
      vertex -80 100 6
      vertex -80 0 9
      vertex -80 0 6
    endloop
  endfacet
  facet normal 1 -0 0
    outer loop
      vertex -78 92.5309 6
      vertex -78 98 2
      vertex -78 98 6
    endloop
  endfacet
  facet normal 1 0 0
    outer loop
      vertex -78 98 2
      vertex -78 92.5309 6
      vertex -78 92.5309 2
    endloop
  endfacet
  facet normal 1 0 0
    outer loop
      vertex -78 87.5094 6
      vertex -78 70.6667 2
      vertex -78 87.5094 0
    endloop
  endfacet
  facet normal 1 0 0
    outer loop
      vertex -78 87.5094 6
      vertex -78 62.6667 2
      vertex -78 70.6667 2
    endloop
  endfacet
  facet normal 1 0 0
    outer loop
      vertex -78 62.6667 2
      vertex -78 37.3333 2
      vertex -78 62.6667 0
    endloop
  endfacet
  facet normal 1 0 0
    outer loop
      vertex -78 87.5094 6
      vertex -78 37.3333 2
      vertex -78 62.6667 2
    endloop
  endfacet
  facet normal 1 -0 0
    outer loop
      vertex -78 7.41681 6
      vertex -78 37.3333 2
      vertex -78 87.5094 6
    endloop
  endfacet
  facet normal 1 0 0
    outer loop
      vertex -78 29.3333 2
      vertex -78 10 2
      vertex -78 29.3333 0
    endloop
  endfacet
  facet normal 1 0 0
    outer loop
      vertex -78 37.3333 2
      vertex -78 7.41681 6
      vertex -78 29.3333 2
    endloop
  endfacet
  facet normal 1 0 0
    outer loop
      vertex -78 29.3333 2
      vertex -78 7.41681 6
      vertex -78 10 2
    endloop
  endfacet
  facet normal 1 0 0
    outer loop
      vertex -78 10 2
      vertex -78 7.41681 6
      vertex -78 7.41681 2
    endloop
  endfacet
  facet normal 1 0 0
    outer loop
      vertex -78 87.5094 0
      vertex -78 70.6667 2
      vertex -78 70.6667 0
    endloop
  endfacet
  facet normal 1 0 0
    outer loop
      vertex -78 62.6667 0
      vertex -78 37.3333 2
      vertex -78 37.3333 0
    endloop
  endfacet
  facet normal 1 0 0
    outer loop
      vertex -78 29.3333 0
      vertex -78 10 2
      vertex -78 10 0
    endloop
  endfacet
  facet normal 0 1 -0
    outer loop
      vertex -2 2 2
      vertex -14.6614 2 6
      vertex -2 2 6
    endloop
  endfacet
  facet normal 0 1 0
    outer loop
      vertex -14.6614 2 6
      vertex -2 2 2
      vertex -14.6614 2 2
    endloop
  endfacet
  facet normal 0 1 -0
    outer loop
      vertex -21.3386 2 2
      vertex -72.6614 2 6
      vertex -21.3386 2 6
    endloop
  endfacet
  facet normal 0 1 0
    outer loop
      vertex -72.6614 2 6
      vertex -21.3386 2 2
      vertex -72.6614 2 2
    endloop
  endfacet
  facet normal 0 -1 0
    outer loop
      vertex -78 98 2
      vertex -2 98 6
      vertex -78 98 6
    endloop
  endfacet
  facet normal 0 -1 -0
    outer loop
      vertex -2 98 6
      vertex -78 98 2
      vertex -2 98 2
    endloop
  endfacet
  facet normal 0 -1 0
    outer loop
      vertex -28 -2 3
      vertex 0 -2 9
      vertex -82 -2 9
    endloop
  endfacet
  facet normal 0 -1 -0
    outer loop
      vertex 0 -2 9
      vertex -28 -2 3
      vertex 0 -2 6
    endloop
  endfacet
  facet normal 0 -1 0
    outer loop
      vertex -28 -2 3
      vertex -82 -2 9
      vertex -53 -2 3
    endloop
  endfacet
  facet normal 0 -1 0
    outer loop
      vertex -82 -2 0
      vertex -53 -2 3
      vertex -82 -2 9
    endloop
  endfacet
  facet normal 0 -1 -0
    outer loop
      vertex -53 -2 3
      vertex -82 -2 0
      vertex -53 -2 0
    endloop
  endfacet
  facet normal 0 -1 0
    outer loop
      vertex -28 -2 0
      vertex 0 -2 6
      vertex -28 -2 3
    endloop
  endfacet
  facet normal 0 -1 -0
    outer loop
      vertex 0 -2 6
      vertex -28 -2 0
      vertex 2 -2 0
    endloop
  endfacet
  facet normal 0 -1 0
    outer loop
      vertex 0 -2 6
      vertex 2 -2 0
      vertex 2 -2 6
    endloop
  endfacet
  facet normal 0 1 0
    outer loop
      vertex 2 102 6
      vertex 2 102 0
      vertex 0 102 6
    endloop
  endfacet
  facet normal 0 1 -0
    outer loop
      vertex 0 102 6
      vertex -82 102 9
      vertex 0 102 9
    endloop
  endfacet
  facet normal 0 1 0
    outer loop
      vertex -82 102 0
      vertex 0 102 6
      vertex 2 102 0
    endloop
  endfacet
  facet normal 0 1 0
    outer loop
      vertex 0 102 6
      vertex -82 102 0
      vertex -82 102 9
    endloop
  endfacet
  facet normal 1 -0 0
    outer loop
      vertex 2 -2 6
      vertex 2 102 0
      vertex 2 102 6
    endloop
  endfacet
  facet normal 1 0 0
    outer loop
      vertex 2 102 0
      vertex 2 -2 6
      vertex 2 -2 0
    endloop
  endfacet
  facet normal 0 0 1
    outer loop
      vertex 0 102 9
      vertex -80 100 9
      vertex 0 100 9
    endloop
  endfacet
  facet normal 0 0 1
    outer loop
      vertex -80 100 9
      vertex -82 102 9
      vertex -80 0 9
    endloop
  endfacet
  facet normal -0 0 1
    outer loop
      vertex -82 102 9
      vertex -80 100 9
      vertex 0 102 9
    endloop
  endfacet
  facet normal -0 0 1
    outer loop
      vertex -80 0 9
      vertex 0 -2 9
      vertex 0 0 9
    endloop
  endfacet
  facet normal 0 0 1
    outer loop
      vertex -80 0 9
      vertex -82 -2 9
      vertex 0 -2 9
    endloop
  endfacet
  facet normal 0 0 1
    outer loop
      vertex -82 -2 9
      vertex -80 0 9
      vertex -82 102 9
    endloop
  endfacet
  facet normal -1 0 0
    outer loop
      vertex -82 -2 0
      vertex -82 102 9
      vertex -82 102 0
    endloop
  endfacet
  facet normal -1 -0 0
    outer loop
      vertex -82 102 9
      vertex -82 -2 0
      vertex -82 -2 9
    endloop
  endfacet
  facet normal 0 -1 0
    outer loop
      vertex -78 29.3333 0
      vertex -45 29.3333 2
      vertex -78 29.3333 2
    endloop
  endfacet
  facet normal 0 -1 -0
    outer loop
      vertex -45 29.3333 2
      vertex -78 29.3333 0
      vertex -45 29.3333 0
    endloop
  endfacet
  facet normal 0 -1 0
    outer loop
      vertex -35 29.3333 0
      vertex -2 29.3333 2
      vertex -35 29.3333 2
    endloop
  endfacet
  facet normal 0 -1 -0
    outer loop
      vertex -2 29.3333 2
      vertex -35 29.3333 0
      vertex -2 29.3333 0
    endloop
  endfacet
  facet normal 0 0 1
    outer loop
      vertex -17 91.5 2
      vertex -17.6882 91 2
      vertex -16.3118 91 2
    endloop
  endfacet
  facet normal 0 0 1
    outer loop
      vertex -75 91.5 2
      vertex -75.6882 91 2
      vertex -74.3118 91 2
    endloop
  endfacet
  facet normal 0 0 1
    outer loop
      vertex -45 10 2
      vertex -72.7081 6.27226 2
      vertex -72.0292 4.48215 2
    endloop
  endfacet
  facet normal 0 0 1
    outer loop
      vertex -45 10 2
      vertex -74.1411 7.54182 2
      vertex -72.7081 6.27226 2
    endloop
  endfacet
  facet normal -0 0 1
    outer loop
      vertex -78 10 2
      vertex -74.1411 7.54182 2
      vertex -45 10 2
    endloop
  endfacet
  facet normal 0 0 1
    outer loop
      vertex -74.1411 7.54182 2
      vertex -78 10 2
      vertex -76 8 2
    endloop
  endfacet
  facet normal 0 0 1
    outer loop
      vertex -78 10 2
      vertex -77.8589 7.54182 2
      vertex -76 8 2
    endloop
  endfacet
  facet normal 0 0 1
    outer loop
      vertex -77.8589 7.54182 2
      vertex -78 10 2
      vertex -78 7.41681 2
    endloop
  endfacet
  facet normal -0 0 1
    outer loop
      vertex -78 37.3333 2
      vertex -45 29.3333 2
      vertex -45 37.3333 2
    endloop
  endfacet
  facet normal 0 0 1
    outer loop
      vertex -45 29.3333 2
      vertex -78 37.3333 2
      vertex -78 29.3333 2
    endloop
  endfacet
  facet normal -0 0 1
    outer loop
      vertex -78 70.6667 2
      vertex -45 62.6667 2
      vertex -45 70.6667 2
    endloop
  endfacet
  facet normal 0 0 1
    outer loop
      vertex -45 62.6667 2
      vertex -78 70.6667 2
      vertex -78 62.6667 2
    endloop
  endfacet
  facet normal -0 0 1
    outer loop
      vertex -13.7081 92.2723 2
      vertex -2 91 2
      vertex -2 98 2
    endloop
  endfacet
  facet normal 0 0 1
    outer loop
      vertex -2 91 2
      vertex -13.7081 92.2723 2
      vertex -13.2256 91 2
    endloop
  endfacet
  facet normal 0 0 1
    outer loop
      vertex -2 98 2
      vertex -15.1411 93.5418 2
      vertex -13.7081 92.2723 2
    endloop
  endfacet
  facet normal 0 0 1
    outer loop
      vertex -2 98 2
      vertex -17 94 2
      vertex -15.1411 93.5418 2
    endloop
  endfacet
  facet normal -0 0 1
    outer loop
      vertex -78 98 2
      vertex -17 94 2
      vertex -2 98 2
    endloop
  endfacet
  facet normal 0 0 1
    outer loop
      vertex -20.2919 92.2723 2
      vertex -35 91 2
      vertex -20.7744 91 2
    endloop
  endfacet
  facet normal 0 0 1
    outer loop
      vertex -18.8589 93.5418 2
      vertex -35 91 2
      vertex -20.2919 92.2723 2
    endloop
  endfacet
  facet normal 0 0 1
    outer loop
      vertex -17 94 2
      vertex -78 98 2
      vertex -18.8589 93.5418 2
    endloop
  endfacet
  facet normal 0 0 1
    outer loop
      vertex -45 70.6667 2
      vertex -35 70.6667 2
      vertex -35 91 2
    endloop
  endfacet
  facet normal 0 0 1
    outer loop
      vertex -35 70.6667 2
      vertex -45 70.6667 2
      vertex -35 62.6667 2
    endloop
  endfacet
  facet normal 0 0 1
    outer loop
      vertex -35 62.6667 2
      vertex -45 62.6667 2
      vertex -35 37.3333 2
    endloop
  endfacet
  facet normal 0 0 1
    outer loop
      vertex -45 37.3333 2
      vertex -35 37.3333 2
      vertex -45 62.6667 2
    endloop
  endfacet
  facet normal 0 0 1
    outer loop
      vertex -45 70.6667 2
      vertex -35 91 2
      vertex -45 91 2
    endloop
  endfacet
  facet normal 0 0 1
    outer loop
      vertex -18.8589 93.5418 2
      vertex -45 91 2
      vertex -35 91 2
    endloop
  endfacet
  facet normal 0 0 1
    outer loop
      vertex -18.8589 93.5418 2
      vertex -78 98 2
      vertex -45 91 2
    endloop
  endfacet
  facet normal 0 0 1
    outer loop
      vertex -45 91 2
      vertex -71.7081 92.2723 2
      vertex -71.2256 91 2
    endloop
  endfacet
  facet normal 0 0 1
    outer loop
      vertex -45 91 2
      vertex -73.1411 93.5418 2
      vertex -71.7081 92.2723 2
    endloop
  endfacet
  facet normal 0 0 1
    outer loop
      vertex -45 91 2
      vertex -78 98 2
      vertex -73.1411 93.5418 2
    endloop
  endfacet
  facet normal 0 0 1
    outer loop
      vertex -73.1411 93.5418 2
      vertex -78 98 2
      vertex -75 94 2
    endloop
  endfacet
  facet normal 0 0 1
    outer loop
      vertex -78 98 2
      vertex -76.8589 93.5418 2
      vertex -75 94 2
    endloop
  endfacet
  facet normal 0 0 1
    outer loop
      vertex -76.8589 93.5418 2
      vertex -78 98 2
      vertex -78 92.5309 2
    endloop
  endfacet
  facet normal -0 0 1
    outer loop
      vertex -35 70.6667 2
      vertex -2 62.6667 2
      vertex -2 70.6667 2
    endloop
  endfacet
  facet normal 0 0 1
    outer loop
      vertex -2 62.6667 2
      vertex -35 70.6667 2
      vertex -35 62.6667 2
    endloop
  endfacet
  facet normal -0 0 1
    outer loop
      vertex -35 37.3333 2
      vertex -2 29.3333 2
      vertex -2 37.3333 2
    endloop
  endfacet
  facet normal 0 0 1
    outer loop
      vertex -2 29.3333 2
      vertex -35 37.3333 2
      vertex -35 29.3333 2
    endloop
  endfacet
  facet normal 0 0 1
    outer loop
      vertex -2 10 2
      vertex -14.0292 4.48215 2
      vertex -2 2 2
    endloop
  endfacet
  facet normal 0 0 1
    outer loop
      vertex -2 10 2
      vertex -14.7081 6.27226 2
      vertex -14.0292 4.48215 2
    endloop
  endfacet
  facet normal 0 0 1
    outer loop
      vertex -2 10 2
      vertex -16.1411 7.54182 2
      vertex -14.7081 6.27226 2
    endloop
  endfacet
  facet normal 0 0 1
    outer loop
      vertex -2 10 2
      vertex -18 8 2
      vertex -16.1411 7.54182 2
    endloop
  endfacet
  facet normal 0 0 1
    outer loop
      vertex -21.2919 6.27226 2
      vertex -35 10 2
      vertex -21.9708 4.48215 2
    endloop
  endfacet
  facet normal 0 0 1
    outer loop
      vertex -19.8589 7.54182 2
      vertex -35 10 2
      vertex -21.2919 6.27226 2
    endloop
  endfacet
  facet normal 0 0 1
    outer loop
      vertex -18 8 2
      vertex -35 10 2
      vertex -19.8589 7.54182 2
    endloop
  endfacet
  facet normal -0 0 1
    outer loop
      vertex -35 10 2
      vertex -18 8 2
      vertex -2 10 2
    endloop
  endfacet
  facet normal -0 0 1
    outer loop
      vertex -14.2599 2.58158 2
      vertex -2 2 2
      vertex -14.0292 4.48215 2
    endloop
  endfacet
  facet normal 0 0 1
    outer loop
      vertex -2 2 2
      vertex -14.2599 2.58158 2
      vertex -14.6614 2 2
    endloop
  endfacet
  facet normal 0 0 1
    outer loop
      vertex -35 10 2
      vertex -21.7401 2.58158 2
      vertex -21.9708 4.48215 2
    endloop
  endfacet
  facet normal 0 0 1
    outer loop
      vertex -35 10 2
      vertex -21.3386 2 2
      vertex -21.7401 2.58158 2
    endloop
  endfacet
  facet normal 0 0 1
    outer loop
      vertex -35 62.6667 2
      vertex -45 70.6667 2
      vertex -45 62.6667 2
    endloop
  endfacet
  facet normal 0 0 1
    outer loop
      vertex -35 37.3333 2
      vertex -45 37.3333 2
      vertex -35 29.3333 2
    endloop
  endfacet
  facet normal 0 0 1
    outer loop
      vertex -45 29.3333 2
      vertex -35 29.3333 2
      vertex -45 37.3333 2
    endloop
  endfacet
  facet normal 0 0 1
    outer loop
      vertex -35 29.3333 2
      vertex -45 29.3333 2
      vertex -35 10 2
    endloop
  endfacet
  facet normal 0 0 1
    outer loop
      vertex -45 10 2
      vertex -35 10 2
      vertex -45 29.3333 2
    endloop
  endfacet
  facet normal -0 0 1
    outer loop
      vertex -45 10 2
      vertex -21.3386 2 2
      vertex -35 10 2
    endloop
  endfacet
  facet normal 0 0 1
    outer loop
      vertex -72.2599 2.58158 2
      vertex -45 10 2
      vertex -72.0292 4.48215 2
    endloop
  endfacet
  facet normal 0 0 1
    outer loop
      vertex -72.6614 2 2
      vertex -45 10 2
      vertex -72.2599 2.58158 2
    endloop
  endfacet
  facet normal 0 0 1
    outer loop
      vertex -45 10 2
      vertex -72.6614 2 2
      vertex -21.3386 2 2
    endloop
  endfacet
  facet normal 0 0 1
    outer loop
      vertex -76 5.5 2
      vertex -75.1183 2.78648 2
      vertex -74.5734 4.46352 2
    endloop
  endfacet
  facet normal 0 0 1
    outer loop
      vertex -76 5.5 2
      vertex -76.8817 2.78648 2
      vertex -75.1183 2.78648 2
    endloop
  endfacet
  facet normal 0 -0 1
    outer loop
      vertex -76.8817 2.78648 2
      vertex -76 5.5 2
      vertex -77.4266 4.46352 2
    endloop
  endfacet
  facet normal 0 0 1
    outer loop
      vertex -18 5.5 2
      vertex -17.1183 2.78648 2
      vertex -16.5734 4.46352 2
    endloop
  endfacet
  facet normal 0 0 1
    outer loop
      vertex -18 5.5 2
      vertex -18.8817 2.78648 2
      vertex -17.1183 2.78648 2
    endloop
  endfacet
  facet normal 0 -0 1
    outer loop
      vertex -18.8817 2.78648 2
      vertex -18 5.5 2
      vertex -19.4266 4.46352 2
    endloop
  endfacet
  facet normal 0 1 -0
    outer loop
      vertex -45 37.3333 0
      vertex -78 37.3333 2
      vertex -45 37.3333 2
    endloop
  endfacet
  facet normal 0 1 0
    outer loop
      vertex -78 37.3333 2
      vertex -45 37.3333 0
      vertex -78 37.3333 0
    endloop
  endfacet
  facet normal 0 1 -0
    outer loop
      vertex -2 37.3333 0
      vertex -35 37.3333 2
      vertex -2 37.3333 2
    endloop
  endfacet
  facet normal 0 1 0
    outer loop
      vertex -35 37.3333 2
      vertex -2 37.3333 0
      vertex -35 37.3333 0
    endloop
  endfacet
  facet normal 0 -1 0
    outer loop
      vertex -78 62.6667 0
      vertex -45 62.6667 2
      vertex -78 62.6667 2
    endloop
  endfacet
  facet normal 0 -1 -0
    outer loop
      vertex -45 62.6667 2
      vertex -78 62.6667 0
      vertex -45 62.6667 0
    endloop
  endfacet
  facet normal 0 -1 0
    outer loop
      vertex -35 62.6667 0
      vertex -2 62.6667 2
      vertex -35 62.6667 2
    endloop
  endfacet
  facet normal 0 -1 -0
    outer loop
      vertex -2 62.6667 2
      vertex -35 62.6667 0
      vertex -2 62.6667 0
    endloop
  endfacet
  facet normal 0 1 -0
    outer loop
      vertex -45 70.6667 0
      vertex -78 70.6667 2
      vertex -45 70.6667 2
    endloop
  endfacet
  facet normal 0 1 0
    outer loop
      vertex -78 70.6667 2
      vertex -45 70.6667 0
      vertex -78 70.6667 0
    endloop
  endfacet
  facet normal 0 1 -0
    outer loop
      vertex -2 70.6667 0
      vertex -35 70.6667 2
      vertex -2 70.6667 2
    endloop
  endfacet
  facet normal 0 1 0
    outer loop
      vertex -35 70.6667 2
      vertex -2 70.6667 0
      vertex -35 70.6667 0
    endloop
  endfacet
  facet normal 0 -1 0
    outer loop
      vertex -75.6882 91 0
      vertex -74.3118 91 2
      vertex -75.6882 91 2
    endloop
  endfacet
  facet normal 0 -1 -0
    outer loop
      vertex -74.3118 91 2
      vertex -75.6882 91 0
      vertex -74.3118 91 0
    endloop
  endfacet
  facet normal 0 -1 0
    outer loop
      vertex -17.6882 91 0
      vertex -16.3118 91 2
      vertex -17.6882 91 2
    endloop
  endfacet
  facet normal 0 -1 -0
    outer loop
      vertex -16.3118 91 2
      vertex -17.6882 91 0
      vertex -16.3118 91 0
    endloop
  endfacet
  facet normal 0 -1 0
    outer loop
      vertex -71.2256 91 0
      vertex -45 91 2
      vertex -71.2256 91 2
    endloop
  endfacet
  facet normal 0 -1 -0
    outer loop
      vertex -45 91 2
      vertex -71.2256 91 0
      vertex -45 91 0
    endloop
  endfacet
  facet normal 0 -1 0
    outer loop
      vertex -35 91 0
      vertex -20.7744 91 2
      vertex -35 91 2
    endloop
  endfacet
  facet normal 0 -1 -0
    outer loop
      vertex -20.7744 91 2
      vertex -35 91 0
      vertex -20.7744 91 0
    endloop
  endfacet
  facet normal 0 -1 0
    outer loop
      vertex -13.2256 91 0
      vertex -2 91 2
      vertex -13.2256 91 2
    endloop
  endfacet
  facet normal 0 -1 -0
    outer loop
      vertex -2 91 2
      vertex -13.2256 91 0
      vertex -2 91 0
    endloop
  endfacet
  facet normal 0 1 -0
    outer loop
      vertex -45 10 0
      vertex -78 10 2
      vertex -45 10 2
    endloop
  endfacet
  facet normal 0 1 0
    outer loop
      vertex -78 10 2
      vertex -45 10 0
      vertex -78 10 0
    endloop
  endfacet
  facet normal 0 1 -0
    outer loop
      vertex -2 10 0
      vertex -35 10 2
      vertex -2 10 2
    endloop
  endfacet
  facet normal 0 1 0
    outer loop
      vertex -35 10 2
      vertex -2 10 0
      vertex -35 10 0
    endloop
  endfacet
  facet normal -1 0 0
    outer loop
      vertex -45 10 0
      vertex -45 29.3333 2
      vertex -45 29.3333 0
    endloop
  endfacet
  facet normal -1 -0 0
    outer loop
      vertex -45 29.3333 2
      vertex -45 10 0
      vertex -45 10 2
    endloop
  endfacet
  facet normal -1 0 0
    outer loop
      vertex -45 37.3333 0
      vertex -45 62.6667 2
      vertex -45 62.6667 0
    endloop
  endfacet
  facet normal -1 -0 0
    outer loop
      vertex -45 62.6667 2
      vertex -45 37.3333 0
      vertex -45 37.3333 2
    endloop
  endfacet
  facet normal -1 0 0
    outer loop
      vertex -45 70.6667 0
      vertex -45 91 2
      vertex -45 91 0
    endloop
  endfacet
  facet normal -1 -0 0
    outer loop
      vertex -45 91 2
      vertex -45 70.6667 0
      vertex -45 70.6667 2
    endloop
  endfacet
  facet normal 1 -0 0
    outer loop
      vertex -35 10 2
      vertex -35 29.3333 0
      vertex -35 29.3333 2
    endloop
  endfacet
  facet normal 1 0 0
    outer loop
      vertex -35 29.3333 0
      vertex -35 10 2
      vertex -35 10 0
    endloop
  endfacet
  facet normal 1 -0 0
    outer loop
      vertex -35 37.3333 2
      vertex -35 62.6667 0
      vertex -35 62.6667 2
    endloop
  endfacet
  facet normal 1 0 0
    outer loop
      vertex -35 62.6667 0
      vertex -35 37.3333 2
      vertex -35 37.3333 0
    endloop
  endfacet
  facet normal 1 -0 0
    outer loop
      vertex -35 70.6667 2
      vertex -35 91 0
      vertex -35 91 2
    endloop
  endfacet
  facet normal 1 0 0
    outer loop
      vertex -35 91 0
      vertex -35 70.6667 2
      vertex -35 70.6667 0
    endloop
  endfacet
  facet normal -1 0 0
    outer loop
      vertex 20 110 0
      vertex 20 85 3
      vertex 20 110 7
    endloop
  endfacet
  facet normal -1 0 0
    outer loop
      vertex 20 110 0
      vertex 20 23 2
      vertex 20 85 3
    endloop
  endfacet
  facet normal -1 0 0
    outer loop
      vertex 20 0 0
      vertex 20 23 2
      vertex 20 110 0
    endloop
  endfacet
  facet normal -1 -0 0
    outer loop
      vertex 20 23 2
      vertex 20 0 0
      vertex 20 0 2
    endloop
  endfacet
  facet normal -1 -0 0
    outer loop
      vertex 20 110 7
      vertex 20 85 3
      vertex 20 85 7
    endloop
  endfacet
  facet normal -1 -0 0
    outer loop
      vertex 20 85 3
      vertex 20 23 2
      vertex 20 23 3
    endloop
  endfacet
  facet normal 0 0 1
    outer loop
      vertex 45 23 2
      vertex 40.3 13 2
      vertex 45 0 2
    endloop
  endfacet
  facet normal 0 0 1
    outer loop
      vertex 45 23 2
      vertex 39.4017 14.2364 2
      vertex 40.3 13 2
    endloop
  endfacet
  facet normal 0 0 1
    outer loop
      vertex 45 23 2
      vertex 37.9483 13.7641 2
      vertex 39.4017 14.2364 2
    endloop
  endfacet
  facet normal 0 0 1
    outer loop
      vertex 37.9483 13.7641 2
      vertex 27.3 13 2
      vertex 37.9483 12.2359 2
    endloop
  endfacet
  facet normal -0 0 1
    outer loop
      vertex 26.4017 14.2364 2
      vertex 37.9483 13.7641 2
      vertex 45 23 2
    endloop
  endfacet
  facet normal 0 0 1
    outer loop
      vertex 37.9483 13.7641 2
      vertex 26.4017 14.2364 2
      vertex 27.3 13 2
    endloop
  endfacet
  facet normal -0 0 1
    outer loop
      vertex 20 23 2
      vertex 26.4017 14.2364 2
      vertex 45 23 2
    endloop
  endfacet
  facet normal 0 0 1
    outer loop
      vertex 24.9483 13.7641 2
      vertex 20 23 2
      vertex 24.9483 12.2359 2
    endloop
  endfacet
  facet normal 0 0 1
    outer loop
      vertex 26.4017 14.2364 2
      vertex 20 23 2
      vertex 24.9483 13.7641 2
    endloop
  endfacet
  facet normal -0 0 1
    outer loop
      vertex 39.4017 11.7636 2
      vertex 45 0 2
      vertex 40.3 13 2
    endloop
  endfacet
  facet normal 0 0 1
    outer loop
      vertex 37.9483 12.2359 2
      vertex 45 0 2
      vertex 39.4017 11.7636 2
    endloop
  endfacet
  facet normal 0 0 1
    outer loop
      vertex 26.4017 11.7636 2
      vertex 37.9483 12.2359 2
      vertex 27.3 13 2
    endloop
  endfacet
  facet normal 0 0 1
    outer loop
      vertex 37.9483 12.2359 2
      vertex 26.4017 11.7636 2
      vertex 45 0 2
    endloop
  endfacet
  facet normal 0 0 1
    outer loop
      vertex 20 0 2
      vertex 26.4017 11.7636 2
      vertex 24.9483 12.2359 2
    endloop
  endfacet
  facet normal 0 0 1
    outer loop
      vertex 26.4017 11.7636 2
      vertex 20 0 2
      vertex 45 0 2
    endloop
  endfacet
  facet normal 0 0 1
    outer loop
      vertex 20 0 2
      vertex 24.9483 12.2359 2
      vertex 20 23 2
    endloop
  endfacet
  facet normal 1 0 0
    outer loop
      vertex 45 85 3
      vertex 45 110 7
      vertex 45 85 7
    endloop
  endfacet
  facet normal 1 0 0
    outer loop
      vertex 45 110 7
      vertex 45 85 3
      vertex 45 110 0
    endloop
  endfacet
  facet normal 1 0 0
    outer loop
      vertex 45 23 2
      vertex 45 85 3
      vertex 45 23 3
    endloop
  endfacet
  facet normal 1 0 0
    outer loop
      vertex 45 85 3
      vertex 45 23 2
      vertex 45 110 0
    endloop
  endfacet
  facet normal 1 0 0
    outer loop
      vertex 45 0 0
      vertex 45 23 2
      vertex 45 0 2
    endloop
  endfacet
  facet normal 1 0 0
    outer loop
      vertex 45 23 2
      vertex 45 0 0
      vertex 45 110 0
    endloop
  endfacet
  facet normal 0 0 -1
    outer loop
      vertex 45 0 0
      vertex 40.3 13 0
      vertex 45 110 0
    endloop
  endfacet
  facet normal 0 0 -1
    outer loop
      vertex 45 0 0
      vertex 39.4017 11.7636 0
      vertex 40.3 13 0
    endloop
  endfacet
  facet normal 0 0 -1
    outer loop
      vertex 45 0 0
      vertex 37.9483 12.2359 0
      vertex 39.4017 11.7636 0
    endloop
  endfacet
  facet normal 0 0 -1
    outer loop
      vertex 37.9483 12.2359 0
      vertex 27.3 13 0
      vertex 37.9483 13.7641 0
    endloop
  endfacet
  facet normal 0 0 -1
    outer loop
      vertex 26.4017 11.7636 0
      vertex 37.9483 12.2359 0
      vertex 45 0 0
    endloop
  endfacet
  facet normal -0 0 -1
    outer loop
      vertex 37.9483 12.2359 0
      vertex 26.4017 11.7636 0
      vertex 27.3 13 0
    endloop
  endfacet
  facet normal 0 0 -1
    outer loop
      vertex 20 0 0
      vertex 26.4017 11.7636 0
      vertex 45 0 0
    endloop
  endfacet
  facet normal -0 0 -1
    outer loop
      vertex 24.9483 12.2359 0
      vertex 20 0 0
      vertex 24.9483 13.7641 0
    endloop
  endfacet
  facet normal -0 0 -1
    outer loop
      vertex 26.4017 11.7636 0
      vertex 20 0 0
      vertex 24.9483 12.2359 0
    endloop
  endfacet
  facet normal 0 0 -1
    outer loop
      vertex 39.4017 14.2364 0
      vertex 45 110 0
      vertex 40.3 13 0
    endloop
  endfacet
  facet normal 0 0 -1
    outer loop
      vertex 26.4017 14.2364 0
      vertex 39.4017 14.2364 0
      vertex 37.9483 13.7641 0
    endloop
  endfacet
  facet normal 0 0 -1
    outer loop
      vertex 26.4017 14.2364 0
      vertex 37.9483 13.7641 0
      vertex 27.3 13 0
    endloop
  endfacet
  facet normal 0 0 -1
    outer loop
      vertex 39.4017 14.2364 0
      vertex 26.4017 14.2364 0
      vertex 45 110 0
    endloop
  endfacet
  facet normal 0 0 -1
    outer loop
      vertex 20 110 0
      vertex 26.4017 14.2364 0
      vertex 24.9483 13.7641 0
    endloop
  endfacet
  facet normal 0 0 -1
    outer loop
      vertex 20 110 0
      vertex 24.9483 13.7641 0
      vertex 20 0 0
    endloop
  endfacet
  facet normal 0 0 -1
    outer loop
      vertex 26.4017 14.2364 0
      vertex 20 110 0
      vertex 45 110 0
    endloop
  endfacet
  facet normal 0 -1 0
    outer loop
      vertex 20 0 0
      vertex 45 0 2
      vertex 20 0 2
    endloop
  endfacet
  facet normal 0 -1 -0
    outer loop
      vertex 45 0 2
      vertex 20 0 0
      vertex 45 0 0
    endloop
  endfacet
  facet normal 0 -1 0
    outer loop
      vertex 20 23 2
      vertex 45 23 3
      vertex 20 23 3
    endloop
  endfacet
  facet normal 0 -1 -0
    outer loop
      vertex 45 23 3
      vertex 20 23 2
      vertex 45 23 2
    endloop
  endfacet
  facet normal -0.809016 -0.587786 0
    outer loop
      vertex 40.3 13 0
      vertex 39.4017 14.2364 2
      vertex 39.4017 14.2364 0
    endloop
  endfacet
  facet normal -0.809016 -0.587786 0
    outer loop
      vertex 39.4017 14.2364 2
      vertex 40.3 13 0
      vertex 40.3 13 2
    endloop
  endfacet
  facet normal 1 -0 0
    outer loop
      vertex 37.9483 12.2359 2
      vertex 37.9483 13.7641 0
      vertex 37.9483 13.7641 2
    endloop
  endfacet
  facet normal 1 0 0
    outer loop
      vertex 37.9483 13.7641 0
      vertex 37.9483 12.2359 2
      vertex 37.9483 12.2359 0
    endloop
  endfacet
  facet normal 0.309054 -0.951045 0
    outer loop
      vertex 37.9483 13.7641 0
      vertex 39.4017 14.2364 2
      vertex 37.9483 13.7641 2
    endloop
  endfacet
  facet normal 0.309054 -0.951045 0
    outer loop
      vertex 39.4017 14.2364 2
      vertex 37.9483 13.7641 0
      vertex 39.4017 14.2364 0
    endloop
  endfacet
  facet normal 0.309054 0.951045 -0
    outer loop
      vertex 39.4017 11.7636 0
      vertex 37.9483 12.2359 2
      vertex 39.4017 11.7636 2
    endloop
  endfacet
  facet normal 0.309054 0.951045 0
    outer loop
      vertex 37.9483 12.2359 2
      vertex 39.4017 11.7636 0
      vertex 37.9483 12.2359 0
    endloop
  endfacet
  facet normal -0.809016 0.587786 0
    outer loop
      vertex 39.4017 11.7636 0
      vertex 40.3 13 2
      vertex 40.3 13 0
    endloop
  endfacet
  facet normal -0.809016 0.587786 0
    outer loop
      vertex 40.3 13 2
      vertex 39.4017 11.7636 0
      vertex 39.4017 11.7636 2
    endloop
  endfacet
  facet normal -0.809016 -0.587786 0
    outer loop
      vertex 27.3 13 0
      vertex 26.4017 14.2364 2
      vertex 26.4017 14.2364 0
    endloop
  endfacet
  facet normal -0.809016 -0.587786 0
    outer loop
      vertex 26.4017 14.2364 2
      vertex 27.3 13 0
      vertex 27.3 13 2
    endloop
  endfacet
  facet normal 1 -0 0
    outer loop
      vertex 24.9483 12.2359 2
      vertex 24.9483 13.7641 0
      vertex 24.9483 13.7641 2
    endloop
  endfacet
  facet normal 1 0 0
    outer loop
      vertex 24.9483 13.7641 0
      vertex 24.9483 12.2359 2
      vertex 24.9483 12.2359 0
    endloop
  endfacet
  facet normal 0.309054 -0.951045 0
    outer loop
      vertex 24.9483 13.7641 0
      vertex 26.4017 14.2364 2
      vertex 24.9483 13.7641 2
    endloop
  endfacet
  facet normal 0.309054 -0.951045 0
    outer loop
      vertex 26.4017 14.2364 2
      vertex 24.9483 13.7641 0
      vertex 26.4017 14.2364 0
    endloop
  endfacet
  facet normal 0.309054 0.951045 -0
    outer loop
      vertex 26.4017 11.7636 0
      vertex 24.9483 12.2359 2
      vertex 26.4017 11.7636 2
    endloop
  endfacet
  facet normal 0.309054 0.951045 0
    outer loop
      vertex 24.9483 12.2359 2
      vertex 26.4017 11.7636 0
      vertex 24.9483 12.2359 0
    endloop
  endfacet
  facet normal -0.809016 0.587786 0
    outer loop
      vertex 26.4017 11.7636 0
      vertex 27.3 13 2
      vertex 27.3 13 0
    endloop
  endfacet
  facet normal -0.809016 0.587786 0
    outer loop
      vertex 27.3 13 2
      vertex 26.4017 11.7636 0
      vertex 26.4017 11.7636 2
    endloop
  endfacet
  facet normal 0 0 1
    outer loop
      vertex 45 110 7
      vertex 44.5 109.5 7
      vertex 45 85 7
    endloop
  endfacet
  facet normal 0 0 1
    outer loop
      vertex 45 110 7
      vertex 20.5 109.5 7
      vertex 44.5 109.5 7
    endloop
  endfacet
  facet normal 0 0 1
    outer loop
      vertex 20.5 109.5 7
      vertex 20 110 7
      vertex 20.5 85.5 7
    endloop
  endfacet
  facet normal -0 0 1
    outer loop
      vertex 20 110 7
      vertex 20.5 109.5 7
      vertex 45 110 7
    endloop
  endfacet
  facet normal -0 0 1
    outer loop
      vertex 44.5 85.5 7
      vertex 45 85 7
      vertex 44.5 109.5 7
    endloop
  endfacet
  facet normal -0 0 1
    outer loop
      vertex 20.5 85.5 7
      vertex 45 85 7
      vertex 44.5 85.5 7
    endloop
  endfacet
  facet normal 0 0 1
    outer loop
      vertex 20.5 85.5 7
      vertex 20 85 7
      vertex 45 85 7
    endloop
  endfacet
  facet normal 0 0 1
    outer loop
      vertex 20 85 7
      vertex 20.5 85.5 7
      vertex 20 110 7
    endloop
  endfacet
  facet normal 0 1 -0
    outer loop
      vertex 45 110 0
      vertex 20 110 7
      vertex 45 110 7
    endloop
  endfacet
  facet normal 0 1 0
    outer loop
      vertex 20 110 7
      vertex 45 110 0
      vertex 20 110 0
    endloop
  endfacet
  facet normal 0 -1 0
    outer loop
      vertex 20 85 3
      vertex 45 85 7
      vertex 20 85 7
    endloop
  endfacet
  facet normal 0 -1 -0
    outer loop
      vertex 45 85 7
      vertex 20 85 3
      vertex 45 85 3
    endloop
  endfacet
  facet normal 1 0 0
    outer loop
      vertex 20.5 109.5 7
      vertex 20.5 101 4
      vertex 20.5 109.5 4
    endloop
  endfacet
  facet normal 1 0 0
    outer loop
      vertex 20.5 101 4
      vertex 20.5 94 4
      vertex 20.5 101 3
    endloop
  endfacet
  facet normal 1 0 0
    outer loop
      vertex 20.5 109.5 7
      vertex 20.5 94 4
      vertex 20.5 101 4
    endloop
  endfacet
  facet normal 1 -0 0
    outer loop
      vertex 20.5 85.5 7
      vertex 20.5 94 4
      vertex 20.5 109.5 7
    endloop
  endfacet
  facet normal 1 0 0
    outer loop
      vertex 20.5 94 4
      vertex 20.5 85.5 7
      vertex 20.5 85.5 4
    endloop
  endfacet
  facet normal 1 0 0
    outer loop
      vertex 20.5 101 3
      vertex 20.5 94 4
      vertex 20.5 94 3
    endloop
  endfacet
  facet normal -1 0 0
    outer loop
      vertex 44.5 85.5 3
      vertex 44.5 109.5 7
      vertex 44.5 109.5 3
    endloop
  endfacet
  facet normal -1 -0 0
    outer loop
      vertex 44.5 109.5 7
      vertex 44.5 85.5 3
      vertex 44.5 85.5 7
    endloop
  endfacet
  facet normal 0 1 0
    outer loop
      vertex 44.5 85.5 7
      vertex 44 85.5 4
      vertex 20.5 85.5 7
    endloop
  endfacet
  facet normal 0 1 -0
    outer loop
      vertex 44.5 85.5 3
      vertex 44 85.5 4
      vertex 44.5 85.5 7
    endloop
  endfacet
  facet normal 0 1 0
    outer loop
      vertex 44 85.5 4
      vertex 44.5 85.5 3
      vertex 44 85.5 3
    endloop
  endfacet
  facet normal 0 1 0
    outer loop
      vertex 20.5 85.5 7
      vertex 44 85.5 4
      vertex 20.5 85.5 4
    endloop
  endfacet
  facet normal 0 -1 0
    outer loop
      vertex 44 109.5 4
      vertex 20.5 109.5 7
      vertex 20.5 109.5 4
    endloop
  endfacet
  facet normal 0 -1 0
    outer loop
      vertex 20.5 109.5 7
      vertex 44 109.5 4
      vertex 44.5 109.5 7
    endloop
  endfacet
  facet normal 0 -1 0
    outer loop
      vertex 44.5 109.5 3
      vertex 44 109.5 4
      vertex 44 109.5 3
    endloop
  endfacet
  facet normal 0 -1 0
    outer loop
      vertex 44 109.5 4
      vertex 44.5 109.5 3
      vertex 44.5 109.5 7
    endloop
  endfacet
  facet normal -0 0 1
    outer loop
      vertex 20.5 94 4
      vertex 44 85.5 4
      vertex 44 94 4
    endloop
  endfacet
  facet normal 0 0 1
    outer loop
      vertex 44 85.5 4
      vertex 20.5 94 4
      vertex 20.5 85.5 4
    endloop
  endfacet
  facet normal 1 -0 0
    outer loop
      vertex 44 85.5 4
      vertex 44 94 3
      vertex 44 94 4
    endloop
  endfacet
  facet normal 1 0 0
    outer loop
      vertex 44 94 3
      vertex 44 85.5 4
      vertex 44 85.5 3
    endloop
  endfacet
  facet normal 0 1 -0
    outer loop
      vertex 44 94 3
      vertex 20.5 94 4
      vertex 44 94 4
    endloop
  endfacet
  facet normal 0 1 0
    outer loop
      vertex 20.5 94 4
      vertex 44 94 3
      vertex 20.5 94 3
    endloop
  endfacet
  facet normal -0 0 1
    outer loop
      vertex 20.5 101 3
      vertex 44 94 3
      vertex 44 101 3
    endloop
  endfacet
  facet normal 0 0 1
    outer loop
      vertex 44 94 3
      vertex 20.5 101 3
      vertex 20.5 94 3
    endloop
  endfacet
  facet normal 0 0 1
    outer loop
      vertex 44 101 3
      vertex 44.5 109.5 3
      vertex 44 109.5 3
    endloop
  endfacet
  facet normal 0 0 1
    outer loop
      vertex 44.5 109.5 3
      vertex 44 101 3
      vertex 44.5 85.5 3
    endloop
  endfacet
  facet normal -0 0 1
    outer loop
      vertex 44 94 3
      vertex 44.5 85.5 3
      vertex 44 101 3
    endloop
  endfacet
  facet normal 0 0 1
    outer loop
      vertex 44.5 85.5 3
      vertex 44 94 3
      vertex 44 85.5 3
    endloop
  endfacet
  facet normal -0 0 1
    outer loop
      vertex 20 85 3
      vertex 45 23 3
      vertex 45 85 3
    endloop
  endfacet
  facet normal 0 0 1
    outer loop
      vertex 45 23 3
      vertex 20 85 3
      vertex 20 23 3
    endloop
  endfacet
  facet normal -0 0 1
    outer loop
      vertex 20.5 109.5 4
      vertex 44 101 4
      vertex 44 109.5 4
    endloop
  endfacet
  facet normal 0 0 1
    outer loop
      vertex 44 101 4
      vertex 20.5 109.5 4
      vertex 20.5 101 4
    endloop
  endfacet
  facet normal 1 -0 0
    outer loop
      vertex 44 101 4
      vertex 44 109.5 3
      vertex 44 109.5 4
    endloop
  endfacet
  facet normal 1 0 0
    outer loop
      vertex 44 109.5 3
      vertex 44 101 4
      vertex 44 101 3
    endloop
  endfacet
  facet normal 0 -1 0
    outer loop
      vertex 20.5 101 3
      vertex 44 101 4
      vertex 20.5 101 4
    endloop
  endfacet
  facet normal 0 -1 -0
    outer loop
      vertex 44 101 4
      vertex 20.5 101 3
      vertex 44 101 3
    endloop
  endfacet
endsolid OpenSCAD_Model
