solid OpenSCAD_Model
  facet normal -0.239316 0.970942 0
    outer loop
      vertex -17 7 0
      vertex -18.8589 6.54182 4
      vertex -17 7 4
    endloop
  endfacet
  facet normal -0.239316 0.970942 0
    outer loop
      vertex -18.8589 6.54182 4
      vertex -17 7 0
      vertex -18.8589 6.54182 0
    endloop
  endfacet
  facet normal -0.992709 -0.120536 0
    outer loop
      vertex -20.7909 2 0
      vertex -20.9708 3.48215 4
      vertex -20.9708 3.48215 0
    endloop
  endfacet
  facet normal -0.992709 -0.120536 0
    outer loop
      vertex -20.9708 3.48215 4
      vertex -20.7909 2 0
      vertex -20.7909 2 4
    endloop
  endfacet
  facet normal -0.663123 0.748511 0
    outer loop
      vertex -18.8589 6.54182 0
      vertex -20.2919 5.27226 4
      vertex -18.8589 6.54182 4
    endloop
  endfacet
  facet normal -0.663123 0.748511 0
    outer loop
      vertex -20.2919 5.27226 4
      vertex -18.8589 6.54182 0
      vertex -20.2919 5.27226 0
    endloop
  endfacet
  facet normal 0.935016 0.354605 0
    outer loop
      vertex -13.0292 3.48215 4
      vertex -13.7081 5.27226 0
      vertex -13.7081 5.27226 4
    endloop
  endfacet
  facet normal 0.935016 0.354605 0
    outer loop
      vertex -13.7081 5.27226 0
      vertex -13.0292 3.48215 4
      vertex -13.0292 3.48215 0
    endloop
  endfacet
  facet normal -0.935016 0.354605 0
    outer loop
      vertex -20.9708 3.48215 0
      vertex -20.2919 5.27226 4
      vertex -20.2919 5.27226 0
    endloop
  endfacet
  facet normal -0.935016 0.354605 0
    outer loop
      vertex -20.2919 5.27226 4
      vertex -20.9708 3.48215 0
      vertex -20.9708 3.48215 4
    endloop
  endfacet
  facet normal 0 0 1
    outer loop
      vertex -73.5734 3.46352 4
      vertex -71.0292 3.48215 4
      vertex -71.7081 5.27226 4
    endloop
  endfacet
  facet normal 0 0 1
    outer loop
      vertex -15.5734 3.46352 4
      vertex -13.0292 3.48215 4
      vertex -13.7081 5.27226 4
    endloop
  endfacet
  facet normal 0 0 1
    outer loop
      vertex 2.22045e-014 100 4
      vertex -2 98 4
      vertex 0 0 4
    endloop
  endfacet
  facet normal 0 0 1
    outer loop
      vertex 2.22045e-014 100 4
      vertex -78 98 4
      vertex -2 98 4
    endloop
  endfacet
  facet normal 0 0 1
    outer loop
      vertex -80 100 4
      vertex -78 92.5309 4
      vertex -78 98 4
    endloop
  endfacet
  facet normal 0 0 1
    outer loop
      vertex -78 92.5309 4
      vertex -80 100 4
      vertex -78 87.5094 4
    endloop
  endfacet
  facet normal 0 0 1
    outer loop
      vertex -80 1.77636e-014 4
      vertex -78 87.5094 4
      vertex -80 100 4
    endloop
  endfacet
  facet normal -0 0 1
    outer loop
      vertex -80 100 4
      vertex -78 98 4
      vertex 2.22045e-014 100 4
    endloop
  endfacet
  facet normal -0 0 1
    outer loop
      vertex -2 2 4
      vertex 0 0 4
      vertex -2 98 4
    endloop
  endfacet
  facet normal -0 0 1
    outer loop
      vertex -13.2091 2 4
      vertex 0 0 4
      vertex -2 2 4
    endloop
  endfacet
  facet normal 0 0 1
    outer loop
      vertex -15.5734 3.46352 4
      vertex -13.7081 5.27226 4
      vertex -15.1411 6.54182 4
    endloop
  endfacet
  facet normal 0 0 1
    outer loop
      vertex -13.0292 3.48215 4
      vertex -15.5734 3.46352 4
      vertex -13.2091 2 4
    endloop
  endfacet
  facet normal 0 0 1
    outer loop
      vertex -16.0489 2 4
      vertex -13.2091 2 4
      vertex -15.5734 3.46352 4
    endloop
  endfacet
  facet normal -0 0 1
    outer loop
      vertex -16.0489 2 4
      vertex 0 0 4
      vertex -13.2091 2 4
    endloop
  endfacet
  facet normal -0 0 1
    outer loop
      vertex -17.9511 2 4
      vertex 0 0 4
      vertex -16.0489 2 4
    endloop
  endfacet
  facet normal -0 0 1
    outer loop
      vertex -20.2919 5.27226 4
      vertex -18.4266 3.46352 4
      vertex -18.8589 6.54182 4
    endloop
  endfacet
  facet normal -0 0 1
    outer loop
      vertex -20.9708 3.48215 4
      vertex -18.4266 3.46352 4
      vertex -20.2919 5.27226 4
    endloop
  endfacet
  facet normal 0 -0 1
    outer loop
      vertex -20.7909 2 4
      vertex -18.4266 3.46352 4
      vertex -20.9708 3.48215 4
    endloop
  endfacet
  facet normal -0 0 1
    outer loop
      vertex -20.7909 2 4
      vertex 0 0 4
      vertex -17.9511 2 4
    endloop
  endfacet
  facet normal 0 0 1
    outer loop
      vertex -80 1.77636e-014 4
      vertex -20.7909 2 4
      vertex -71.2091 2 4
    endloop
  endfacet
  facet normal 0 0 1
    outer loop
      vertex -73.5734 3.46352 4
      vertex -71.7081 5.27226 4
      vertex -73.1411 6.54182 4
    endloop
  endfacet
  facet normal 0 0 1
    outer loop
      vertex -71.0292 3.48215 4
      vertex -73.5734 3.46352 4
      vertex -71.2091 2 4
    endloop
  endfacet
  facet normal 0 0 1
    outer loop
      vertex -74.0489 2 4
      vertex -71.2091 2 4
      vertex -73.5734 3.46352 4
    endloop
  endfacet
  facet normal 0 0 1
    outer loop
      vertex -80 1.77636e-014 4
      vertex -71.2091 2 4
      vertex -74.0489 2 4
    endloop
  endfacet
  facet normal 0 0 1
    outer loop
      vertex -80 1.77636e-014 4
      vertex -74.0489 2 4
      vertex -75.9511 2 4
    endloop
  endfacet
  facet normal -0 0 1
    outer loop
      vertex -78 5.53089 4
      vertex -76.4266 3.46352 4
      vertex -76.8589 6.54182 4
    endloop
  endfacet
  facet normal 0 0 1
    outer loop
      vertex -80 1.77636e-014 4
      vertex -76.4266 3.46352 4
      vertex -78 5.53089 4
    endloop
  endfacet
  facet normal 0 0 1
    outer loop
      vertex -20.7909 2 4
      vertex -80 1.77636e-014 4
      vertex 0 0 4
    endloop
  endfacet
  facet normal 0 0 1
    outer loop
      vertex -76.4266 3.46352 4
      vertex -80 1.77636e-014 4
      vertex -75.9511 2 4
    endloop
  endfacet
  facet normal 0 0 1
    outer loop
      vertex -78 87.5094 4
      vertex -80 1.77636e-014 4
      vertex -78 5.53089 4
    endloop
  endfacet
  facet normal 0 0 1
    outer loop
      vertex -18.4266 3.46352 4
      vertex -20.7909 2 4
      vertex -17.9511 2 4
    endloop
  endfacet
  facet normal 0 0 1
    outer loop
      vertex -17 4.5 4
      vertex -15.1411 6.54182 4
      vertex -17 7 4
    endloop
  endfacet
  facet normal 0 0 1
    outer loop
      vertex -15.1411 6.54182 4
      vertex -17 4.5 4
      vertex -15.5734 3.46352 4
    endloop
  endfacet
  facet normal -0 0 1
    outer loop
      vertex -18.8589 6.54182 4
      vertex -17 4.5 4
      vertex -17 7 4
    endloop
  endfacet
  facet normal 0 0 1
    outer loop
      vertex -17 4.5 4
      vertex -18.8589 6.54182 4
      vertex -18.4266 3.46352 4
    endloop
  endfacet
  facet normal 0 0 1
    outer loop
      vertex -75 4.5 4
      vertex -73.1411 6.54182 4
      vertex -75 7 4
    endloop
  endfacet
  facet normal 0 0 1
    outer loop
      vertex -73.1411 6.54182 4
      vertex -75 4.5 4
      vertex -73.5734 3.46352 4
    endloop
  endfacet
  facet normal -0 0 1
    outer loop
      vertex -76.8589 6.54182 4
      vertex -75 4.5 4
      vertex -75 7 4
    endloop
  endfacet
  facet normal 0 0 1
    outer loop
      vertex -75 4.5 4
      vertex -76.8589 6.54182 4
      vertex -76.4266 3.46352 4
    endloop
  endfacet
  facet normal 0 0 1
    outer loop
      vertex -75 91.5 4
      vertex -73.1411 93.5418 4
      vertex -75 94 4
    endloop
  endfacet
  facet normal 0 0 1
    outer loop
      vertex -73.1411 93.5418 4
      vertex -75 91.5 4
      vertex -73.5734 90.4635 4
    endloop
  endfacet
  facet normal -0 0 1
    outer loop
      vertex -76.8589 93.5418 4
      vertex -75 91.5 4
      vertex -75 94 4
    endloop
  endfacet
  facet normal 0 0 1
    outer loop
      vertex -75 91.5 4
      vertex -76.8589 93.5418 4
      vertex -76.4266 90.4635 4
    endloop
  endfacet
  facet normal 0 0 1
    outer loop
      vertex -73.5734 90.4635 4
      vertex -71.0292 90.4821 4
      vertex -71.7081 92.2723 4
    endloop
  endfacet
  facet normal 0 0 1
    outer loop
      vertex -71.0292 90.4821 4
      vertex -73.5734 90.4635 4
      vertex -71.2599 88.5816 4
    endloop
  endfacet
  facet normal 0 0 1
    outer loop
      vertex -73.5734 90.4635 4
      vertex -71.7081 92.2723 4
      vertex -73.1411 93.5418 4
    endloop
  endfacet
  facet normal -0 0 1
    outer loop
      vertex -74.1183 88.7865 4
      vertex -71.2599 88.5816 4
      vertex -73.5734 90.4635 4
    endloop
  endfacet
  facet normal 0 0 1
    outer loop
      vertex -71.2599 88.5816 4
      vertex -74.1183 88.7865 4
      vertex -72.3475 87.006 4
    endloop
  endfacet
  facet normal 0 0 1
    outer loop
      vertex -72.3475 87.006 4
      vertex -74.1183 88.7865 4
      vertex -74.0427 86.1162 4
    endloop
  endfacet
  facet normal -0 0 1
    outer loop
      vertex -75.8817 88.7865 4
      vertex -74.0427 86.1162 4
      vertex -74.1183 88.7865 4
    endloop
  endfacet
  facet normal 0 0 1
    outer loop
      vertex -75.8817 88.7865 4
      vertex -75.9573 86.1162 4
      vertex -74.0427 86.1162 4
    endloop
  endfacet
  facet normal 0 0 1
    outer loop
      vertex -78 87.5094 4
      vertex -75.8817 88.7865 4
      vertex -76.4266 90.4635 4
    endloop
  endfacet
  facet normal -0 0 1
    outer loop
      vertex -78 92.5309 4
      vertex -76.4266 90.4635 4
      vertex -76.8589 93.5418 4
    endloop
  endfacet
  facet normal 0 0 1
    outer loop
      vertex -75.8817 88.7865 4
      vertex -78 87.5094 4
      vertex -77.6525 87.006 4
    endloop
  endfacet
  facet normal 0 0 1
    outer loop
      vertex -76.4266 90.4635 4
      vertex -78 92.5309 4
      vertex -78 87.5094 4
    endloop
  endfacet
  facet normal 0 0 1
    outer loop
      vertex -75.8817 88.7865 4
      vertex -77.6525 87.006 4
      vertex -75.9573 86.1162 4
    endloop
  endfacet
  facet normal 0.239316 0.970942 -0
    outer loop
      vertex -15.1411 6.54182 0
      vertex -17 7 4
      vertex -15.1411 6.54182 4
    endloop
  endfacet
  facet normal 0.239316 0.970942 0
    outer loop
      vertex -17 7 4
      vertex -15.1411 6.54182 0
      vertex -17 7 0
    endloop
  endfacet
  facet normal 0.663123 0.748511 -0
    outer loop
      vertex -13.7081 5.27226 0
      vertex -15.1411 6.54182 4
      vertex -13.7081 5.27226 4
    endloop
  endfacet
  facet normal 0.663123 0.748511 0
    outer loop
      vertex -15.1411 6.54182 4
      vertex -13.7081 5.27226 0
      vertex -15.1411 6.54182 0
    endloop
  endfacet
  facet normal 0 0 -1
    outer loop
      vertex -73.5734 90.4635 0
      vertex -71.0292 90.4821 0
      vertex -71.2599 88.5816 0
    endloop
  endfacet
  facet normal 0 0 -1
    outer loop
      vertex -15.5734 90.4635 0
      vertex -13.0292 90.4821 0
      vertex -13.2599 88.5816 0
    endloop
  endfacet
  facet normal 0 0 -1
    outer loop
      vertex -78 62.6667 0
      vertex -2 70.6667 0
      vertex -2 62.6667 0
    endloop
  endfacet
  facet normal -0 0 -1
    outer loop
      vertex -2 70.6667 0
      vertex -78 62.6667 0
      vertex -78 70.6667 0
    endloop
  endfacet
  facet normal 0 0 -1
    outer loop
      vertex -78 29.3333 0
      vertex -2 37.3333 0
      vertex -2 29.3333 0
    endloop
  endfacet
  facet normal -0 0 -1
    outer loop
      vertex -2 37.3333 0
      vertex -78 29.3333 0
      vertex -78 37.3333 0
    endloop
  endfacet
  facet normal 0 0 -1
    outer loop
      vertex -2 29.3333 0
      vertex 2 -2 0
      vertex -2 2 0
    endloop
  endfacet
  facet normal 0 0 -1
    outer loop
      vertex 2 -2 0
      vertex -13.2091 2 0
      vertex -2 2 0
    endloop
  endfacet
  facet normal -0 0 -1
    outer loop
      vertex -13.0292 3.48215 0
      vertex -15.5734 3.46352 0
      vertex -13.7081 5.27226 0
    endloop
  endfacet
  facet normal -0 0 -1
    outer loop
      vertex -13.7081 5.27226 0
      vertex -15.5734 3.46352 0
      vertex -15.1411 6.54182 0
    endloop
  endfacet
  facet normal 0 0 -1
    outer loop
      vertex -13.2091 2 0
      vertex -16.0489 2 0
      vertex -15.5734 3.46352 0
    endloop
  endfacet
  facet normal 0 0 -1
    outer loop
      vertex -28 -2 0
      vertex -13.2091 2 0
      vertex 2 -2 0
    endloop
  endfacet
  facet normal -0 0 -1
    outer loop
      vertex -13.2091 2 0
      vertex -28 -2 0
      vertex -16.0489 2 0
    endloop
  endfacet
  facet normal 0 0 -1
    outer loop
      vertex -18.4266 3.46352 0
      vertex -20.2919 5.27226 0
      vertex -18.8589 6.54182 0
    endloop
  endfacet
  facet normal 0 0 -1
    outer loop
      vertex -20.7909 2 0
      vertex -18.4266 3.46352 0
      vertex -17.9511 2 0
    endloop
  endfacet
  facet normal -0 0 -1
    outer loop
      vertex -18.4266 3.46352 0
      vertex -20.7909 2 0
      vertex -20.9708 3.48215 0
    endloop
  endfacet
  facet normal -0 0 -1
    outer loop
      vertex -16.0489 2 0
      vertex -28 -2 0
      vertex -17.9511 2 0
    endloop
  endfacet
  facet normal -0 0 -1
    outer loop
      vertex -17.9511 2 0
      vertex -28 -2 0
      vertex -20.7909 2 0
    endloop
  endfacet
  facet normal 0 0 -1
    outer loop
      vertex -53 -2 0
      vertex -28 -2 0
      vertex -53 -15 0
    endloop
  endfacet
  facet normal 0 0 -1
    outer loop
      vertex -28 -2 0
      vertex -53 -2 0
      vertex -20.7909 2 0
    endloop
  endfacet
  facet normal 0 0 -1
    outer loop
      vertex -53 -2 0
      vertex -71.2091 2 0
      vertex -20.7909 2 0
    endloop
  endfacet
  facet normal -0 0 -1
    outer loop
      vertex -71.0292 3.48215 0
      vertex -73.5734 3.46352 0
      vertex -71.7081 5.27226 0
    endloop
  endfacet
  facet normal -0 0 -1
    outer loop
      vertex -71.7081 5.27226 0
      vertex -73.5734 3.46352 0
      vertex -73.1411 6.54182 0
    endloop
  endfacet
  facet normal 0 0 -1
    outer loop
      vertex -71.2091 2 0
      vertex -74.0489 2 0
      vertex -73.5734 3.46352 0
    endloop
  endfacet
  facet normal 0 0 -1
    outer loop
      vertex -82 -2 0
      vertex -71.2091 2 0
      vertex -53 -2 0
    endloop
  endfacet
  facet normal -0 0 -1
    outer loop
      vertex -71.2091 2 0
      vertex -82 -2 0
      vertex -74.0489 2 0
    endloop
  endfacet
  facet normal 0 0 -1
    outer loop
      vertex -76.4266 3.46352 0
      vertex -78 5.53089 0
      vertex -76.8589 6.54182 0
    endloop
  endfacet
  facet normal 0 0 -1
    outer loop
      vertex -82 -2 0
      vertex -76.4266 3.46352 0
      vertex -75.9511 2 0
    endloop
  endfacet
  facet normal 0 0 -1
    outer loop
      vertex -82 -2 0
      vertex -78 29.3333 0
      vertex -78 5.53089 0
    endloop
  endfacet
  facet normal -0 0 -1
    outer loop
      vertex -78 29.3333 0
      vertex -82 -2 0
      vertex -78 37.3333 0
    endloop
  endfacet
  facet normal -0 0 -1
    outer loop
      vertex -78 37.3333 0
      vertex -82 -2 0
      vertex -78 62.6667 0
    endloop
  endfacet
  facet normal 0 0 -1
    outer loop
      vertex -82 102 0
      vertex -78 62.6667 0
      vertex -82 -2 0
    endloop
  endfacet
  facet normal 0 0 -1
    outer loop
      vertex -78 62.6667 0
      vertex -82 102 0
      vertex -78 70.6667 0
    endloop
  endfacet
  facet normal -0 0 -1
    outer loop
      vertex -76.4266 3.46352 0
      vertex -82 -2 0
      vertex -78 5.53089 0
    endloop
  endfacet
  facet normal -0 0 -1
    outer loop
      vertex -74.0489 2 0
      vertex -82 -2 0
      vertex -75.9511 2 0
    endloop
  endfacet
  facet normal 0 0 -1
    outer loop
      vertex -2 37.3333 0
      vertex 2 -2 0
      vertex -2 29.3333 0
    endloop
  endfacet
  facet normal 0 0 -1
    outer loop
      vertex 2 -2 0
      vertex -2 37.3333 0
      vertex 2 102 0
    endloop
  endfacet
  facet normal 0 0 -1
    outer loop
      vertex -2 62.6667 0
      vertex 2 102 0
      vertex -2 37.3333 0
    endloop
  endfacet
  facet normal 0 0 -1
    outer loop
      vertex -2 70.6667 0
      vertex 2 102 0
      vertex -2 62.6667 0
    endloop
  endfacet
  facet normal 0 0 -1
    outer loop
      vertex -2 91 0
      vertex 2 102 0
      vertex -2 70.6667 0
    endloop
  endfacet
  facet normal 0 0 -1
    outer loop
      vertex -13.2256 91 0
      vertex 2 102 0
      vertex -2 91 0
    endloop
  endfacet
  facet normal 0 0 -1
    outer loop
      vertex -16.1183 88.7865 0
      vertex -13.2599 88.5816 0
      vertex -14.3475 87.006 0
    endloop
  endfacet
  facet normal -0 0 -1
    outer loop
      vertex -13.0292 90.4821 0
      vertex -15.5734 90.4635 0
      vertex -13.2256 91 0
    endloop
  endfacet
  facet normal 0 0 -1
    outer loop
      vertex -16.3118 91 0
      vertex -13.2256 91 0
      vertex -15.5734 90.4635 0
    endloop
  endfacet
  facet normal 0 0 -1
    outer loop
      vertex -13.2256 91 0
      vertex -16.3118 91 0
      vertex 2 102 0
    endloop
  endfacet
  facet normal 0 0 -1
    outer loop
      vertex -17.6882 91 0
      vertex 2 102 0
      vertex -16.3118 91 0
    endloop
  endfacet
  facet normal -0 0 -1
    outer loop
      vertex -17.8817 88.7865 0
      vertex -20.7401 88.5816 0
      vertex -18.4266 90.4635 0
    endloop
  endfacet
  facet normal 0 0 -1
    outer loop
      vertex -20.9708 90.4821 0
      vertex -18.4266 90.4635 0
      vertex -20.7401 88.5816 0
    endloop
  endfacet
  facet normal 0 0 -1
    outer loop
      vertex -20.7744 91 0
      vertex -17.6882 91 0
      vertex -18.4266 90.4635 0
    endloop
  endfacet
  facet normal 0 0 -1
    outer loop
      vertex -20.7744 91 0
      vertex 2 102 0
      vertex -17.6882 91 0
    endloop
  endfacet
  facet normal 0 0 -1
    outer loop
      vertex -82 102 0
      vertex -20.7744 91 0
      vertex -71.2256 91 0
    endloop
  endfacet
  facet normal 0 0 -1
    outer loop
      vertex -74.1183 88.7865 0
      vertex -71.2599 88.5816 0
      vertex -72.3475 87.006 0
    endloop
  endfacet
  facet normal -0 0 -1
    outer loop
      vertex -71.0292 90.4821 0
      vertex -73.5734 90.4635 0
      vertex -71.2256 91 0
    endloop
  endfacet
  facet normal 0 0 -1
    outer loop
      vertex -74.3118 91 0
      vertex -71.2256 91 0
      vertex -73.5734 90.4635 0
    endloop
  endfacet
  facet normal 0 0 -1
    outer loop
      vertex -82 102 0
      vertex -71.2256 91 0
      vertex -74.3118 91 0
    endloop
  endfacet
  facet normal 0 0 -1
    outer loop
      vertex -82 102 0
      vertex -74.3118 91 0
      vertex -75.6882 91 0
    endloop
  endfacet
  facet normal -0 0 -1
    outer loop
      vertex -75.8817 88.7865 0
      vertex -78 87.5094 0
      vertex -76.4266 90.4635 0
    endloop
  endfacet
  facet normal 0 0 -1
    outer loop
      vertex -20.7744 91 0
      vertex -82 102 0
      vertex 2 102 0
    endloop
  endfacet
  facet normal 0 0 -1
    outer loop
      vertex -76.4266 90.4635 0
      vertex -82 102 0
      vertex -75.6882 91 0
    endloop
  endfacet
  facet normal 0 0 -1
    outer loop
      vertex -78 87.5094 0
      vertex -82 102 0
      vertex -76.4266 90.4635 0
    endloop
  endfacet
  facet normal 0 0 -1
    outer loop
      vertex -78 70.6667 0
      vertex -82 102 0
      vertex -78 87.5094 0
    endloop
  endfacet
  facet normal 0 0 -1
    outer loop
      vertex -15.5734 3.46352 0
      vertex -13.0292 3.48215 0
      vertex -13.2091 2 0
    endloop
  endfacet
  facet normal 0 0 -1
    outer loop
      vertex -18.4266 90.4635 0
      vertex -20.9708 90.4821 0
      vertex -20.7744 91 0
    endloop
  endfacet
  facet normal 0 0 -1
    outer loop
      vertex -18.4266 3.46352 0
      vertex -20.9708 3.48215 0
      vertex -20.2919 5.27226 0
    endloop
  endfacet
  facet normal 0 0 -1
    outer loop
      vertex -28 -15 0
      vertex -53 -15 0
      vertex -28 -2 0
    endloop
  endfacet
  facet normal 0 0 -1
    outer loop
      vertex -73.5734 3.46352 0
      vertex -71.0292 3.48215 0
      vertex -71.2091 2 0
    endloop
  endfacet
  facet normal 0 0 -1
    outer loop
      vertex -16.1183 88.7865 0
      vertex -14.3475 87.006 0
      vertex -16.0427 86.1162 0
    endloop
  endfacet
  facet normal 0 0 -1
    outer loop
      vertex -13.2599 88.5816 0
      vertex -16.1183 88.7865 0
      vertex -15.5734 90.4635 0
    endloop
  endfacet
  facet normal 0 0 -1
    outer loop
      vertex -16.0427 86.1162 0
      vertex -17.8817 88.7865 0
      vertex -16.1183 88.7865 0
    endloop
  endfacet
  facet normal 0 0 -1
    outer loop
      vertex -17.9573 86.1162 0
      vertex -17.8817 88.7865 0
      vertex -16.0427 86.1162 0
    endloop
  endfacet
  facet normal 0 0 -1
    outer loop
      vertex -19.6525 87.006 0
      vertex -17.8817 88.7865 0
      vertex -17.9573 86.1162 0
    endloop
  endfacet
  facet normal 0 0 -1
    outer loop
      vertex -20.7401 88.5816 0
      vertex -17.8817 88.7865 0
      vertex -19.6525 87.006 0
    endloop
  endfacet
  facet normal 0 0 -1
    outer loop
      vertex -17 4.5 0
      vertex -15.1411 6.54182 0
      vertex -15.5734 3.46352 0
    endloop
  endfacet
  facet normal 0 0 -1
    outer loop
      vertex -17 4.5 0
      vertex -17 7 0
      vertex -15.1411 6.54182 0
    endloop
  endfacet
  facet normal 0 0 -1
    outer loop
      vertex -18.8589 6.54182 0
      vertex -17 4.5 0
      vertex -18.4266 3.46352 0
    endloop
  endfacet
  facet normal 0 0 -1
    outer loop
      vertex -17 4.5 0
      vertex -18.8589 6.54182 0
      vertex -17 7 0
    endloop
  endfacet
  facet normal 0 0 -1
    outer loop
      vertex -74.1183 88.7865 0
      vertex -72.3475 87.006 0
      vertex -74.0427 86.1162 0
    endloop
  endfacet
  facet normal 0 0 -1
    outer loop
      vertex -71.2599 88.5816 0
      vertex -74.1183 88.7865 0
      vertex -73.5734 90.4635 0
    endloop
  endfacet
  facet normal 0 0 -1
    outer loop
      vertex -74.0427 86.1162 0
      vertex -75.8817 88.7865 0
      vertex -74.1183 88.7865 0
    endloop
  endfacet
  facet normal 0 0 -1
    outer loop
      vertex -75.9573 86.1162 0
      vertex -75.8817 88.7865 0
      vertex -74.0427 86.1162 0
    endloop
  endfacet
  facet normal 0 0 -1
    outer loop
      vertex -77.6525 87.006 0
      vertex -75.8817 88.7865 0
      vertex -75.9573 86.1162 0
    endloop
  endfacet
  facet normal 0 0 -1
    outer loop
      vertex -78 87.5094 0
      vertex -75.8817 88.7865 0
      vertex -77.6525 87.006 0
    endloop
  endfacet
  facet normal 0 0 -1
    outer loop
      vertex -75 4.5 0
      vertex -73.1411 6.54182 0
      vertex -73.5734 3.46352 0
    endloop
  endfacet
  facet normal 0 0 -1
    outer loop
      vertex -75 4.5 0
      vertex -75 7 0
      vertex -73.1411 6.54182 0
    endloop
  endfacet
  facet normal 0 0 -1
    outer loop
      vertex -76.8589 6.54182 0
      vertex -75 4.5 0
      vertex -76.4266 3.46352 0
    endloop
  endfacet
  facet normal 0 0 -1
    outer loop
      vertex -75 4.5 0
      vertex -76.8589 6.54182 0
      vertex -75 7 0
    endloop
  endfacet
  facet normal 0.992709 -0.120537 0
    outer loop
      vertex -13.2091 2 4
      vertex -13.0292 3.48215 0
      vertex -13.0292 3.48215 4
    endloop
  endfacet
  facet normal 0.992709 -0.120537 0
    outer loop
      vertex -13.0292 3.48215 0
      vertex -13.2091 2 4
      vertex -13.2091 2 0
    endloop
  endfacet
  facet normal 0.587786 -0.809017 0
    outer loop
      vertex -18.4266 3.46352 0
      vertex -17 4.5 4
      vertex -18.4266 3.46352 4
    endloop
  endfacet
  facet normal 0.587786 -0.809017 0
    outer loop
      vertex -17 4.5 4
      vertex -18.4266 3.46352 0
      vertex -17 4.5 0
    endloop
  endfacet
  facet normal 0.951056 0.309017 0
    outer loop
      vertex -17.9511 2 4
      vertex -18.4266 3.46352 0
      vertex -18.4266 3.46352 4
    endloop
  endfacet
  facet normal 0.951056 0.309017 0
    outer loop
      vertex -18.4266 3.46352 0
      vertex -17.9511 2 4
      vertex -17.9511 2 0
    endloop
  endfacet
  facet normal -0.951056 0.309017 0
    outer loop
      vertex -16.0489 2 0
      vertex -15.5734 3.46352 4
      vertex -15.5734 3.46352 0
    endloop
  endfacet
  facet normal -0.951056 0.309017 0
    outer loop
      vertex -15.5734 3.46352 4
      vertex -16.0489 2 0
      vertex -16.0489 2 4
    endloop
  endfacet
  facet normal -0.587786 -0.809017 0
    outer loop
      vertex -17 4.5 0
      vertex -15.5734 3.46352 4
      vertex -17 4.5 4
    endloop
  endfacet
  facet normal -0.587786 -0.809017 -0
    outer loop
      vertex -15.5734 3.46352 4
      vertex -17 4.5 0
      vertex -15.5734 3.46352 0
    endloop
  endfacet
  facet normal -0.239316 0.970942 0
    outer loop
      vertex -75 7 0
      vertex -76.8589 6.54182 4
      vertex -75 7 4
    endloop
  endfacet
  facet normal -0.239316 0.970942 0
    outer loop
      vertex -76.8589 6.54182 4
      vertex -75 7 0
      vertex -76.8589 6.54182 0
    endloop
  endfacet
  facet normal -0.663123 0.74851 0
    outer loop
      vertex -76.8589 6.54182 0
      vertex -78 5.53089 4
      vertex -76.8589 6.54182 4
    endloop
  endfacet
  facet normal -0.663123 0.74851 0
    outer loop
      vertex -78 5.53089 4
      vertex -76.8589 6.54182 0
      vertex -78 5.53089 0
    endloop
  endfacet
  facet normal 0.935017 0.354602 0
    outer loop
      vertex -71.0292 3.48215 4
      vertex -71.7081 5.27226 0
      vertex -71.7081 5.27226 4
    endloop
  endfacet
  facet normal 0.935017 0.354602 0
    outer loop
      vertex -71.7081 5.27226 0
      vertex -71.0292 3.48215 4
      vertex -71.0292 3.48215 0
    endloop
  endfacet
  facet normal 0.239316 0.970942 -0
    outer loop
      vertex -73.1411 6.54182 0
      vertex -75 7 4
      vertex -73.1411 6.54182 4
    endloop
  endfacet
  facet normal 0.239316 0.970942 0
    outer loop
      vertex -75 7 4
      vertex -73.1411 6.54182 0
      vertex -75 7 0
    endloop
  endfacet
  facet normal 0.663122 0.748511 -0
    outer loop
      vertex -71.7081 5.27226 0
      vertex -73.1411 6.54182 4
      vertex -71.7081 5.27226 4
    endloop
  endfacet
  facet normal 0.663122 0.748511 0
    outer loop
      vertex -73.1411 6.54182 4
      vertex -71.7081 5.27226 0
      vertex -73.1411 6.54182 0
    endloop
  endfacet
  facet normal 0.992709 -0.120535 0
    outer loop
      vertex -71.2091 2 4
      vertex -71.0292 3.48215 0
      vertex -71.0292 3.48215 4
    endloop
  endfacet
  facet normal 0.992709 -0.120535 0
    outer loop
      vertex -71.0292 3.48215 0
      vertex -71.2091 2 4
      vertex -71.2091 2 0
    endloop
  endfacet
  facet normal 0.587786 -0.809016 0
    outer loop
      vertex -76.4266 3.46352 0
      vertex -75 4.5 4
      vertex -76.4266 3.46352 4
    endloop
  endfacet
  facet normal 0.587786 -0.809016 0
    outer loop
      vertex -75 4.5 4
      vertex -76.4266 3.46352 0
      vertex -75 4.5 0
    endloop
  endfacet
  facet normal 0.951057 0.309015 0
    outer loop
      vertex -75.9511 2 4
      vertex -76.4266 3.46352 0
      vertex -76.4266 3.46352 4
    endloop
  endfacet
  facet normal 0.951057 0.309015 0
    outer loop
      vertex -76.4266 3.46352 0
      vertex -75.9511 2 4
      vertex -75.9511 2 0
    endloop
  endfacet
  facet normal -0.951057 0.309015 0
    outer loop
      vertex -74.0489 2 0
      vertex -73.5734 3.46352 4
      vertex -73.5734 3.46352 0
    endloop
  endfacet
  facet normal -0.951057 0.309015 0
    outer loop
      vertex -73.5734 3.46352 4
      vertex -74.0489 2 0
      vertex -74.0489 2 4
    endloop
  endfacet
  facet normal -0.587786 -0.809016 0
    outer loop
      vertex -75 4.5 0
      vertex -73.5734 3.46352 4
      vertex -75 4.5 4
    endloop
  endfacet
  facet normal -0.587786 -0.809016 -0
    outer loop
      vertex -73.5734 3.46352 4
      vertex -75 4.5 0
      vertex -73.5734 3.46352 0
    endloop
  endfacet
  facet normal -0.239316 0.970942 0
    outer loop
      vertex -17 94 2
      vertex -18.8589 93.5418 4
      vertex -17 94 4
    endloop
  endfacet
  facet normal -0.239316 0.970942 0
    outer loop
      vertex -18.8589 93.5418 4
      vertex -17 94 2
      vertex -18.8589 93.5418 2
    endloop
  endfacet
  facet normal 0 -1 0
    outer loop
      vertex -17.9573 86.1162 0
      vertex -16.0427 86.1162 4
      vertex -17.9573 86.1162 4
    endloop
  endfacet
  facet normal 0 -1 -0
    outer loop
      vertex -16.0427 86.1162 4
      vertex -17.9573 86.1162 0
      vertex -16.0427 86.1162 0
    endloop
  endfacet
  facet normal -0.992709 -0.120536 0
    outer loop
      vertex -20.7401 88.5816 0
      vertex -20.9708 90.4821 4
      vertex -20.9708 90.4821 0
    endloop
  endfacet
  facet normal -0.992709 -0.120536 0
    outer loop
      vertex -20.9708 90.4821 4
      vertex -20.7401 88.5816 0
      vertex -20.7401 88.5816 4
    endloop
  endfacet
  facet normal -0.663122 0.748512 0
    outer loop
      vertex -18.8589 93.5418 2
      vertex -20.2919 92.2723 4
      vertex -18.8589 93.5418 4
    endloop
  endfacet
  facet normal -0.663122 0.748512 0
    outer loop
      vertex -20.2919 92.2723 4
      vertex -18.8589 93.5418 2
      vertex -20.2919 92.2723 2
    endloop
  endfacet
  facet normal -0.822984 -0.568065 0
    outer loop
      vertex -19.6525 87.006 0
      vertex -20.7401 88.5816 4
      vertex -20.7401 88.5816 0
    endloop
  endfacet
  facet normal -0.822984 -0.568065 0
    outer loop
      vertex -20.7401 88.5816 4
      vertex -19.6525 87.006 0
      vertex -19.6525 87.006 4
    endloop
  endfacet
  facet normal 0.935017 0.354604 0
    outer loop
      vertex -13.7081 92.2723 4
      vertex -13.2256 91 2
      vertex -13.7081 92.2723 2
    endloop
  endfacet
  facet normal 0.935016 0.354604 -2.96993e-007
    outer loop
      vertex -13.0292 90.4821 4
      vertex -13.2256 91 2
      vertex -13.7081 92.2723 4
    endloop
  endfacet
  facet normal 0.935016 0.354605 -0
    outer loop
      vertex -13.0292 90.4821 0
      vertex -13.2256 91 2
      vertex -13.0292 90.4821 4
    endloop
  endfacet
  facet normal 0.935016 0.354605 0
    outer loop
      vertex -13.2256 91 2
      vertex -13.0292 90.4821 0
      vertex -13.2256 91 0
    endloop
  endfacet
  facet normal -0.935016 0.354605 0
    outer loop
      vertex -20.7744 91 0
      vertex -20.9708 90.4821 0
      vertex -20.7744 91 2
    endloop
  endfacet
  facet normal -0.935017 0.354604 0
    outer loop
      vertex -20.7744 91 2
      vertex -20.2919 92.2723 4
      vertex -20.2919 92.2723 2
    endloop
  endfacet
  facet normal -0.935016 0.354604 -2.96993e-007
    outer loop
      vertex -20.7744 91 2
      vertex -20.9708 90.4821 4
      vertex -20.2919 92.2723 4
    endloop
  endfacet
  facet normal -0.935016 0.354605 0
    outer loop
      vertex -20.9708 90.4821 4
      vertex -20.7744 91 2
      vertex -20.9708 90.4821 0
    endloop
  endfacet
  facet normal -0.464723 -0.885456 0
    outer loop
      vertex -19.6525 87.006 0
      vertex -17.9573 86.1162 4
      vertex -19.6525 87.006 4
    endloop
  endfacet
  facet normal -0.464723 -0.885456 -0
    outer loop
      vertex -17.9573 86.1162 4
      vertex -19.6525 87.006 0
      vertex -17.9573 86.1162 0
    endloop
  endfacet
  facet normal 0 0 1
    outer loop
      vertex -17 91.5 4
      vertex -15.1411 93.5418 4
      vertex -17 94 4
    endloop
  endfacet
  facet normal 0 0 1
    outer loop
      vertex -15.1411 93.5418 4
      vertex -17 91.5 4
      vertex -15.5734 90.4635 4
    endloop
  endfacet
  facet normal -0 0 1
    outer loop
      vertex -18.8589 93.5418 4
      vertex -17 91.5 4
      vertex -17 94 4
    endloop
  endfacet
  facet normal 0 0 1
    outer loop
      vertex -17 91.5 4
      vertex -18.8589 93.5418 4
      vertex -18.4266 90.4635 4
    endloop
  endfacet
  facet normal 0 0 1
    outer loop
      vertex -15.5734 90.4635 4
      vertex -13.0292 90.4821 4
      vertex -13.7081 92.2723 4
    endloop
  endfacet
  facet normal 0 0 1
    outer loop
      vertex -13.0292 90.4821 4
      vertex -15.5734 90.4635 4
      vertex -13.2599 88.5816 4
    endloop
  endfacet
  facet normal 0 0 1
    outer loop
      vertex -15.5734 90.4635 4
      vertex -13.7081 92.2723 4
      vertex -15.1411 93.5418 4
    endloop
  endfacet
  facet normal -0 0 1
    outer loop
      vertex -16.1183 88.7865 4
      vertex -13.2599 88.5816 4
      vertex -15.5734 90.4635 4
    endloop
  endfacet
  facet normal 0 0 1
    outer loop
      vertex -13.2599 88.5816 4
      vertex -16.1183 88.7865 4
      vertex -14.3475 87.006 4
    endloop
  endfacet
  facet normal 0 0 1
    outer loop
      vertex -14.3475 87.006 4
      vertex -16.1183 88.7865 4
      vertex -16.0427 86.1162 4
    endloop
  endfacet
  facet normal -0 0 1
    outer loop
      vertex -17.8817 88.7865 4
      vertex -16.0427 86.1162 4
      vertex -16.1183 88.7865 4
    endloop
  endfacet
  facet normal 0 0 1
    outer loop
      vertex -17.8817 88.7865 4
      vertex -17.9573 86.1162 4
      vertex -16.0427 86.1162 4
    endloop
  endfacet
  facet normal 0 0 1
    outer loop
      vertex -20.7401 88.5816 4
      vertex -17.8817 88.7865 4
      vertex -18.4266 90.4635 4
    endloop
  endfacet
  facet normal -0 0 1
    outer loop
      vertex -20.2919 92.2723 4
      vertex -18.4266 90.4635 4
      vertex -18.8589 93.5418 4
    endloop
  endfacet
  facet normal 0 0 1
    outer loop
      vertex -17.8817 88.7865 4
      vertex -19.6525 87.006 4
      vertex -17.9573 86.1162 4
    endloop
  endfacet
  facet normal -0 0 1
    outer loop
      vertex -20.9708 90.4821 4
      vertex -18.4266 90.4635 4
      vertex -20.2919 92.2723 4
    endloop
  endfacet
  facet normal 0 0 1
    outer loop
      vertex -17.8817 88.7865 4
      vertex -20.7401 88.5816 4
      vertex -19.6525 87.006 4
    endloop
  endfacet
  facet normal 0 0 1
    outer loop
      vertex -18.4266 90.4635 4
      vertex -20.9708 90.4821 4
      vertex -20.7401 88.5816 4
    endloop
  endfacet
  facet normal 0.239316 0.970942 -0
    outer loop
      vertex -15.1411 93.5418 2
      vertex -17 94 4
      vertex -15.1411 93.5418 4
    endloop
  endfacet
  facet normal 0.239316 0.970942 0
    outer loop
      vertex -17 94 4
      vertex -15.1411 93.5418 2
      vertex -17 94 2
    endloop
  endfacet
  facet normal 0.663122 0.748512 -0
    outer loop
      vertex -13.7081 92.2723 2
      vertex -15.1411 93.5418 4
      vertex -13.7081 92.2723 4
    endloop
  endfacet
  facet normal 0.663122 0.748512 0
    outer loop
      vertex -15.1411 93.5418 4
      vertex -13.7081 92.2723 2
      vertex -15.1411 93.5418 2
    endloop
  endfacet
  facet normal 0.992709 -0.120536 0
    outer loop
      vertex -13.2599 88.5816 4
      vertex -13.0292 90.4821 0
      vertex -13.0292 90.4821 4
    endloop
  endfacet
  facet normal 0.992709 -0.120536 0
    outer loop
      vertex -13.0292 90.4821 0
      vertex -13.2599 88.5816 4
      vertex -13.2599 88.5816 0
    endloop
  endfacet
  facet normal 0.822984 -0.568065 0
    outer loop
      vertex -14.3475 87.006 4
      vertex -13.2599 88.5816 0
      vertex -13.2599 88.5816 4
    endloop
  endfacet
  facet normal 0.822984 -0.568065 0
    outer loop
      vertex -13.2599 88.5816 0
      vertex -14.3475 87.006 4
      vertex -14.3475 87.006 0
    endloop
  endfacet
  facet normal 0.464723 -0.885456 0
    outer loop
      vertex -16.0427 86.1162 0
      vertex -14.3475 87.006 4
      vertex -16.0427 86.1162 4
    endloop
  endfacet
  facet normal 0.464723 -0.885456 0
    outer loop
      vertex -14.3475 87.006 4
      vertex -16.0427 86.1162 0
      vertex -14.3475 87.006 0
    endloop
  endfacet
  facet normal 0.587786 -0.809016 -2.45732e-007
    outer loop
      vertex -18.4266 90.4635 4
      vertex -17.6882 91 2
      vertex -17 91.5 4
    endloop
  endfacet
  facet normal 0.587786 -0.809016 0
    outer loop
      vertex -18.4266 90.4635 0
      vertex -17.6882 91 2
      vertex -18.4266 90.4635 4
    endloop
  endfacet
  facet normal 0.587786 -0.809016 0
    outer loop
      vertex -17.6882 91 2
      vertex -18.4266 90.4635 0
      vertex -17.6882 91 0
    endloop
  endfacet
  facet normal 0.587786 -0.809017 0
    outer loop
      vertex -17 91.5 4
      vertex -17.6882 91 2
      vertex -17 91.5 2
    endloop
  endfacet
  facet normal 0 1 -0
    outer loop
      vertex -16.1183 88.7865 0
      vertex -17.8817 88.7865 4
      vertex -16.1183 88.7865 4
    endloop
  endfacet
  facet normal 0 1 0
    outer loop
      vertex -17.8817 88.7865 4
      vertex -16.1183 88.7865 0
      vertex -17.8817 88.7865 0
    endloop
  endfacet
  facet normal 0.951056 0.309017 0
    outer loop
      vertex -17.8817 88.7865 4
      vertex -18.4266 90.4635 0
      vertex -18.4266 90.4635 4
    endloop
  endfacet
  facet normal 0.951056 0.309017 0
    outer loop
      vertex -18.4266 90.4635 0
      vertex -17.8817 88.7865 4
      vertex -17.8817 88.7865 0
    endloop
  endfacet
  facet normal -0.951056 0.309017 0
    outer loop
      vertex -16.1183 88.7865 0
      vertex -15.5734 90.4635 4
      vertex -15.5734 90.4635 0
    endloop
  endfacet
  facet normal -0.951056 0.309017 0
    outer loop
      vertex -15.5734 90.4635 4
      vertex -16.1183 88.7865 0
      vertex -16.1183 88.7865 4
    endloop
  endfacet
  facet normal -0.587786 -0.809017 0
    outer loop
      vertex -16.3118 91 2
      vertex -17 91.5 4
      vertex -17 91.5 2
    endloop
  endfacet
  facet normal -0.587786 -0.809016 -2.45732e-007
    outer loop
      vertex -17 91.5 4
      vertex -16.3118 91 2
      vertex -15.5734 90.4635 4
    endloop
  endfacet
  facet normal -0.587786 -0.809016 0
    outer loop
      vertex -15.5734 90.4635 0
      vertex -16.3118 91 2
      vertex -16.3118 91 0
    endloop
  endfacet
  facet normal -0.587786 -0.809016 0
    outer loop
      vertex -16.3118 91 2
      vertex -15.5734 90.4635 0
      vertex -15.5734 90.4635 4
    endloop
  endfacet
  facet normal -0.239315 0.970942 0
    outer loop
      vertex -75 94 2
      vertex -76.8589 93.5418 4
      vertex -75 94 4
    endloop
  endfacet
  facet normal -0.239315 0.970942 0
    outer loop
      vertex -76.8589 93.5418 4
      vertex -75 94 2
      vertex -76.8589 93.5418 2
    endloop
  endfacet
  facet normal 0 -1 0
    outer loop
      vertex -75.9573 86.1162 0
      vertex -74.0427 86.1162 4
      vertex -75.9573 86.1162 4
    endloop
  endfacet
  facet normal 0 -1 -0
    outer loop
      vertex -74.0427 86.1162 4
      vertex -75.9573 86.1162 0
      vertex -74.0427 86.1162 0
    endloop
  endfacet
  facet normal -0.663123 0.74851 0
    outer loop
      vertex -76.8589 93.5418 2
      vertex -78 92.5309 4
      vertex -76.8589 93.5418 4
    endloop
  endfacet
  facet normal -0.663123 0.74851 0
    outer loop
      vertex -78 92.5309 4
      vertex -76.8589 93.5418 2
      vertex -78 92.5309 2
    endloop
  endfacet
  facet normal -0.822983 -0.568065 0
    outer loop
      vertex -77.6525 87.006 0
      vertex -78 87.5094 4
      vertex -78 87.5094 0
    endloop
  endfacet
  facet normal -0.822983 -0.568065 0
    outer loop
      vertex -78 87.5094 4
      vertex -77.6525 87.006 0
      vertex -77.6525 87.006 4
    endloop
  endfacet
  facet normal 0.935018 0.3546 0
    outer loop
      vertex -71.7081 92.2723 4
      vertex -71.2256 91 2
      vertex -71.7081 92.2723 2
    endloop
  endfacet
  facet normal 0.935017 0.354602 -1.07086e-006
    outer loop
      vertex -71.0292 90.4821 4
      vertex -71.2256 91 2
      vertex -71.7081 92.2723 4
    endloop
  endfacet
  facet normal 0.935016 0.354605 -0
    outer loop
      vertex -71.0292 90.4821 0
      vertex -71.2256 91 2
      vertex -71.0292 90.4821 4
    endloop
  endfacet
  facet normal 0.935016 0.354605 0
    outer loop
      vertex -71.2256 91 2
      vertex -71.0292 90.4821 0
      vertex -71.2256 91 0
    endloop
  endfacet
  facet normal -0.464723 -0.885456 0
    outer loop
      vertex -77.6525 87.006 0
      vertex -75.9573 86.1162 4
      vertex -77.6525 87.006 4
    endloop
  endfacet
  facet normal -0.464723 -0.885456 -0
    outer loop
      vertex -75.9573 86.1162 4
      vertex -77.6525 87.006 0
      vertex -75.9573 86.1162 0
    endloop
  endfacet
  facet normal 0.239315 0.970942 -0
    outer loop
      vertex -73.1411 93.5418 2
      vertex -75 94 4
      vertex -73.1411 93.5418 4
    endloop
  endfacet
  facet normal 0.239315 0.970942 0
    outer loop
      vertex -75 94 4
      vertex -73.1411 93.5418 2
      vertex -75 94 2
    endloop
  endfacet
  facet normal 0.663121 0.748512 -0
    outer loop
      vertex -71.7081 92.2723 2
      vertex -73.1411 93.5418 4
      vertex -71.7081 92.2723 4
    endloop
  endfacet
  facet normal 0.663121 0.748512 0
    outer loop
      vertex -73.1411 93.5418 4
      vertex -71.7081 92.2723 2
      vertex -73.1411 93.5418 2
    endloop
  endfacet
  facet normal 0.992709 -0.120535 0
    outer loop
      vertex -71.2599 88.5816 4
      vertex -71.0292 90.4821 0
      vertex -71.0292 90.4821 4
    endloop
  endfacet
  facet normal 0.992709 -0.120535 0
    outer loop
      vertex -71.0292 90.4821 0
      vertex -71.2599 88.5816 4
      vertex -71.2599 88.5816 0
    endloop
  endfacet
  facet normal 0.822983 -0.568066 0
    outer loop
      vertex -72.3475 87.006 4
      vertex -71.2599 88.5816 0
      vertex -71.2599 88.5816 4
    endloop
  endfacet
  facet normal 0.822983 -0.568066 0
    outer loop
      vertex -71.2599 88.5816 0
      vertex -72.3475 87.006 4
      vertex -72.3475 87.006 0
    endloop
  endfacet
  facet normal 0.464723 -0.885456 0
    outer loop
      vertex -74.0427 86.1162 0
      vertex -72.3475 87.006 4
      vertex -74.0427 86.1162 4
    endloop
  endfacet
  facet normal 0.464723 -0.885456 0
    outer loop
      vertex -72.3475 87.006 4
      vertex -74.0427 86.1162 0
      vertex -72.3475 87.006 0
    endloop
  endfacet
  facet normal 0.587787 -0.809016 6.04967e-007
    outer loop
      vertex -76.4266 90.4635 4
      vertex -75.6882 91 2
      vertex -75 91.5 4
    endloop
  endfacet
  facet normal 0.587785 -0.809017 0
    outer loop
      vertex -76.4266 90.4635 0
      vertex -75.6882 91 2
      vertex -76.4266 90.4635 4
    endloop
  endfacet
  facet normal 0.587785 -0.809017 0
    outer loop
      vertex -75.6882 91 2
      vertex -76.4266 90.4635 0
      vertex -75.6882 91 0
    endloop
  endfacet
  facet normal 0.587788 -0.809015 0
    outer loop
      vertex -75 91.5 4
      vertex -75.6882 91 2
      vertex -75 91.5 2
    endloop
  endfacet
  facet normal 0 1 -0
    outer loop
      vertex -74.1183 88.7865 0
      vertex -75.8817 88.7865 4
      vertex -74.1183 88.7865 4
    endloop
  endfacet
  facet normal 0 1 0
    outer loop
      vertex -75.8817 88.7865 4
      vertex -74.1183 88.7865 0
      vertex -75.8817 88.7865 0
    endloop
  endfacet
  facet normal 0.951056 0.309017 0
    outer loop
      vertex -75.8817 88.7865 4
      vertex -76.4266 90.4635 0
      vertex -76.4266 90.4635 4
    endloop
  endfacet
  facet normal 0.951056 0.309017 0
    outer loop
      vertex -76.4266 90.4635 0
      vertex -75.8817 88.7865 4
      vertex -75.8817 88.7865 0
    endloop
  endfacet
  facet normal -0.951056 0.309017 0
    outer loop
      vertex -74.1183 88.7865 0
      vertex -73.5734 90.4635 4
      vertex -73.5734 90.4635 0
    endloop
  endfacet
  facet normal -0.951056 0.309017 0
    outer loop
      vertex -73.5734 90.4635 4
      vertex -74.1183 88.7865 0
      vertex -74.1183 88.7865 4
    endloop
  endfacet
  facet normal -0.587788 -0.809015 0
    outer loop
      vertex -74.3118 91 2
      vertex -75 91.5 4
      vertex -75 91.5 2
    endloop
  endfacet
  facet normal -0.587787 -0.809016 6.04967e-007
    outer loop
      vertex -75 91.5 4
      vertex -74.3118 91 2
      vertex -73.5734 90.4635 4
    endloop
  endfacet
  facet normal -0.587785 -0.809017 0
    outer loop
      vertex -73.5734 90.4635 0
      vertex -74.3118 91 2
      vertex -74.3118 91 0
    endloop
  endfacet
  facet normal -0.587785 -0.809017 0
    outer loop
      vertex -74.3118 91 2
      vertex -73.5734 90.4635 0
      vertex -73.5734 90.4635 4
    endloop
  endfacet
  facet normal 0 -1 0
    outer loop
      vertex -53 -15 0
      vertex -28 -15 35
      vertex -53 -15 35
    endloop
  endfacet
  facet normal 0 -1 -0
    outer loop
      vertex -28 -15 35
      vertex -53 -15 0
      vertex -28 -15 0
    endloop
  endfacet
  facet normal -0 0 1
    outer loop
      vertex -53 -2 3
      vertex -28 -11 3
      vertex -28 -2 3
    endloop
  endfacet
  facet normal 0 0 1
    outer loop
      vertex -28 -11 3
      vertex -53 -2 3
      vertex -53 -11 3
    endloop
  endfacet
  facet normal 1 0 0
    outer loop
      vertex -28 -13 35
      vertex -28 -11 58
      vertex -28 -13 58
    endloop
  endfacet
  facet normal 1 -0 0
    outer loop
      vertex -28 -11 3
      vertex -28 -2 0
      vertex -28 -2 3
    endloop
  endfacet
  facet normal 1 0 0
    outer loop
      vertex -28 -11 58
      vertex -28 -13 35
      vertex -28 -11 3
    endloop
  endfacet
  facet normal 1 -0 0
    outer loop
      vertex -28 -15 35
      vertex -28 -11 3
      vertex -28 -13 35
    endloop
  endfacet
  facet normal 1 0 0
    outer loop
      vertex -28 -11 3
      vertex -28 -15 0
      vertex -28 -2 0
    endloop
  endfacet
  facet normal 1 0 0
    outer loop
      vertex -28 -15 0
      vertex -28 -11 3
      vertex -28 -15 35
    endloop
  endfacet
  facet normal -1 0 0
    outer loop
      vertex -53 -2 0
      vertex -53 -11 3
      vertex -53 -2 3
    endloop
  endfacet
  facet normal -1 0 0
    outer loop
      vertex -53 -11 3
      vertex -53 -13 35
      vertex -53 -11 58
    endloop
  endfacet
  facet normal -1 0 0
    outer loop
      vertex -53 -15 0
      vertex -53 -11 3
      vertex -53 -2 0
    endloop
  endfacet
  facet normal -1 0 0
    outer loop
      vertex -53 -15 35
      vertex -53 -11 3
      vertex -53 -15 0
    endloop
  endfacet
  facet normal -1 0 0
    outer loop
      vertex -53 -11 3
      vertex -53 -15 35
      vertex -53 -13 35
    endloop
  endfacet
  facet normal -1 -0 0
    outer loop
      vertex -53 -11 58
      vertex -53 -13 35
      vertex -53 -13 58
    endloop
  endfacet
  facet normal -0 0 1
    outer loop
      vertex -53 -13 35
      vertex -28 -15 35
      vertex -28 -13 35
    endloop
  endfacet
  facet normal 0 0 1
    outer loop
      vertex -28 -15 35
      vertex -53 -13 35
      vertex -53 -15 35
    endloop
  endfacet
  facet normal 0 -1 0
    outer loop
      vertex -53 -13 35
      vertex -28 -13 58
      vertex -53 -13 58
    endloop
  endfacet
  facet normal 0 -1 -0
    outer loop
      vertex -28 -13 58
      vertex -53 -13 35
      vertex -28 -13 35
    endloop
  endfacet
  facet normal -0 0 1
    outer loop
      vertex -53 -11 58
      vertex -28 -13 58
      vertex -28 -11 58
    endloop
  endfacet
  facet normal 0 0 1
    outer loop
      vertex -28 -13 58
      vertex -53 -11 58
      vertex -53 -13 58
    endloop
  endfacet
  facet normal 0 1 -0
    outer loop
      vertex -28 -11 3
      vertex -53 -11 58
      vertex -28 -11 58
    endloop
  endfacet
  facet normal 0 1 0
    outer loop
      vertex -53 -11 58
      vertex -28 -11 3
      vertex -53 -11 3
    endloop
  endfacet
  facet normal 2.22045e-016 1 -0
    outer loop
      vertex 0 0 4
      vertex -80 1.77636e-014 7
      vertex 0 0 7
    endloop
  endfacet
  facet normal 2.22045e-016 1 0
    outer loop
      vertex -80 1.77636e-014 7
      vertex 0 0 4
      vertex -80 1.77636e-014 4
    endloop
  endfacet
  facet normal 0 -1 0
    outer loop
      vertex -80 100 4
      vertex 2.22045e-014 100 7
      vertex -80 100 7
    endloop
  endfacet
  facet normal 0 -1 -0
    outer loop
      vertex 2.22045e-014 100 7
      vertex -80 100 4
      vertex 2.22045e-014 100 4
    endloop
  endfacet
  facet normal -1 0 0
    outer loop
      vertex -2 29.3333 0
      vertex -2 2 0
      vertex -2 29.3333 2
    endloop
  endfacet
  facet normal -1 0 0
    outer loop
      vertex -2 62.6667 0
      vertex -2 37.3333 0
      vertex -2 62.6667 2
    endloop
  endfacet
  facet normal -1 0 0
    outer loop
      vertex -2 91 0
      vertex -2 70.6667 0
      vertex -2 91 2
    endloop
  endfacet
  facet normal -1 0 0
    outer loop
      vertex -2 91 2
      vertex -2 98 4
      vertex -2 98 2
    endloop
  endfacet
  facet normal -1 0 0
    outer loop
      vertex -2 70.6667 2
      vertex -2 91 2
      vertex -2 70.6667 0
    endloop
  endfacet
  facet normal -1 0 0
    outer loop
      vertex -2 91 2
      vertex -2 70.6667 2
      vertex -2 98 4
    endloop
  endfacet
  facet normal -1 0 0
    outer loop
      vertex -2 62.6667 2
      vertex -2 98 4
      vertex -2 70.6667 2
    endloop
  endfacet
  facet normal -1 0 0
    outer loop
      vertex -2 37.3333 2
      vertex -2 62.6667 2
      vertex -2 37.3333 0
    endloop
  endfacet
  facet normal -1 0 0
    outer loop
      vertex -2 37.3333 2
      vertex -2 98 4
      vertex -2 62.6667 2
    endloop
  endfacet
  facet normal -1 0 0
    outer loop
      vertex -2 2 4
      vertex -2 37.3333 2
      vertex -2 29.3333 2
    endloop
  endfacet
  facet normal -1 0 0
    outer loop
      vertex -2 37.3333 2
      vertex -2 2 4
      vertex -2 98 4
    endloop
  endfacet
  facet normal -1 0 0
    outer loop
      vertex -2 2 4
      vertex -2 29.3333 2
      vertex -2 2 0
    endloop
  endfacet
  facet normal -1 2.22045e-016 0
    outer loop
      vertex 0 0 4
      vertex 2.22045e-014 100 7
      vertex 2.22045e-014 100 4
    endloop
  endfacet
  facet normal -1 2.22045e-016 0
    outer loop
      vertex 2.22045e-014 100 7
      vertex 0 0 4
      vertex 0 0 7
    endloop
  endfacet
  facet normal 1 -0 0
    outer loop
      vertex -78 92.5309 4
      vertex -78 98 2
      vertex -78 98 4
    endloop
  endfacet
  facet normal 1 0 0
    outer loop
      vertex -78 98 2
      vertex -78 92.5309 4
      vertex -78 92.5309 2
    endloop
  endfacet
  facet normal 1 0 0
    outer loop
      vertex -78 87.5094 4
      vertex -78 70.6667 2
      vertex -78 87.5094 0
    endloop
  endfacet
  facet normal 1 0 0
    outer loop
      vertex -78 87.5094 4
      vertex -78 62.6667 2
      vertex -78 70.6667 2
    endloop
  endfacet
  facet normal 1 0 0
    outer loop
      vertex -78 62.6667 2
      vertex -78 37.3333 2
      vertex -78 62.6667 0
    endloop
  endfacet
  facet normal 1 0 0
    outer loop
      vertex -78 87.5094 4
      vertex -78 37.3333 2
      vertex -78 62.6667 2
    endloop
  endfacet
  facet normal 1 -0 0
    outer loop
      vertex -78 5.53089 4
      vertex -78 37.3333 2
      vertex -78 87.5094 4
    endloop
  endfacet
  facet normal 1 0 0
    outer loop
      vertex -78 37.3333 2
      vertex -78 5.53089 4
      vertex -78 29.3333 2
    endloop
  endfacet
  facet normal 1 0 0
    outer loop
      vertex -78 5.53089 0
      vertex -78 29.3333 2
      vertex -78 5.53089 4
    endloop
  endfacet
  facet normal 1 0 0
    outer loop
      vertex -78 29.3333 2
      vertex -78 5.53089 0
      vertex -78 29.3333 0
    endloop
  endfacet
  facet normal 1 0 0
    outer loop
      vertex -78 87.5094 0
      vertex -78 70.6667 2
      vertex -78 70.6667 0
    endloop
  endfacet
  facet normal 1 0 0
    outer loop
      vertex -78 62.6667 0
      vertex -78 37.3333 2
      vertex -78 37.3333 0
    endloop
  endfacet
  facet normal 1 -0 0
    outer loop
      vertex -80 1.77636e-014 7
      vertex -80 100 4
      vertex -80 100 7
    endloop
  endfacet
  facet normal 1 0 0
    outer loop
      vertex -80 100 4
      vertex -80 1.77636e-014 7
      vertex -80 1.77636e-014 4
    endloop
  endfacet
  facet normal 0 1 -0
    outer loop
      vertex -2 2 0
      vertex -13.2091 2 4
      vertex -2 2 4
    endloop
  endfacet
  facet normal 0 1 0
    outer loop
      vertex -13.2091 2 4
      vertex -2 2 0
      vertex -13.2091 2 0
    endloop
  endfacet
  facet normal 0 1 -0
    outer loop
      vertex -20.7909 2 0
      vertex -71.2091 2 4
      vertex -20.7909 2 4
    endloop
  endfacet
  facet normal 0 1 0
    outer loop
      vertex -71.2091 2 4
      vertex -20.7909 2 0
      vertex -71.2091 2 0
    endloop
  endfacet
  facet normal 0 1 -0
    outer loop
      vertex -74.0489 2 0
      vertex -75.9511 2 4
      vertex -74.0489 2 4
    endloop
  endfacet
  facet normal 0 1 0
    outer loop
      vertex -75.9511 2 4
      vertex -74.0489 2 0
      vertex -75.9511 2 0
    endloop
  endfacet
  facet normal 0 1 -0
    outer loop
      vertex -16.0489 2 0
      vertex -17.9511 2 4
      vertex -16.0489 2 4
    endloop
  endfacet
  facet normal 0 1 0
    outer loop
      vertex -17.9511 2 4
      vertex -16.0489 2 0
      vertex -17.9511 2 0
    endloop
  endfacet
  facet normal 0 -1 0
    outer loop
      vertex -78 98 2
      vertex -2 98 4
      vertex -78 98 4
    endloop
  endfacet
  facet normal 0 -1 -0
    outer loop
      vertex -2 98 4
      vertex -78 98 2
      vertex -2 98 2
    endloop
  endfacet
  facet normal 0 -1 0
    outer loop
      vertex -82 -2 7
      vertex -53 -2 3
      vertex 2 -2 7
    endloop
  endfacet
  facet normal 0 -1 0
    outer loop
      vertex -82 -2 0
      vertex -53 -2 3
      vertex -82 -2 7
    endloop
  endfacet
  facet normal 0 -1 -0
    outer loop
      vertex -53 -2 3
      vertex -82 -2 0
      vertex -53 -2 0
    endloop
  endfacet
  facet normal 0 -1 0
    outer loop
      vertex -28 -2 3
      vertex 2 -2 7
      vertex -53 -2 3
    endloop
  endfacet
  facet normal 0 -1 0
    outer loop
      vertex 2 -2 0
      vertex -28 -2 3
      vertex -28 -2 0
    endloop
  endfacet
  facet normal 0 -1 0
    outer loop
      vertex -28 -2 3
      vertex 2 -2 0
      vertex 2 -2 7
    endloop
  endfacet
  facet normal 0 0 1
    outer loop
      vertex 2 102 7
      vertex 2.22045e-014 100 7
      vertex 2 -2 7
    endloop
  endfacet
  facet normal 0 0 1
    outer loop
      vertex 2 102 7
      vertex -80 100 7
      vertex 2.22045e-014 100 7
    endloop
  endfacet
  facet normal 0 0 1
    outer loop
      vertex -80 100 7
      vertex -82 102 7
      vertex -80 1.77636e-014 7
    endloop
  endfacet
  facet normal -0 0 1
    outer loop
      vertex -82 102 7
      vertex -80 100 7
      vertex 2 102 7
    endloop
  endfacet
  facet normal -0 0 1
    outer loop
      vertex 0 0 7
      vertex 2 -2 7
      vertex 2.22045e-014 100 7
    endloop
  endfacet
  facet normal 0 0 1
    outer loop
      vertex -80 1.77636e-014 7
      vertex 2 -2 7
      vertex 0 0 7
    endloop
  endfacet
  facet normal 0 0 1
    outer loop
      vertex -80 1.77636e-014 7
      vertex -82 -2 7
      vertex 2 -2 7
    endloop
  endfacet
  facet normal 0 0 1
    outer loop
      vertex -82 -2 7
      vertex -80 1.77636e-014 7
      vertex -82 102 7
    endloop
  endfacet
  facet normal 0 1 -0
    outer loop
      vertex 2 102 0
      vertex -82 102 7
      vertex 2 102 7
    endloop
  endfacet
  facet normal 0 1 0
    outer loop
      vertex -82 102 7
      vertex 2 102 0
      vertex -82 102 0
    endloop
  endfacet
  facet normal 1 -0 0
    outer loop
      vertex 2 -2 7
      vertex 2 102 0
      vertex 2 102 7
    endloop
  endfacet
  facet normal 1 0 0
    outer loop
      vertex 2 102 0
      vertex 2 -2 7
      vertex 2 -2 0
    endloop
  endfacet
  facet normal -1 0 0
    outer loop
      vertex -82 -2 0
      vertex -82 102 7
      vertex -82 102 0
    endloop
  endfacet
  facet normal -1 -0 0
    outer loop
      vertex -82 102 7
      vertex -82 -2 0
      vertex -82 -2 7
    endloop
  endfacet
  facet normal -2.50967e-008 -1 0
    outer loop
      vertex -78 29.3333 0
      vertex -2 29.3333 2
      vertex -78 29.3333 2
    endloop
  endfacet
  facet normal -2.50967e-008 -1 -0
    outer loop
      vertex -2 29.3333 2
      vertex -78 29.3333 0
      vertex -2 29.3333 0
    endloop
  endfacet
  facet normal -0 0 1
    outer loop
      vertex -78 37.3333 2
      vertex -2 29.3333 2
      vertex -2 37.3333 2
    endloop
  endfacet
  facet normal 0 0 1
    outer loop
      vertex -2 29.3333 2
      vertex -78 37.3333 2
      vertex -78 29.3333 2
    endloop
  endfacet
  facet normal 0 1 -0
    outer loop
      vertex -2 37.3333 0
      vertex -78 37.3333 2
      vertex -2 37.3333 2
    endloop
  endfacet
  facet normal 0 1 0
    outer loop
      vertex -78 37.3333 2
      vertex -2 37.3333 0
      vertex -78 37.3333 0
    endloop
  endfacet
  facet normal -5.01934e-008 -1 0
    outer loop
      vertex -78 62.6667 0
      vertex -2 62.6667 2
      vertex -78 62.6667 2
    endloop
  endfacet
  facet normal -5.01934e-008 -1 -0
    outer loop
      vertex -2 62.6667 2
      vertex -78 62.6667 0
      vertex -2 62.6667 0
    endloop
  endfacet
  facet normal -0 0 1
    outer loop
      vertex -78 70.6667 2
      vertex -2 62.6667 2
      vertex -2 70.6667 2
    endloop
  endfacet
  facet normal 0 0 1
    outer loop
      vertex -2 62.6667 2
      vertex -78 70.6667 2
      vertex -78 62.6667 2
    endloop
  endfacet
  facet normal 0 1 -0
    outer loop
      vertex -2 70.6667 0
      vertex -78 70.6667 2
      vertex -2 70.6667 2
    endloop
  endfacet
  facet normal 0 1 0
    outer loop
      vertex -78 70.6667 2
      vertex -2 70.6667 0
      vertex -78 70.6667 0
    endloop
  endfacet
  facet normal 0 -1 0
    outer loop
      vertex -75.6882 91 0
      vertex -74.3118 91 2
      vertex -75.6882 91 2
    endloop
  endfacet
  facet normal 0 -1 -0
    outer loop
      vertex -74.3118 91 2
      vertex -75.6882 91 0
      vertex -74.3118 91 0
    endloop
  endfacet
  facet normal 0 -1 0
    outer loop
      vertex -17.6882 91 0
      vertex -16.3118 91 2
      vertex -17.6882 91 2
    endloop
  endfacet
  facet normal 0 -1 -0
    outer loop
      vertex -16.3118 91 2
      vertex -17.6882 91 0
      vertex -16.3118 91 0
    endloop
  endfacet
  facet normal 0 -1 0
    outer loop
      vertex -71.2256 91 0
      vertex -20.7744 91 2
      vertex -71.2256 91 2
    endloop
  endfacet
  facet normal 0 -1 -0
    outer loop
      vertex -20.7744 91 2
      vertex -71.2256 91 0
      vertex -20.7744 91 0
    endloop
  endfacet
  facet normal 0 -1 0
    outer loop
      vertex -13.2256 91 0
      vertex -2 91 2
      vertex -13.2256 91 2
    endloop
  endfacet
  facet normal 0 -1 -0
    outer loop
      vertex -2 91 2
      vertex -13.2256 91 0
      vertex -2 91 0
    endloop
  endfacet
  facet normal 0 0 1
    outer loop
      vertex -17.6882 91 2
      vertex -16.3118 91 2
      vertex -17 91.5 2
    endloop
  endfacet
  facet normal 0 0 1
    outer loop
      vertex -75.6882 91 2
      vertex -74.3118 91 2
      vertex -75 91.5 2
    endloop
  endfacet
  facet normal -0 0 1
    outer loop
      vertex -13.7081 92.2723 2
      vertex -2 91 2
      vertex -2 98 2
    endloop
  endfacet
  facet normal 0 0 1
    outer loop
      vertex -2 91 2
      vertex -13.7081 92.2723 2
      vertex -13.2256 91 2
    endloop
  endfacet
  facet normal 0 0 1
    outer loop
      vertex -2 98 2
      vertex -15.1411 93.5418 2
      vertex -13.7081 92.2723 2
    endloop
  endfacet
  facet normal 0 0 1
    outer loop
      vertex -2 98 2
      vertex -17 94 2
      vertex -15.1411 93.5418 2
    endloop
  endfacet
  facet normal -0 0 1
    outer loop
      vertex -78 98 2
      vertex -17 94 2
      vertex -2 98 2
    endloop
  endfacet
  facet normal 0 0 1
    outer loop
      vertex -20.2919 92.2723 2
      vertex -71.2256 91 2
      vertex -20.7744 91 2
    endloop
  endfacet
  facet normal 0 0 1
    outer loop
      vertex -71.7081 92.2723 2
      vertex -20.2919 92.2723 2
      vertex -18.8589 93.5418 2
    endloop
  endfacet
  facet normal 0 0 1
    outer loop
      vertex -17 94 2
      vertex -78 98 2
      vertex -18.8589 93.5418 2
    endloop
  endfacet
  facet normal 0 0 1
    outer loop
      vertex -20.2919 92.2723 2
      vertex -71.7081 92.2723 2
      vertex -71.2256 91 2
    endloop
  endfacet
  facet normal 0 0 1
    outer loop
      vertex -18.8589 93.5418 2
      vertex -73.1411 93.5418 2
      vertex -71.7081 92.2723 2
    endloop
  endfacet
  facet normal 0 0 1
    outer loop
      vertex -18.8589 93.5418 2
      vertex -78 98 2
      vertex -73.1411 93.5418 2
    endloop
  endfacet
  facet normal 0 0 1
    outer loop
      vertex -73.1411 93.5418 2
      vertex -78 98 2
      vertex -75 94 2
    endloop
  endfacet
  facet normal 0 0 1
    outer loop
      vertex -78 98 2
      vertex -76.8589 93.5418 2
      vertex -75 94 2
    endloop
  endfacet
  facet normal 0 0 1
    outer loop
      vertex -76.8589 93.5418 2
      vertex -78 98 2
      vertex -78 92.5309 2
    endloop
  endfacet
endsolid OpenSCAD_Model
