solid OpenSCAD_Model
  facet normal -1 0 0
    outer loop
      vertex 0 0 0
      vertex 0 14.5 2.5
      vertex 0 14.5 0
    endloop
  endfacet
  facet normal -1 -0 0
    outer loop
      vertex 0 14.5 2.5
      vertex 0 0 0
      vertex 0 0 2.5
    endloop
  endfacet
  facet normal 0 0 1
    outer loop
      vertex 33 14.5 5
      vertex 27.5 7.25 5
      vertex 33 0 5
    endloop
  endfacet
  facet normal 0 0 1
    outer loop
      vertex 33 14.5 5
      vertex 26.7678 9.01777 5
      vertex 27.5 7.25 5
    endloop
  endfacet
  facet normal 0 0 1
    outer loop
      vertex 33 14.5 5
      vertex 25 9.75 5
      vertex 26.7678 9.01777 5
    endloop
  endfacet
  facet normal 0 0 1
    outer loop
      vertex 11 9.75 5
      vertex 25 9.75 5
      vertex 33 14.5 5
    endloop
  endfacet
  facet normal 0 0 1
    outer loop
      vertex 23.2322 9.01777 5
      vertex 13.5 7.25 5
      vertex 22.5 7.25 5
    endloop
  endfacet
  facet normal 0 0 1
    outer loop
      vertex 25 9.75 5
      vertex 11 9.75 5
      vertex 23.2322 9.01777 5
    endloop
  endfacet
  facet normal 0 0 1
    outer loop
      vertex 23.2322 9.01777 5
      vertex 12.7678 9.01777 5
      vertex 13.5 7.25 5
    endloop
  endfacet
  facet normal 0 0 1
    outer loop
      vertex 23.2322 9.01777 5
      vertex 11 9.75 5
      vertex 12.7678 9.01777 5
    endloop
  endfacet
  facet normal 0 0 1
    outer loop
      vertex 9.23223 9.01777 5
      vertex 2 14.5 5
      vertex 8.5 7.25 5
    endloop
  endfacet
  facet normal 0 0 1
    outer loop
      vertex 11 9.75 5
      vertex 2 14.5 5
      vertex 9.23223 9.01777 5
    endloop
  endfacet
  facet normal -0 0 1
    outer loop
      vertex 2 14.5 5
      vertex 11 9.75 5
      vertex 33 14.5 5
    endloop
  endfacet
  facet normal -0 0 1
    outer loop
      vertex 26.7678 5.48223 5
      vertex 33 0 5
      vertex 27.5 7.25 5
    endloop
  endfacet
  facet normal -0 0 1
    outer loop
      vertex 25 4.75 5
      vertex 33 0 5
      vertex 26.7678 5.48223 5
    endloop
  endfacet
  facet normal 0 0 1
    outer loop
      vertex 11 4.75 5
      vertex 25 4.75 5
      vertex 23.2322 5.48223 5
    endloop
  endfacet
  facet normal -0 0 1
    outer loop
      vertex 13.5 7.25 5
      vertex 23.2322 5.48223 5
      vertex 22.5 7.25 5
    endloop
  endfacet
  facet normal 0 0 1
    outer loop
      vertex 12.7678 5.48223 5
      vertex 23.2322 5.48223 5
      vertex 13.5 7.25 5
    endloop
  endfacet
  facet normal 0 0 1
    outer loop
      vertex 11 4.75 5
      vertex 23.2322 5.48223 5
      vertex 12.7678 5.48223 5
    endloop
  endfacet
  facet normal 0 0 1
    outer loop
      vertex 25 4.75 5
      vertex 11 4.75 5
      vertex 33 0 5
    endloop
  endfacet
  facet normal 0 0 1
    outer loop
      vertex 2 0 5
      vertex 8.5 7.25 5
      vertex 2 14.5 5
    endloop
  endfacet
  facet normal 0 0 1
    outer loop
      vertex 11 4.75 5
      vertex 2 0 5
      vertex 33 0 5
    endloop
  endfacet
  facet normal 0 0 1
    outer loop
      vertex 9.23223 5.48223 5
      vertex 2 0 5
      vertex 11 4.75 5
    endloop
  endfacet
  facet normal 0 0 1
    outer loop
      vertex 8.5 7.25 5
      vertex 2 0 5
      vertex 9.23223 5.48223 5
    endloop
  endfacet
  facet normal 1 -0 0
    outer loop
      vertex 33 0 5
      vertex 33 14.5 0
      vertex 33 14.5 5
    endloop
  endfacet
  facet normal 1 0 0
    outer loop
      vertex 33 14.5 0
      vertex 33 0 5
      vertex 33 0 0
    endloop
  endfacet
  facet normal 0 0 -1
    outer loop
      vertex 0 0 0
      vertex 33 14.5 0
      vertex 33 0 0
    endloop
  endfacet
  facet normal -0 0 -1
    outer loop
      vertex 33 14.5 0
      vertex 0 0 0
      vertex 0 14.5 0
    endloop
  endfacet
  facet normal 0 -1 0
    outer loop
      vertex 0 0 2.5
      vertex 0 0 0
      vertex 2 0 2.5
    endloop
  endfacet
  facet normal 0 -1 0
    outer loop
      vertex 2 0 2.5
      vertex 33 0 5
      vertex 2 0 5
    endloop
  endfacet
  facet normal 0 -1 0
    outer loop
      vertex 33 0 0
      vertex 2 0 2.5
      vertex 0 0 0
    endloop
  endfacet
  facet normal 0 -1 0
    outer loop
      vertex 2 0 2.5
      vertex 33 0 0
      vertex 33 0 5
    endloop
  endfacet
  facet normal 0 1 0
    outer loop
      vertex 33 14.5 5
      vertex 2 14.5 2.5
      vertex 2 14.5 5
    endloop
  endfacet
  facet normal 0 1 -0
    outer loop
      vertex 33 14.5 0
      vertex 2 14.5 2.5
      vertex 33 14.5 5
    endloop
  endfacet
  facet normal 0 1 0
    outer loop
      vertex 0 14.5 0
      vertex 2 14.5 2.5
      vertex 33 14.5 0
    endloop
  endfacet
  facet normal 0 1 0
    outer loop
      vertex 2 14.5 2.5
      vertex 0 14.5 0
      vertex 0 14.5 2.5
    endloop
  endfacet
  facet normal -1 0 0
    outer loop
      vertex 2 0 2.5
      vertex 2 14.5 5
      vertex 2 14.5 2.5
    endloop
  endfacet
  facet normal -1 -0 0
    outer loop
      vertex 2 14.5 5
      vertex 2 0 2.5
      vertex 2 0 5
    endloop
  endfacet
  facet normal -0 0 1
    outer loop
      vertex 0 14.5 2.5
      vertex 2 0 2.5
      vertex 2 14.5 2.5
    endloop
  endfacet
  facet normal 0 0 1
    outer loop
      vertex 2 0 2.5
      vertex 0 14.5 2.5
      vertex 0 0 2.5
    endloop
  endfacet
  facet normal -0.923886 -0.382668 0
    outer loop
      vertex 13.5 7.25 3
      vertex 12.7678 9.01777 5
      vertex 12.7678 9.01777 3
    endloop
  endfacet
  facet normal -0.923886 -0.382668 0
    outer loop
      vertex 12.7678 9.01777 5
      vertex 13.5 7.25 3
      vertex 13.5 7.25 5
    endloop
  endfacet
  facet normal 0.382682 -0.92388 0
    outer loop
      vertex 9.23223 9.01777 3
      vertex 11 9.75 5
      vertex 9.23223 9.01777 5
    endloop
  endfacet
  facet normal 0.382682 -0.92388 0
    outer loop
      vertex 11 9.75 5
      vertex 9.23223 9.01777 3
      vertex 11 9.75 3
    endloop
  endfacet
  facet normal -0.382676 -0.923883 0
    outer loop
      vertex 11 9.75 3
      vertex 12.7678 9.01777 5
      vertex 11 9.75 5
    endloop
  endfacet
  facet normal -0.382676 -0.923883 -0
    outer loop
      vertex 12.7678 9.01777 5
      vertex 11 9.75 3
      vertex 12.7678 9.01777 3
    endloop
  endfacet
  facet normal 0.92388 -0.382682 0
    outer loop
      vertex 8.5 7.25 5
      vertex 9.23223 9.01777 3
      vertex 9.23223 9.01777 5
    endloop
  endfacet
  facet normal 0.92388 -0.382682 0
    outer loop
      vertex 9.23223 9.01777 3
      vertex 8.5 7.25 5
      vertex 8.5 7.25 3
    endloop
  endfacet
  facet normal 0 0 1
    outer loop
      vertex 12.7678 9.01777 3
      vertex 12.7678 5.48223 3
      vertex 13.5 7.25 3
    endloop
  endfacet
  facet normal 0 0 1
    outer loop
      vertex 11 9.75 3
      vertex 12.7678 5.48223 3
      vertex 12.7678 9.01777 3
    endloop
  endfacet
  facet normal 0 0 1
    outer loop
      vertex 11 9.75 3
      vertex 11 4.75 3
      vertex 12.7678 5.48223 3
    endloop
  endfacet
  facet normal -0 0 1
    outer loop
      vertex 9.23223 9.01777 3
      vertex 11 4.75 3
      vertex 11 9.75 3
    endloop
  endfacet
  facet normal 0 0 1
    outer loop
      vertex 9.23223 9.01777 3
      vertex 9.23223 5.48223 3
      vertex 11 4.75 3
    endloop
  endfacet
  facet normal 0 -0 1
    outer loop
      vertex 9.23223 5.48223 3
      vertex 9.23223 9.01777 3
      vertex 8.5 7.25 3
    endloop
  endfacet
  facet normal -0.923886 0.382668 0
    outer loop
      vertex 12.7678 5.48223 3
      vertex 13.5 7.25 5
      vertex 13.5 7.25 3
    endloop
  endfacet
  facet normal -0.923886 0.382668 0
    outer loop
      vertex 13.5 7.25 5
      vertex 12.7678 5.48223 3
      vertex 12.7678 5.48223 5
    endloop
  endfacet
  facet normal 0.382682 0.92388 -0
    outer loop
      vertex 11 4.75 3
      vertex 9.23223 5.48223 5
      vertex 11 4.75 5
    endloop
  endfacet
  facet normal 0.382682 0.92388 0
    outer loop
      vertex 9.23223 5.48223 5
      vertex 11 4.75 3
      vertex 9.23223 5.48223 3
    endloop
  endfacet
  facet normal 0.92388 0.382682 0
    outer loop
      vertex 9.23223 5.48223 5
      vertex 8.5 7.25 3
      vertex 8.5 7.25 5
    endloop
  endfacet
  facet normal 0.92388 0.382682 0
    outer loop
      vertex 8.5 7.25 3
      vertex 9.23223 5.48223 5
      vertex 9.23223 5.48223 3
    endloop
  endfacet
  facet normal -0.382676 0.923883 0
    outer loop
      vertex 12.7678 5.48223 3
      vertex 11 4.75 5
      vertex 12.7678 5.48223 5
    endloop
  endfacet
  facet normal -0.382676 0.923883 0
    outer loop
      vertex 11 4.75 5
      vertex 12.7678 5.48223 3
      vertex 11 4.75 3
    endloop
  endfacet
  facet normal -0.923886 -0.382668 0
    outer loop
      vertex 27.5 7.25 3
      vertex 26.7678 9.01777 5
      vertex 26.7678 9.01777 3
    endloop
  endfacet
  facet normal -0.923886 -0.382668 0
    outer loop
      vertex 26.7678 9.01777 5
      vertex 27.5 7.25 3
      vertex 27.5 7.25 5
    endloop
  endfacet
  facet normal 0.382676 -0.923883 0
    outer loop
      vertex 23.2322 9.01777 3
      vertex 25 9.75 5
      vertex 23.2322 9.01777 5
    endloop
  endfacet
  facet normal 0.382676 -0.923883 0
    outer loop
      vertex 25 9.75 5
      vertex 23.2322 9.01777 3
      vertex 25 9.75 3
    endloop
  endfacet
  facet normal -0.382676 -0.923883 0
    outer loop
      vertex 25 9.75 3
      vertex 26.7678 9.01777 5
      vertex 25 9.75 5
    endloop
  endfacet
  facet normal -0.382676 -0.923883 -0
    outer loop
      vertex 26.7678 9.01777 5
      vertex 25 9.75 3
      vertex 26.7678 9.01777 3
    endloop
  endfacet
  facet normal 0.923886 -0.382668 0
    outer loop
      vertex 22.5 7.25 5
      vertex 23.2322 9.01777 3
      vertex 23.2322 9.01777 5
    endloop
  endfacet
  facet normal 0.923886 -0.382668 0
    outer loop
      vertex 23.2322 9.01777 3
      vertex 22.5 7.25 5
      vertex 22.5 7.25 3
    endloop
  endfacet
  facet normal 0 0 1
    outer loop
      vertex 26.7678 9.01777 3
      vertex 26.7678 5.48223 3
      vertex 27.5 7.25 3
    endloop
  endfacet
  facet normal 0 0 1
    outer loop
      vertex 25 9.75 3
      vertex 26.7678 5.48223 3
      vertex 26.7678 9.01777 3
    endloop
  endfacet
  facet normal 0 0 1
    outer loop
      vertex 25 9.75 3
      vertex 25 4.75 3
      vertex 26.7678 5.48223 3
    endloop
  endfacet
  facet normal -0 0 1
    outer loop
      vertex 23.2322 9.01777 3
      vertex 25 4.75 3
      vertex 25 9.75 3
    endloop
  endfacet
  facet normal 0 0 1
    outer loop
      vertex 23.2322 9.01777 3
      vertex 23.2322 5.48223 3
      vertex 25 4.75 3
    endloop
  endfacet
  facet normal 0 -0 1
    outer loop
      vertex 23.2322 5.48223 3
      vertex 23.2322 9.01777 3
      vertex 22.5 7.25 3
    endloop
  endfacet
  facet normal -0.923886 0.382668 0
    outer loop
      vertex 26.7678 5.48223 3
      vertex 27.5 7.25 5
      vertex 27.5 7.25 3
    endloop
  endfacet
  facet normal -0.923886 0.382668 0
    outer loop
      vertex 27.5 7.25 5
      vertex 26.7678 5.48223 3
      vertex 26.7678 5.48223 5
    endloop
  endfacet
  facet normal 0.382676 0.923883 -0
    outer loop
      vertex 25 4.75 3
      vertex 23.2322 5.48223 5
      vertex 25 4.75 5
    endloop
  endfacet
  facet normal 0.382676 0.923883 0
    outer loop
      vertex 23.2322 5.48223 5
      vertex 25 4.75 3
      vertex 23.2322 5.48223 3
    endloop
  endfacet
  facet normal 0.923886 0.382668 0
    outer loop
      vertex 23.2322 5.48223 5
      vertex 22.5 7.25 3
      vertex 22.5 7.25 5
    endloop
  endfacet
  facet normal 0.923886 0.382668 0
    outer loop
      vertex 22.5 7.25 3
      vertex 23.2322 5.48223 5
      vertex 23.2322 5.48223 3
    endloop
  endfacet
  facet normal -0.382676 0.923883 0
    outer loop
      vertex 26.7678 5.48223 3
      vertex 25 4.75 5
      vertex 26.7678 5.48223 5
    endloop
  endfacet
  facet normal -0.382676 0.923883 0
    outer loop
      vertex 25 4.75 5
      vertex 26.7678 5.48223 3
      vertex 25 4.75 3
    endloop
  endfacet
endsolid OpenSCAD_Model
