solid OpenSCAD_Model
  facet normal -1 0 0
    outer loop
      vertex 0 -30 6.66134e-015
      vertex 0 -2 2
      vertex 0 0 0
    endloop
  endfacet
  facet normal -1 -0 0
    outer loop
      vertex 0 -2 2
      vertex 0 -30 6.66134e-015
      vertex 0 -30 2
    endloop
  endfacet
  facet normal -1 0 0
    outer loop
      vertex 0 -2 2
      vertex 0 2.22045e-015 10
      vertex 0 0 0
    endloop
  endfacet
  facet normal -1 0 0
    outer loop
      vertex 0 -2 20
      vertex 0 2.22045e-015 10
      vertex 0 -2 2
    endloop
  endfacet
  facet normal -1 0 0
    outer loop
      vertex 0 2.22045e-015 10
      vertex 0 -2 20
      vertex 0 4.44089e-015 20
    endloop
  endfacet
  facet normal 0 -1 0
    outer loop
      vertex 0 -30 6.66134e-015
      vertex 80 -30 2
      vertex 0 -30 2
    endloop
  endfacet
  facet normal 0 -1 -0
    outer loop
      vertex 80 -30 2
      vertex 0 -30 6.66134e-015
      vertex 80 -30 6.66134e-015
    endloop
  endfacet
  facet normal 1 0 0
    outer loop
      vertex 80 4.44089e-015 20
      vertex 80 1.77636e-015 10
      vertex 80 2.22045e-015 10
    endloop
  endfacet
  facet normal 1 -0 0
    outer loop
      vertex 80 -2 20
      vertex 80 1.77636e-015 10
      vertex 80 4.44089e-015 20
    endloop
  endfacet
  facet normal 1 0 0
    outer loop
      vertex 80 -2 2
      vertex 80 1.77636e-015 10
      vertex 80 -2 20
    endloop
  endfacet
  facet normal 1 0 0
    outer loop
      vertex 80 1.77636e-015 10
      vertex 80 -2 2
      vertex 80 -4.44089e-016 9.86076e-032
    endloop
  endfacet
  facet normal 1 0 0
    outer loop
      vertex 80 -30 6.66134e-015
      vertex 80 -2 2
      vertex 80 -30 2
    endloop
  endfacet
  facet normal 1 0 0
    outer loop
      vertex 80 -2 2
      vertex 80 -30 6.66134e-015
      vertex 80 -4.44089e-016 9.86076e-032
    endloop
  endfacet
  facet normal 0 1 -2.22045e-016
    outer loop
      vertex 66 -2.88658e-015 -13
      vertex 62 0 0
      vertex 66 0 0
    endloop
  endfacet
  facet normal 0 1 -2.22045e-016
    outer loop
      vertex 62 0 0
      vertex 66 -2.88658e-015 -13
      vertex 62 -2.88658e-015 -13
    endloop
  endfacet
  facet normal 0 1 -2.22045e-016
    outer loop
      vertex 39 0 0
      vertex 2 2.22045e-015 10
      vertex 39 2.22045e-015 10
    endloop
  endfacet
  facet normal 0 1 -2.22045e-016
    outer loop
      vertex 2 2.22045e-015 10
      vertex 39 0 0
      vertex 2 0 0
    endloop
  endfacet
  facet normal 0 1 -2.22045e-016
    outer loop
      vertex 66 0 0
      vertex 78 2.22045e-015 10
      vertex 78 0 0
    endloop
  endfacet
  facet normal 0 1 -2.22045e-016
    outer loop
      vertex 62 0 0
      vertex 78 2.22045e-015 10
      vertex 66 0 0
    endloop
  endfacet
  facet normal 0 1 -2.22045e-016
    outer loop
      vertex 78 2.22045e-015 10
      vertex 62 0 0
      vertex 41 2.22045e-015 10
    endloop
  endfacet
  facet normal 0 1 -2.22045e-016
    outer loop
      vertex 41 2.22045e-015 10
      vertex 62 0 0
      vertex 41 0 0
    endloop
  endfacet
  facet normal 0 1 -2.22045e-016
    outer loop
      vertex 78 2.22045e-015 10
      vertex 80 4.44089e-015 20
      vertex 80 2.22045e-015 10
    endloop
  endfacet
  facet normal 0 1 -2.22045e-016
    outer loop
      vertex 41 2.22045e-015 10
      vertex 80 4.44089e-015 20
      vertex 78 2.22045e-015 10
    endloop
  endfacet
  facet normal 0 1 -2.22045e-016
    outer loop
      vertex 80 4.44089e-015 20
      vertex 41 2.22045e-015 10
      vertex 0 4.44089e-015 20
    endloop
  endfacet
  facet normal 0 1 -2.22045e-016
    outer loop
      vertex 39 2.22045e-015 10
      vertex 0 4.44089e-015 20
      vertex 41 2.22045e-015 10
    endloop
  endfacet
  facet normal 0 1 -2.22045e-016
    outer loop
      vertex 2 2.22045e-015 10
      vertex 0 4.44089e-015 20
      vertex 39 2.22045e-015 10
    endloop
  endfacet
  facet normal 0 1 -2.22045e-016
    outer loop
      vertex 0 4.44089e-015 20
      vertex 2 2.22045e-015 10
      vertex 0 2.22045e-015 10
    endloop
  endfacet
  facet normal 0 -2.22045e-016 -1
    outer loop
      vertex 38.1981 -14.1322 3.13799e-015
      vertex 39 0 0
      vertex 39.555 -13.0501 2.89771e-015
    endloop
  endfacet
  facet normal 0 -2.22045e-016 -1
    outer loop
      vertex 38.1981 -15.8678 3.52335e-015
      vertex 33 -21 4.66294e-015
      vertex 38.1981 -14.1322 3.13799e-015
    endloop
  endfacet
  facet normal 0 -2.22045e-016 -1
    outer loop
      vertex 30 -21 4.66294e-015
      vertex 38.1981 -14.1322 3.13799e-015
      vertex 33 -21 4.66294e-015
    endloop
  endfacet
  facet normal 0 -2.22045e-016 -1
    outer loop
      vertex 38.1981 -14.1322 3.13799e-015
      vertex 30 -21 4.66294e-015
      vertex 22 -15 3.33067e-015
    endloop
  endfacet
  facet normal 0 -2.22045e-016 -1
    outer loop
      vertex 21.247 -13.4363 2.98347e-015
      vertex 38.1981 -14.1322 3.13799e-015
      vertex 22 -15 3.33067e-015
    endloop
  endfacet
  facet normal 0 -2.22045e-016 -1
    outer loop
      vertex 38.1981 -14.1322 3.13799e-015
      vertex 21.247 -13.4363 2.98347e-015
      vertex 39 0 0
    endloop
  endfacet
  facet normal 0 -2.22045e-016 -1
    outer loop
      vertex 19.555 -13.0501 2.89771e-015
      vertex 39 0 0
      vertex 21.247 -13.4363 2.98347e-015
    endloop
  endfacet
  facet normal 0 -2.22045e-016 -1
    outer loop
      vertex 18.1981 -15.8678 3.52335e-015
      vertex 13 -21 4.66294e-015
      vertex 18.1981 -14.1322 3.13799e-015
    endloop
  endfacet
  facet normal 0 -2.22045e-016 -1
    outer loop
      vertex 10 -21 4.66294e-015
      vertex 18.1981 -14.1322 3.13799e-015
      vertex 13 -21 4.66294e-015
    endloop
  endfacet
  facet normal 0 -2.22045e-016 -1
    outer loop
      vertex 19.555 -13.0501 2.89771e-015
      vertex 2 0 0
      vertex 39 0 0
    endloop
  endfacet
  facet normal 0 -2.22045e-016 -1
    outer loop
      vertex 18.1981 -14.1322 3.13799e-015
      vertex 2 0 0
      vertex 19.555 -13.0501 2.89771e-015
    endloop
  endfacet
  facet normal 0 -2.22045e-016 -1
    outer loop
      vertex 2 0 0
      vertex 18.1981 -14.1322 3.13799e-015
      vertex 10 -21 4.66294e-015
    endloop
  endfacet
  facet normal 0 -2.22045e-016 -1
    outer loop
      vertex 66 -15 3.33067e-015
      vertex 80 -4.44089e-016 9.86076e-032
      vertex 80 -30 6.66134e-015
    endloop
  endfacet
  facet normal 0 -2.22045e-016 -1
    outer loop
      vertex 80 -4.44089e-016 9.86076e-032
      vertex 78 0 0
      vertex 80 10 -2.22045e-015
    endloop
  endfacet
  facet normal 0 -2.22045e-016 -1
    outer loop
      vertex 80 -4.44089e-016 9.86076e-032
      vertex 66 -15 3.33067e-015
      vertex 78 0 0
    endloop
  endfacet
  facet normal 0 -2.22045e-016 -1
    outer loop
      vertex 61.247 -16.5637 3.67787e-015
      vertex 66 -15 3.33067e-015
      vertex 80 -30 6.66134e-015
    endloop
  endfacet
  facet normal -0 -2.22045e-016 -1
    outer loop
      vertex 66 -15 3.33067e-015
      vertex 61.247 -16.5637 3.67787e-015
      vertex 62 -15 3.33067e-015
    endloop
  endfacet
  facet normal 0 -2.22045e-016 -1
    outer loop
      vertex 80 -30 6.66134e-015
      vertex 59.555 -16.9499 3.76362e-015
      vertex 61.247 -16.5637 3.67787e-015
    endloop
  endfacet
  facet normal 0 -2.22045e-016 -1
    outer loop
      vertex 58.1981 -15.8678 3.52335e-015
      vertex 42 -15 3.33067e-015
      vertex 58.1981 -14.1322 3.13799e-015
    endloop
  endfacet
  facet normal 0 -2.22045e-016 -1
    outer loop
      vertex 41.247 -16.5637 3.67787e-015
      vertex 58.1981 -15.8678 3.52335e-015
      vertex 59.555 -16.9499 3.76362e-015
    endloop
  endfacet
  facet normal 0 -2.22045e-016 -1
    outer loop
      vertex 33 -29 6.43929e-015
      vertex 59.555 -16.9499 3.76362e-015
      vertex 80 -30 6.66134e-015
    endloop
  endfacet
  facet normal 0 -2.22045e-016 -1
    outer loop
      vertex 58.1981 -15.8678 3.52335e-015
      vertex 41.247 -16.5637 3.67787e-015
      vertex 42 -15 3.33067e-015
    endloop
  endfacet
  facet normal 0 -2.22045e-016 -1
    outer loop
      vertex 59.555 -16.9499 3.76362e-015
      vertex 33 -29 6.43929e-015
      vertex 41.247 -16.5637 3.67787e-015
    endloop
  endfacet
  facet normal 0 -2.22045e-016 -1
    outer loop
      vertex 39.555 -16.9499 3.76362e-015
      vertex 33 -21 4.66294e-015
      vertex 38.1981 -15.8678 3.52335e-015
    endloop
  endfacet
  facet normal 0 -2.22045e-016 -1
    outer loop
      vertex 33 -21 4.66294e-015
      vertex 39.555 -16.9499 3.76362e-015
      vertex 33 -29 6.43929e-015
    endloop
  endfacet
  facet normal 0 -2.22045e-016 -1
    outer loop
      vertex 41.247 -16.5637 3.67787e-015
      vertex 33 -29 6.43929e-015
      vertex 39.555 -16.9499 3.76362e-015
    endloop
  endfacet
  facet normal 0 -2.22045e-016 -1
    outer loop
      vertex 0 -30 6.66134e-015
      vertex 33 -29 6.43929e-015
      vertex 80 -30 6.66134e-015
    endloop
  endfacet
  facet normal 0 -2.22045e-016 -1
    outer loop
      vertex 21.247 -16.5637 3.67787e-015
      vertex 30 -21 4.66294e-015
      vertex 30 -29 6.43929e-015
    endloop
  endfacet
  facet normal 0 -2.22045e-016 -1
    outer loop
      vertex 30 -21 4.66294e-015
      vertex 21.247 -16.5637 3.67787e-015
      vertex 22 -15 3.33067e-015
    endloop
  endfacet
  facet normal 0 -2.22045e-016 -1
    outer loop
      vertex 30 -29 6.43929e-015
      vertex 19.555 -16.9499 3.76362e-015
      vertex 21.247 -16.5637 3.67787e-015
    endloop
  endfacet
  facet normal 0 -2.22045e-016 -1
    outer loop
      vertex 13 -29 6.43929e-015
      vertex 19.555 -16.9499 3.76362e-015
      vertex 30 -29 6.43929e-015
    endloop
  endfacet
  facet normal 0 -2.22045e-016 -1
    outer loop
      vertex 19.555 -16.9499 3.76362e-015
      vertex 13 -21 4.66294e-015
      vertex 18.1981 -15.8678 3.52335e-015
    endloop
  endfacet
  facet normal 0 -2.22045e-016 -1
    outer loop
      vertex 13 -21 4.66294e-015
      vertex 19.555 -16.9499 3.76362e-015
      vertex 13 -29 6.43929e-015
    endloop
  endfacet
  facet normal -0 -2.22045e-016 -1
    outer loop
      vertex 33 -29 6.43929e-015
      vertex 0 -30 6.66134e-015
      vertex 30 -29 6.43929e-015
    endloop
  endfacet
  facet normal -0 -2.22045e-016 -1
    outer loop
      vertex 30 -29 6.43929e-015
      vertex 0 -30 6.66134e-015
      vertex 13 -29 6.43929e-015
    endloop
  endfacet
  facet normal 0 -2.22045e-016 -1
    outer loop
      vertex 0 -30 6.66134e-015
      vertex 10 -21 4.66294e-015
      vertex 10 -29 6.43929e-015
    endloop
  endfacet
  facet normal 0 -2.22045e-016 -1
    outer loop
      vertex 2 0 0
      vertex 2.22045e-015 10 -2.22045e-015
      vertex 2 10 -2.22045e-015
    endloop
  endfacet
  facet normal -0 -2.22045e-016 -1
    outer loop
      vertex 13 -29 6.43929e-015
      vertex 0 -30 6.66134e-015
      vertex 10 -29 6.43929e-015
    endloop
  endfacet
  facet normal 0 -2.22045e-016 -1
    outer loop
      vertex 0 0 0
      vertex 10 -21 4.66294e-015
      vertex 0 -30 6.66134e-015
    endloop
  endfacet
  facet normal 0 -2.22045e-016 -1
    outer loop
      vertex 10 -21 4.66294e-015
      vertex 0 0 0
      vertex 2 0 0
    endloop
  endfacet
  facet normal -0 -2.22045e-016 -1
    outer loop
      vertex 2 0 0
      vertex 0 0 0
      vertex 2.22045e-015 10 -2.22045e-015
    endloop
  endfacet
  facet normal -0 -2.22045e-016 -1
    outer loop
      vertex 80 10 -2.22045e-015
      vertex 78 0 0
      vertex 78 10 -2.22045e-015
    endloop
  endfacet
  facet normal -0 -2.22045e-016 -1
    outer loop
      vertex 78 0 0
      vertex 66 -15 3.33067e-015
      vertex 66 0 0
    endloop
  endfacet
  facet normal 0 -2.22045e-016 -1
    outer loop
      vertex 61.247 -13.4363 2.98347e-015
      vertex 62 0 0
      vertex 62 -15 3.33067e-015
    endloop
  endfacet
  facet normal 0 -2.22045e-016 -1
    outer loop
      vertex 59.555 -13.0501 2.89771e-015
      vertex 62 0 0
      vertex 61.247 -13.4363 2.98347e-015
    endloop
  endfacet
  facet normal 0 -2.22045e-016 -1
    outer loop
      vertex 58.1981 -14.1322 3.13799e-015
      vertex 62 0 0
      vertex 59.555 -13.0501 2.89771e-015
    endloop
  endfacet
  facet normal 0 -2.22045e-016 -1
    outer loop
      vertex 41.247 -13.4363 2.98347e-015
      vertex 58.1981 -14.1322 3.13799e-015
      vertex 42 -15 3.33067e-015
    endloop
  endfacet
  facet normal 0 -2.22045e-016 -1
    outer loop
      vertex 41 0 0
      vertex 58.1981 -14.1322 3.13799e-015
      vertex 41.247 -13.4363 2.98347e-015
    endloop
  endfacet
  facet normal 0 -2.22045e-016 -1
    outer loop
      vertex 58.1981 -14.1322 3.13799e-015
      vertex 41 0 0
      vertex 62 0 0
    endloop
  endfacet
  facet normal 0 -2.22045e-016 -1
    outer loop
      vertex 39.555 -13.0501 2.89771e-015
      vertex 41 0 0
      vertex 41.247 -13.4363 2.98347e-015
    endloop
  endfacet
  facet normal 0 -2.22045e-016 -1
    outer loop
      vertex 39 0 0
      vertex 41 0 0
      vertex 39.555 -13.0501 2.89771e-015
    endloop
  endfacet
  facet normal -0 -2.22045e-016 -1
    outer loop
      vertex 41 0 0
      vertex 39 0 0
      vertex 41 10 -2.22045e-015
    endloop
  endfacet
  facet normal -0 -2.22045e-016 -1
    outer loop
      vertex 41 10 -2.22045e-015
      vertex 39 0 0
      vertex 39 10 -2.22045e-015
    endloop
  endfacet
  facet normal 0 0 1
    outer loop
      vertex 80 -2 2
      vertex 62 -15 2
      vertex 80 -30 2
    endloop
  endfacet
  facet normal 0 0 1
    outer loop
      vertex 80 -2 2
      vertex 61.247 -13.4363 2
      vertex 62 -15 2
    endloop
  endfacet
  facet normal 0 0 1
    outer loop
      vertex 80 -2 2
      vertex 59.555 -13.0501 2
      vertex 61.247 -13.4363 2
    endloop
  endfacet
  facet normal 0 0 1
    outer loop
      vertex 58.1981 -14.1322 2
      vertex 42 -15 2
      vertex 58.1981 -15.8678 2
    endloop
  endfacet
  facet normal -0 0 1
    outer loop
      vertex 41.247 -13.4363 2
      vertex 58.1981 -14.1322 2
      vertex 59.555 -13.0501 2
    endloop
  endfacet
  facet normal 0 0 1
    outer loop
      vertex 39.555 -13.0501 2
      vertex 59.555 -13.0501 2
      vertex 80 -2 2
    endloop
  endfacet
  facet normal 0 0 1
    outer loop
      vertex 58.1981 -14.1322 2
      vertex 41.247 -13.4363 2
      vertex 42 -15 2
    endloop
  endfacet
  facet normal 0 0 1
    outer loop
      vertex 59.555 -13.0501 2
      vertex 39.555 -13.0501 2
      vertex 41.247 -13.4363 2
    endloop
  endfacet
  facet normal 0 0 1
    outer loop
      vertex 38.1981 -14.1322 2
      vertex 22 -15 2
      vertex 38.1981 -15.8678 2
    endloop
  endfacet
  facet normal -0 0 1
    outer loop
      vertex 21.247 -13.4363 2
      vertex 38.1981 -14.1322 2
      vertex 39.555 -13.0501 2
    endloop
  endfacet
  facet normal -0 0 1
    outer loop
      vertex 0 -2 2
      vertex 39.555 -13.0501 2
      vertex 80 -2 2
    endloop
  endfacet
  facet normal 0 0 1
    outer loop
      vertex 38.1981 -14.1322 2
      vertex 21.247 -13.4363 2
      vertex 22 -15 2
    endloop
  endfacet
  facet normal 0 0 1
    outer loop
      vertex 39.555 -13.0501 2
      vertex 0 -2 2
      vertex 21.247 -13.4363 2
    endloop
  endfacet
  facet normal 0 0 1
    outer loop
      vertex 18.1981 -14.1322 2
      vertex 0 -2 2
      vertex 18.1981 -15.8678 2
    endloop
  endfacet
  facet normal 0 0 1
    outer loop
      vertex 19.555 -13.0501 2
      vertex 0 -2 2
      vertex 18.1981 -14.1322 2
    endloop
  endfacet
  facet normal 0 0 1
    outer loop
      vertex 21.247 -13.4363 2
      vertex 0 -2 2
      vertex 19.555 -13.0501 2
    endloop
  endfacet
  facet normal -0 0 1
    outer loop
      vertex 61.247 -16.5637 2
      vertex 80 -30 2
      vertex 62 -15 2
    endloop
  endfacet
  facet normal -0 0 1
    outer loop
      vertex 59.555 -16.9499 2
      vertex 80 -30 2
      vertex 61.247 -16.5637 2
    endloop
  endfacet
  facet normal 0 0 1
    outer loop
      vertex 41.247 -16.5637 2
      vertex 58.1981 -15.8678 2
      vertex 42 -15 2
    endloop
  endfacet
  facet normal 0 0 1
    outer loop
      vertex 58.1981 -15.8678 2
      vertex 41.247 -16.5637 2
      vertex 59.555 -16.9499 2
    endloop
  endfacet
  facet normal 0 0 1
    outer loop
      vertex 59.555 -16.9499 2
      vertex 41.247 -16.5637 2
      vertex 80 -30 2
    endloop
  endfacet
  facet normal -0 0 1
    outer loop
      vertex 39.555 -16.9499 2
      vertex 80 -30 2
      vertex 41.247 -16.5637 2
    endloop
  endfacet
  facet normal 0 0 1
    outer loop
      vertex 21.247 -16.5637 2
      vertex 38.1981 -15.8678 2
      vertex 22 -15 2
    endloop
  endfacet
  facet normal 0 0 1
    outer loop
      vertex 38.1981 -15.8678 2
      vertex 21.247 -16.5637 2
      vertex 39.555 -16.9499 2
    endloop
  endfacet
  facet normal 0 0 1
    outer loop
      vertex 0 -30 2
      vertex 39.555 -16.9499 2
      vertex 21.247 -16.5637 2
    endloop
  endfacet
  facet normal 0 0 1
    outer loop
      vertex 0 -30 2
      vertex 21.247 -16.5637 2
      vertex 19.555 -16.9499 2
    endloop
  endfacet
  facet normal 0 0 1
    outer loop
      vertex 0 -30 2
      vertex 18.1981 -15.8678 2
      vertex 0 -2 2
    endloop
  endfacet
  facet normal 0 0 1
    outer loop
      vertex 39.555 -16.9499 2
      vertex 0 -30 2
      vertex 80 -30 2
    endloop
  endfacet
  facet normal 0 0 1
    outer loop
      vertex 18.1981 -15.8678 2
      vertex 0 -30 2
      vertex 19.555 -16.9499 2
    endloop
  endfacet
  facet normal -0.900969 -0.433884 0
    outer loop
      vertex 22 -15 3.33067e-015
      vertex 21.247 -13.4363 2
      vertex 21.247 -13.4363 2.98347e-015
    endloop
  endfacet
  facet normal -0.900969 -0.433884 0
    outer loop
      vertex 21.247 -13.4363 2
      vertex 22 -15 3.33067e-015
      vertex 22 -15 2
    endloop
  endfacet
  facet normal -0.222521 -0.974928 0
    outer loop
      vertex 19.555 -13.0501 2
      vertex 21.247 -13.4363 2.98347e-015
      vertex 21.247 -13.4363 2
    endloop
  endfacet
  facet normal -0.222521 -0.974928 0
    outer loop
      vertex 21.247 -13.4363 2.98347e-015
      vertex 19.555 -13.0501 2
      vertex 19.555 -13.0501 2.89771e-015
    endloop
  endfacet
  facet normal -0.900969 0.433884 0
    outer loop
      vertex 22 -15 3.33067e-015
      vertex 21.247 -16.5637 2
      vertex 22 -15 2
    endloop
  endfacet
  facet normal -0.900969 0.433884 -4.13784e-007
    outer loop
      vertex 21.247 -16.5637 2
      vertex 22 -15 3.33067e-015
      vertex 21.247 -16.5637 3.67787e-015
    endloop
  endfacet
  facet normal 1 -0 0
    outer loop
      vertex 18.1981 -15.8678 2
      vertex 18.1981 -14.1322 3.13799e-015
      vertex 18.1981 -14.1322 2
    endloop
  endfacet
  facet normal 1 0 0
    outer loop
      vertex 18.1981 -14.1322 3.13799e-015
      vertex 18.1981 -15.8678 2
      vertex 18.1981 -15.8678 3.52335e-015
    endloop
  endfacet
  facet normal 0.62349 -0.781831 0
    outer loop
      vertex 18.1981 -14.1322 3.13799e-015
      vertex 19.555 -13.0501 2
      vertex 18.1981 -14.1322 2
    endloop
  endfacet
  facet normal 0.62349 -0.781831 0
    outer loop
      vertex 19.555 -13.0501 2
      vertex 18.1981 -14.1322 3.13799e-015
      vertex 19.555 -13.0501 2.89771e-015
    endloop
  endfacet
  facet normal -0.222522 0.974928 0
    outer loop
      vertex 21.247 -16.5637 2
      vertex 19.555 -16.9499 3.76362e-015
      vertex 19.555 -16.9499 2
    endloop
  endfacet
  facet normal -0.222521 0.974928 -9.29764e-007
    outer loop
      vertex 19.555 -16.9499 3.76362e-015
      vertex 21.247 -16.5637 2
      vertex 21.247 -16.5637 3.67787e-015
    endloop
  endfacet
  facet normal 0.62349 0.781831 -0
    outer loop
      vertex 19.555 -16.9499 3.76362e-015
      vertex 18.1981 -15.8678 2
      vertex 19.555 -16.9499 2
    endloop
  endfacet
  facet normal 0.62349 0.781831 0
    outer loop
      vertex 18.1981 -15.8678 2
      vertex 19.555 -16.9499 3.76362e-015
      vertex 18.1981 -15.8678 3.52335e-015
    endloop
  endfacet
  facet normal -0.900969 -0.433884 0
    outer loop
      vertex 42 -15 3.33067e-015
      vertex 41.247 -13.4363 2
      vertex 41.247 -13.4363 2.98347e-015
    endloop
  endfacet
  facet normal -0.900969 -0.433884 0
    outer loop
      vertex 41.247 -13.4363 2
      vertex 42 -15 3.33067e-015
      vertex 42 -15 2
    endloop
  endfacet
  facet normal -0.222521 -0.974928 0
    outer loop
      vertex 39.555 -13.0501 2
      vertex 41.247 -13.4363 2.98347e-015
      vertex 41.247 -13.4363 2
    endloop
  endfacet
  facet normal -0.222521 -0.974928 0
    outer loop
      vertex 41.247 -13.4363 2.98347e-015
      vertex 39.555 -13.0501 2
      vertex 39.555 -13.0501 2.89771e-015
    endloop
  endfacet
  facet normal -0.900969 0.433884 0
    outer loop
      vertex 42 -15 3.33067e-015
      vertex 41.247 -16.5637 2
      vertex 42 -15 2
    endloop
  endfacet
  facet normal -0.900969 0.433884 -4.13784e-007
    outer loop
      vertex 41.247 -16.5637 2
      vertex 42 -15 3.33067e-015
      vertex 41.247 -16.5637 3.67787e-015
    endloop
  endfacet
  facet normal 1 -0 0
    outer loop
      vertex 38.1981 -15.8678 2
      vertex 38.1981 -14.1322 3.13799e-015
      vertex 38.1981 -14.1322 2
    endloop
  endfacet
  facet normal 1 0 0
    outer loop
      vertex 38.1981 -14.1322 3.13799e-015
      vertex 38.1981 -15.8678 2
      vertex 38.1981 -15.8678 3.52335e-015
    endloop
  endfacet
  facet normal 0.62349 -0.781831 0
    outer loop
      vertex 38.1981 -14.1322 3.13799e-015
      vertex 39.555 -13.0501 2
      vertex 38.1981 -14.1322 2
    endloop
  endfacet
  facet normal 0.62349 -0.781831 0
    outer loop
      vertex 39.555 -13.0501 2
      vertex 38.1981 -14.1322 3.13799e-015
      vertex 39.555 -13.0501 2.89771e-015
    endloop
  endfacet
  facet normal -0.222522 0.974928 0
    outer loop
      vertex 41.247 -16.5637 2
      vertex 39.555 -16.9499 3.76362e-015
      vertex 39.555 -16.9499 2
    endloop
  endfacet
  facet normal -0.222521 0.974928 -9.29764e-007
    outer loop
      vertex 39.555 -16.9499 3.76362e-015
      vertex 41.247 -16.5637 2
      vertex 41.247 -16.5637 3.67787e-015
    endloop
  endfacet
  facet normal 0.62349 0.781831 -0
    outer loop
      vertex 39.555 -16.9499 3.76362e-015
      vertex 38.1981 -15.8678 2
      vertex 39.555 -16.9499 2
    endloop
  endfacet
  facet normal 0.62349 0.781831 0
    outer loop
      vertex 38.1981 -15.8678 2
      vertex 39.555 -16.9499 3.76362e-015
      vertex 38.1981 -15.8678 3.52335e-015
    endloop
  endfacet
  facet normal -0.900969 -0.433884 -0
    outer loop
      vertex 62 -15 1
      vertex 61.247 -13.4363 2.98347e-015
      vertex 62 -15 3.33067e-015
    endloop
  endfacet
  facet normal -0.900969 -0.433884 0
    outer loop
      vertex 61.247 -13.4363 2.98347e-015
      vertex 62 -15 1
      vertex 61.247 -13.4363 2
    endloop
  endfacet
  facet normal -0.900969 -0.433884 0
    outer loop
      vertex 61.247 -13.4363 2
      vertex 62 -15 1
      vertex 62 -15 2
    endloop
  endfacet
  facet normal -0.222521 -0.974928 0
    outer loop
      vertex 59.555 -13.0501 2
      vertex 61.247 -13.4363 2.98347e-015
      vertex 61.247 -13.4363 2
    endloop
  endfacet
  facet normal -0.222521 -0.974928 0
    outer loop
      vertex 61.247 -13.4363 2.98347e-015
      vertex 59.555 -13.0501 2
      vertex 59.555 -13.0501 2.89771e-015
    endloop
  endfacet
  facet normal 1 -0 0
    outer loop
      vertex 58.1981 -15.8678 2
      vertex 58.1981 -14.1322 3.13799e-015
      vertex 58.1981 -14.1322 2
    endloop
  endfacet
  facet normal 1 0 0
    outer loop
      vertex 58.1981 -14.1322 3.13799e-015
      vertex 58.1981 -15.8678 2
      vertex 58.1981 -15.8678 3.52335e-015
    endloop
  endfacet
  facet normal 0.62349 -0.781831 0
    outer loop
      vertex 58.1981 -14.1322 3.13799e-015
      vertex 59.555 -13.0501 2
      vertex 58.1981 -14.1322 2
    endloop
  endfacet
  facet normal 0.62349 -0.781831 0
    outer loop
      vertex 59.555 -13.0501 2
      vertex 58.1981 -14.1322 3.13799e-015
      vertex 59.555 -13.0501 2.89771e-015
    endloop
  endfacet
  facet normal -0.222522 0.974928 0
    outer loop
      vertex 61.247 -16.5637 2
      vertex 59.555 -16.9499 3.76362e-015
      vertex 59.555 -16.9499 2
    endloop
  endfacet
  facet normal -0.222521 0.974928 -9.29764e-007
    outer loop
      vertex 59.555 -16.9499 3.76362e-015
      vertex 61.247 -16.5637 2
      vertex 61.247 -16.5637 3.67787e-015
    endloop
  endfacet
  facet normal 0.62349 0.781831 -0
    outer loop
      vertex 59.555 -16.9499 3.76362e-015
      vertex 58.1981 -15.8678 2
      vertex 59.555 -16.9499 2
    endloop
  endfacet
  facet normal 0.62349 0.781831 0
    outer loop
      vertex 58.1981 -15.8678 2
      vertex 59.555 -16.9499 3.76362e-015
      vertex 58.1981 -15.8678 3.52335e-015
    endloop
  endfacet
  facet normal -0.900969 0.433884 0
    outer loop
      vertex 61.247 -16.5637 3.67787e-015
      vertex 62 -15 1
      vertex 62 -15 3.33067e-015
    endloop
  endfacet
  facet normal -0.900969 0.433884 0
    outer loop
      vertex 62 -15 1
      vertex 61.247 -16.5637 2
      vertex 62 -15 2
    endloop
  endfacet
  facet normal -0.900969 0.433884 -4.13784e-007
    outer loop
      vertex 62 -15 1
      vertex 61.247 -16.5637 3.67787e-015
      vertex 61.247 -16.5637 2
    endloop
  endfacet
  facet normal 1 0 0
    outer loop
      vertex 2 10 10
      vertex 2 7.85317 5.92705
      vertex 2 10 -2.22045e-015
    endloop
  endfacet
  facet normal 1 0 0
    outer loop
      vertex 2 10 10
      vertex 2 6.76336 7.42705
      vertex 2 7.85317 5.92705
    endloop
  endfacet
  facet normal 1 0 0
    outer loop
      vertex 2 10 10
      vertex 2 5 8
      vertex 2 6.76336 7.42705
    endloop
  endfacet
  facet normal 1 -0 0
    outer loop
      vertex 2 2.22045e-015 10
      vertex 2 5 8
      vertex 2 10 10
    endloop
  endfacet
  facet normal 1 0 0
    outer loop
      vertex 2 2.14683 5.92705
      vertex 2 2.22045e-015 10
      vertex 2 2.14683 4.07295
    endloop
  endfacet
  facet normal 1 0 0
    outer loop
      vertex 2 3.23664 7.42705
      vertex 2 2.22045e-015 10
      vertex 2 2.14683 5.92705
    endloop
  endfacet
  facet normal 1 0 0
    outer loop
      vertex 2 5 8
      vertex 2 2.22045e-015 10
      vertex 2 3.23664 7.42705
    endloop
  endfacet
  facet normal 1 -0 0
    outer loop
      vertex 2 7.85317 4.07295
      vertex 2 10 -2.22045e-015
      vertex 2 7.85317 5.92705
    endloop
  endfacet
  facet normal 1 -0 0
    outer loop
      vertex 2 6.76336 2.57295
      vertex 2 10 -2.22045e-015
      vertex 2 7.85317 4.07295
    endloop
  endfacet
  facet normal 1 -0 0
    outer loop
      vertex 2 5 2
      vertex 2 10 -2.22045e-015
      vertex 2 6.76336 2.57295
    endloop
  endfacet
  facet normal 1 0 0
    outer loop
      vertex 2 0 0
      vertex 2 5 2
      vertex 2 3.23664 2.57295
    endloop
  endfacet
  facet normal 1 0 0
    outer loop
      vertex 2 5 2
      vertex 2 0 0
      vertex 2 10 -2.22045e-015
    endloop
  endfacet
  facet normal 1 0 0
    outer loop
      vertex 2 2.14683 4.07295
      vertex 2 0 0
      vertex 2 3.23664 2.57295
    endloop
  endfacet
  facet normal 1 0 0
    outer loop
      vertex 2 0 0
      vertex 2 2.14683 4.07295
      vertex 2 2.22045e-015 10
    endloop
  endfacet
  facet normal 0 1 -0
    outer loop
      vertex 2 10 -2.22045e-015
      vertex 2.22045e-015 10 10
      vertex 2 10 10
    endloop
  endfacet
  facet normal 0 1 0
    outer loop
      vertex 2.22045e-015 10 10
      vertex 2 10 -2.22045e-015
      vertex 2.22045e-015 10 -2.22045e-015
    endloop
  endfacet
  facet normal -0 0 1
    outer loop
      vertex 2.22045e-015 10 10
      vertex 2 2.22045e-015 10
      vertex 2 10 10
    endloop
  endfacet
  facet normal 0 0 1
    outer loop
      vertex 2 2.22045e-015 10
      vertex 2.22045e-015 10 10
      vertex 0 2.22045e-015 10
    endloop
  endfacet
  facet normal -1 2.22045e-016 0
    outer loop
      vertex 2.22045e-015 10 -2.22045e-015
      vertex 1.74375e-015 7.85317 4.07295
      vertex 2.22045e-015 10 10
    endloop
  endfacet
  facet normal -1 2.22045e-016 0
    outer loop
      vertex 2.22045e-015 10 -2.22045e-015
      vertex 1.50177e-015 6.76336 2.57295
      vertex 1.74375e-015 7.85317 4.07295
    endloop
  endfacet
  facet normal -1 2.22045e-016 0
    outer loop
      vertex 2.22045e-015 10 -2.22045e-015
      vertex 1.11022e-015 5 2
      vertex 1.50177e-015 6.76336 2.57295
    endloop
  endfacet
  facet normal -1 2.22045e-016 0
    outer loop
      vertex 0 0 0
      vertex 1.11022e-015 5 2
      vertex 2.22045e-015 10 -2.22045e-015
    endloop
  endfacet
  facet normal -1 2.22045e-016 0
    outer loop
      vertex 4.76692e-016 2.14683 4.07295
      vertex 0 2.22045e-015 10
      vertex 4.76692e-016 2.14683 5.92705
    endloop
  endfacet
  facet normal -1 2.22045e-016 -4.59317e-032
    outer loop
      vertex 4.76692e-016 2.14683 4.07295
      vertex 0 0 0
      vertex 0 2.22045e-015 10
    endloop
  endfacet
  facet normal -1 2.22045e-016 0
    outer loop
      vertex 7.18679e-016 3.23664 2.57295
      vertex 0 0 0
      vertex 4.76692e-016 2.14683 4.07295
    endloop
  endfacet
  facet normal -1 2.22045e-016 0
    outer loop
      vertex 1.11022e-015 5 2
      vertex 0 0 0
      vertex 7.18679e-016 3.23664 2.57295
    endloop
  endfacet
  facet normal -1 2.22045e-016 0
    outer loop
      vertex 1.74375e-015 7.85317 5.92705
      vertex 2.22045e-015 10 10
      vertex 1.74375e-015 7.85317 4.07295
    endloop
  endfacet
  facet normal -1 2.22045e-016 0
    outer loop
      vertex 1.50177e-015 6.76336 7.42705
      vertex 2.22045e-015 10 10
      vertex 1.74375e-015 7.85317 5.92705
    endloop
  endfacet
  facet normal -1 2.22045e-016 0
    outer loop
      vertex 1.11022e-015 5 8
      vertex 2.22045e-015 10 10
      vertex 1.50177e-015 6.76336 7.42705
    endloop
  endfacet
  facet normal -1 2.22045e-016 -1.23424e-031
    outer loop
      vertex 0 2.22045e-015 10
      vertex 1.11022e-015 5 8
      vertex 7.18679e-016 3.23664 7.42705
    endloop
  endfacet
  facet normal -1 2.22045e-016 -7.88861e-032
    outer loop
      vertex 1.11022e-015 5 8
      vertex 0 2.22045e-015 10
      vertex 2.22045e-015 10 10
    endloop
  endfacet
  facet normal -1 2.22045e-016 -7.72484e-032
    outer loop
      vertex 0 2.22045e-015 10
      vertex 7.18679e-016 3.23664 7.42705
      vertex 4.76692e-016 2.14683 5.92705
    endloop
  endfacet
  facet normal 0 0.309017 -0.951056
    outer loop
      vertex 2 3.23664 7.42705
      vertex 1.11022e-015 5 8
      vertex 2 5 8
    endloop
  endfacet
  facet normal 0 0.309017 -0.951056
    outer loop
      vertex 1.11022e-015 5 8
      vertex 2 3.23664 7.42705
      vertex 7.18679e-016 3.23664 7.42705
    endloop
  endfacet
  facet normal 0 1 -0
    outer loop
      vertex 2 2.14683 4.07295
      vertex 4.76692e-016 2.14683 5.92705
      vertex 2 2.14683 5.92705
    endloop
  endfacet
  facet normal 0 1 0
    outer loop
      vertex 4.76692e-016 2.14683 5.92705
      vertex 2 2.14683 4.07295
      vertex 4.76692e-016 2.14683 4.07295
    endloop
  endfacet
  facet normal 0 0.809017 -0.587785
    outer loop
      vertex 2 2.14683 5.92705
      vertex 7.18679e-016 3.23664 7.42705
      vertex 2 3.23664 7.42705
    endloop
  endfacet
  facet normal 0 0.809017 -0.587785
    outer loop
      vertex 7.18679e-016 3.23664 7.42705
      vertex 2 2.14683 5.92705
      vertex 4.76692e-016 2.14683 5.92705
    endloop
  endfacet
  facet normal 0 0.809017 0.587785
    outer loop
      vertex 2 3.23664 2.57295
      vertex 4.76692e-016 2.14683 4.07295
      vertex 2 2.14683 4.07295
    endloop
  endfacet
  facet normal 0 0.809017 0.587785
    outer loop
      vertex 4.76692e-016 2.14683 4.07295
      vertex 2 3.23664 2.57295
      vertex 7.18679e-016 3.23664 2.57295
    endloop
  endfacet
  facet normal 0 -0.809017 -0.587785
    outer loop
      vertex 1.74375e-015 7.85317 5.92705
      vertex 2 6.76336 7.42705
      vertex 1.50177e-015 6.76336 7.42705
    endloop
  endfacet
  facet normal 0 -0.809017 -0.587785
    outer loop
      vertex 2 6.76336 7.42705
      vertex 1.74375e-015 7.85317 5.92705
      vertex 2 7.85317 5.92705
    endloop
  endfacet
  facet normal 0 -0.809017 0.587785
    outer loop
      vertex 1.50177e-015 6.76336 2.57295
      vertex 2 7.85317 4.07295
      vertex 1.74375e-015 7.85317 4.07295
    endloop
  endfacet
  facet normal 0 -0.809017 0.587785
    outer loop
      vertex 2 7.85317 4.07295
      vertex 1.50177e-015 6.76336 2.57295
      vertex 2 6.76336 2.57295
    endloop
  endfacet
  facet normal -0 0.309017 0.951057
    outer loop
      vertex 1.11022e-015 5 2
      vertex 2 3.23664 2.57295
      vertex 2 5 2
    endloop
  endfacet
  facet normal 0 0.309017 0.951057
    outer loop
      vertex 2 3.23664 2.57295
      vertex 1.11022e-015 5 2
      vertex 7.18679e-016 3.23664 2.57295
    endloop
  endfacet
  facet normal 0 -0.309017 -0.951056
    outer loop
      vertex 2 5 8
      vertex 1.50177e-015 6.76336 7.42705
      vertex 2 6.76336 7.42705
    endloop
  endfacet
  facet normal 0 -0.309017 -0.951056
    outer loop
      vertex 1.50177e-015 6.76336 7.42705
      vertex 2 5 8
      vertex 1.11022e-015 5 8
    endloop
  endfacet
  facet normal 0 -1 0
    outer loop
      vertex 1.74375e-015 7.85317 4.07295
      vertex 2 7.85317 5.92705
      vertex 1.74375e-015 7.85317 5.92705
    endloop
  endfacet
  facet normal 0 -1 -0
    outer loop
      vertex 2 7.85317 5.92705
      vertex 1.74375e-015 7.85317 4.07295
      vertex 2 7.85317 4.07295
    endloop
  endfacet
  facet normal 0 -0.309017 0.951057
    outer loop
      vertex 1.50177e-015 6.76336 2.57295
      vertex 2 5 2
      vertex 2 6.76336 2.57295
    endloop
  endfacet
  facet normal 0 -0.309017 0.951057
    outer loop
      vertex 2 5 2
      vertex 1.50177e-015 6.76336 2.57295
      vertex 1.11022e-015 5 2
    endloop
  endfacet
  facet normal 1 0 0
    outer loop
      vertex 41 10 10
      vertex 41 7.85317 5.92705
      vertex 41 10 -2.22045e-015
    endloop
  endfacet
  facet normal 1 0 0
    outer loop
      vertex 41 10 10
      vertex 41 6.76336 7.42705
      vertex 41 7.85317 5.92705
    endloop
  endfacet
  facet normal 1 0 0
    outer loop
      vertex 41 10 10
      vertex 41 5 8
      vertex 41 6.76336 7.42705
    endloop
  endfacet
  facet normal 1 -0 0
    outer loop
      vertex 41 2.22045e-015 10
      vertex 41 5 8
      vertex 41 10 10
    endloop
  endfacet
  facet normal 1 0 0
    outer loop
      vertex 41 2.14683 5.92705
      vertex 41 2.22045e-015 10
      vertex 41 2.14683 4.07295
    endloop
  endfacet
  facet normal 1 0 0
    outer loop
      vertex 41 3.23664 7.42705
      vertex 41 2.22045e-015 10
      vertex 41 2.14683 5.92705
    endloop
  endfacet
  facet normal 1 0 0
    outer loop
      vertex 41 5 8
      vertex 41 2.22045e-015 10
      vertex 41 3.23664 7.42705
    endloop
  endfacet
  facet normal 1 -0 0
    outer loop
      vertex 41 7.85317 4.07295
      vertex 41 10 -2.22045e-015
      vertex 41 7.85317 5.92705
    endloop
  endfacet
  facet normal 1 -0 0
    outer loop
      vertex 41 6.76336 2.57295
      vertex 41 10 -2.22045e-015
      vertex 41 7.85317 4.07295
    endloop
  endfacet
  facet normal 1 -0 0
    outer loop
      vertex 41 5 2
      vertex 41 10 -2.22045e-015
      vertex 41 6.76336 2.57295
    endloop
  endfacet
  facet normal 1 0 0
    outer loop
      vertex 41 0 0
      vertex 41 5 2
      vertex 41 3.23664 2.57295
    endloop
  endfacet
  facet normal 1 0 0
    outer loop
      vertex 41 5 2
      vertex 41 0 0
      vertex 41 10 -2.22045e-015
    endloop
  endfacet
  facet normal 1 0 0
    outer loop
      vertex 41 2.14683 4.07295
      vertex 41 0 0
      vertex 41 3.23664 2.57295
    endloop
  endfacet
  facet normal 1 0 0
    outer loop
      vertex 41 0 0
      vertex 41 2.14683 4.07295
      vertex 41 2.22045e-015 10
    endloop
  endfacet
  facet normal 0 1 -0
    outer loop
      vertex 41 10 -2.22045e-015
      vertex 39 10 10
      vertex 41 10 10
    endloop
  endfacet
  facet normal 0 1 0
    outer loop
      vertex 39 10 10
      vertex 41 10 -2.22045e-015
      vertex 39 10 -2.22045e-015
    endloop
  endfacet
  facet normal -0 0 1
    outer loop
      vertex 39 10 10
      vertex 41 2.22045e-015 10
      vertex 41 10 10
    endloop
  endfacet
  facet normal 0 0 1
    outer loop
      vertex 41 2.22045e-015 10
      vertex 39 10 10
      vertex 39 2.22045e-015 10
    endloop
  endfacet
  facet normal -1 0 0
    outer loop
      vertex 39 10 -2.22045e-015
      vertex 39 7.85317 4.07295
      vertex 39 10 10
    endloop
  endfacet
  facet normal -1 0 0
    outer loop
      vertex 39 10 -2.22045e-015
      vertex 39 6.76336 2.57295
      vertex 39 7.85317 4.07295
    endloop
  endfacet
  facet normal -1 0 0
    outer loop
      vertex 39 10 -2.22045e-015
      vertex 39 5 2
      vertex 39 6.76336 2.57295
    endloop
  endfacet
  facet normal -1 0 0
    outer loop
      vertex 39 0 0
      vertex 39 5 2
      vertex 39 10 -2.22045e-015
    endloop
  endfacet
  facet normal -1 0 0
    outer loop
      vertex 39 2.14683 4.07295
      vertex 39 2.22045e-015 10
      vertex 39 2.14683 5.92705
    endloop
  endfacet
  facet normal -1 -0 0
    outer loop
      vertex 39 2.14683 4.07295
      vertex 39 0 0
      vertex 39 2.22045e-015 10
    endloop
  endfacet
  facet normal -1 -0 0
    outer loop
      vertex 39 3.23664 2.57295
      vertex 39 0 0
      vertex 39 2.14683 4.07295
    endloop
  endfacet
  facet normal -1 -0 0
    outer loop
      vertex 39 5 2
      vertex 39 0 0
      vertex 39 3.23664 2.57295
    endloop
  endfacet
  facet normal -1 0 0
    outer loop
      vertex 39 7.85317 5.92705
      vertex 39 10 10
      vertex 39 7.85317 4.07295
    endloop
  endfacet
  facet normal -1 0 0
    outer loop
      vertex 39 6.76336 7.42705
      vertex 39 10 10
      vertex 39 7.85317 5.92705
    endloop
  endfacet
  facet normal -1 0 0
    outer loop
      vertex 39 5 8
      vertex 39 10 10
      vertex 39 6.76336 7.42705
    endloop
  endfacet
  facet normal -1 0 0
    outer loop
      vertex 39 2.22045e-015 10
      vertex 39 5 8
      vertex 39 3.23664 7.42705
    endloop
  endfacet
  facet normal -1 0 0
    outer loop
      vertex 39 5 8
      vertex 39 2.22045e-015 10
      vertex 39 10 10
    endloop
  endfacet
  facet normal -1 0 0
    outer loop
      vertex 39 2.22045e-015 10
      vertex 39 3.23664 7.42705
      vertex 39 2.14683 5.92705
    endloop
  endfacet
  facet normal 0 0.309017 -0.951056
    outer loop
      vertex 39 3.23664 7.42705
      vertex 41 5 8
      vertex 41 3.23664 7.42705
    endloop
  endfacet
  facet normal 0 0.309017 -0.951056
    outer loop
      vertex 41 5 8
      vertex 39 3.23664 7.42705
      vertex 39 5 8
    endloop
  endfacet
  facet normal 0 1 -0
    outer loop
      vertex 41 2.14683 4.07295
      vertex 39 2.14683 5.92705
      vertex 41 2.14683 5.92705
    endloop
  endfacet
  facet normal 0 1 0
    outer loop
      vertex 39 2.14683 5.92705
      vertex 41 2.14683 4.07295
      vertex 39 2.14683 4.07295
    endloop
  endfacet
  facet normal 0 0.809017 -0.587785
    outer loop
      vertex 41 2.14683 5.92705
      vertex 39 3.23664 7.42705
      vertex 41 3.23664 7.42705
    endloop
  endfacet
  facet normal 0 0.809017 -0.587785
    outer loop
      vertex 39 3.23664 7.42705
      vertex 41 2.14683 5.92705
      vertex 39 2.14683 5.92705
    endloop
  endfacet
  facet normal 0 0.809017 0.587785
    outer loop
      vertex 41 3.23664 2.57295
      vertex 39 2.14683 4.07295
      vertex 41 2.14683 4.07295
    endloop
  endfacet
  facet normal 0 0.809017 0.587785
    outer loop
      vertex 39 2.14683 4.07295
      vertex 41 3.23664 2.57295
      vertex 39 3.23664 2.57295
    endloop
  endfacet
  facet normal 0 -0.809017 -0.587785
    outer loop
      vertex 39 7.85317 5.92705
      vertex 41 6.76336 7.42705
      vertex 39 6.76336 7.42705
    endloop
  endfacet
  facet normal 0 -0.809017 -0.587785
    outer loop
      vertex 41 6.76336 7.42705
      vertex 39 7.85317 5.92705
      vertex 41 7.85317 5.92705
    endloop
  endfacet
  facet normal 0 -0.809017 0.587785
    outer loop
      vertex 39 6.76336 2.57295
      vertex 41 7.85317 4.07295
      vertex 39 7.85317 4.07295
    endloop
  endfacet
  facet normal 0 -0.809017 0.587785
    outer loop
      vertex 41 7.85317 4.07295
      vertex 39 6.76336 2.57295
      vertex 41 6.76336 2.57295
    endloop
  endfacet
  facet normal -0 0.309017 0.951057
    outer loop
      vertex 39 5 2
      vertex 41 3.23664 2.57295
      vertex 41 5 2
    endloop
  endfacet
  facet normal 0 0.309017 0.951057
    outer loop
      vertex 41 3.23664 2.57295
      vertex 39 5 2
      vertex 39 3.23664 2.57295
    endloop
  endfacet
  facet normal 0 -0.309017 -0.951056
    outer loop
      vertex 39 5 8
      vertex 41 6.76336 7.42705
      vertex 41 5 8
    endloop
  endfacet
  facet normal -0 -0.309017 -0.951056
    outer loop
      vertex 41 6.76336 7.42705
      vertex 39 5 8
      vertex 39 6.76336 7.42705
    endloop
  endfacet
  facet normal 0 -1 0
    outer loop
      vertex 39 7.85317 4.07295
      vertex 41 7.85317 5.92705
      vertex 39 7.85317 5.92705
    endloop
  endfacet
  facet normal 0 -1 -0
    outer loop
      vertex 41 7.85317 5.92705
      vertex 39 7.85317 4.07295
      vertex 41 7.85317 4.07295
    endloop
  endfacet
  facet normal 0 -0.309017 0.951057
    outer loop
      vertex 39 6.76336 2.57295
      vertex 41 5 2
      vertex 41 6.76336 2.57295
    endloop
  endfacet
  facet normal 0 -0.309017 0.951057
    outer loop
      vertex 41 5 2
      vertex 39 6.76336 2.57295
      vertex 39 5 2
    endloop
  endfacet
  facet normal 1 0 0
    outer loop
      vertex 80 10 10
      vertex 80 7.85317 5.92705
      vertex 80 10 -2.22045e-015
    endloop
  endfacet
  facet normal 1 0 0
    outer loop
      vertex 80 10 10
      vertex 80 6.76336 7.42705
      vertex 80 7.85317 5.92705
    endloop
  endfacet
  facet normal 1 0 0
    outer loop
      vertex 80 10 10
      vertex 80 5 8
      vertex 80 6.76336 7.42705
    endloop
  endfacet
  facet normal 1 -0 0
    outer loop
      vertex 80 1.77636e-015 10
      vertex 80 5 8
      vertex 80 10 10
    endloop
  endfacet
  facet normal 1 0 0
    outer loop
      vertex 80 2.14683 5.92705
      vertex 80 1.77636e-015 10
      vertex 80 2.14683 4.07295
    endloop
  endfacet
  facet normal 1 0 0
    outer loop
      vertex 80 3.23664 7.42705
      vertex 80 1.77636e-015 10
      vertex 80 2.14683 5.92705
    endloop
  endfacet
  facet normal 1 0 0
    outer loop
      vertex 80 5 8
      vertex 80 1.77636e-015 10
      vertex 80 3.23664 7.42705
    endloop
  endfacet
  facet normal 1 -0 0
    outer loop
      vertex 80 7.85317 4.07295
      vertex 80 10 -2.22045e-015
      vertex 80 7.85317 5.92705
    endloop
  endfacet
  facet normal 1 -0 0
    outer loop
      vertex 80 6.76336 2.57295
      vertex 80 10 -2.22045e-015
      vertex 80 7.85317 4.07295
    endloop
  endfacet
  facet normal 1 -0 0
    outer loop
      vertex 80 5 2
      vertex 80 10 -2.22045e-015
      vertex 80 6.76336 2.57295
    endloop
  endfacet
  facet normal 1 0 0
    outer loop
      vertex 80 -4.44089e-016 9.86076e-032
      vertex 80 5 2
      vertex 80 3.23664 2.57295
    endloop
  endfacet
  facet normal 1 0 0
    outer loop
      vertex 80 5 2
      vertex 80 -4.44089e-016 9.86076e-032
      vertex 80 10 -2.22045e-015
    endloop
  endfacet
  facet normal 1 0 0
    outer loop
      vertex 80 2.14683 4.07295
      vertex 80 -4.44089e-016 9.86076e-032
      vertex 80 3.23664 2.57295
    endloop
  endfacet
  facet normal 1 0 0
    outer loop
      vertex 80 -4.44089e-016 9.86076e-032
      vertex 80 2.14683 4.07295
      vertex 80 1.77636e-015 10
    endloop
  endfacet
  facet normal 0 1 -0
    outer loop
      vertex 80 10 -2.22045e-015
      vertex 78 10 10
      vertex 80 10 10
    endloop
  endfacet
  facet normal 0 1 0
    outer loop
      vertex 78 10 10
      vertex 80 10 -2.22045e-015
      vertex 78 10 -2.22045e-015
    endloop
  endfacet
  facet normal -0 0 1
    outer loop
      vertex 78 10 10
      vertex 80 2.22045e-015 10
      vertex 80 10 10
    endloop
  endfacet
  facet normal 0 0 1
    outer loop
      vertex 80 2.22045e-015 10
      vertex 78 10 10
      vertex 78 2.22045e-015 10
    endloop
  endfacet
  facet normal 0 0 0
    outer loop
      vertex 80 10 10
      vertex 80 2.22045e-015 10
      vertex 80 1.77636e-015 10
    endloop
  endfacet
  facet normal -1 0 0
    outer loop
      vertex 78 10 -2.22045e-015
      vertex 78 7.85317 4.07295
      vertex 78 10 10
    endloop
  endfacet
  facet normal -1 0 0
    outer loop
      vertex 78 10 -2.22045e-015
      vertex 78 6.76336 2.57295
      vertex 78 7.85317 4.07295
    endloop
  endfacet
  facet normal -1 0 0
    outer loop
      vertex 78 10 -2.22045e-015
      vertex 78 5 2
      vertex 78 6.76336 2.57295
    endloop
  endfacet
  facet normal -1 0 0
    outer loop
      vertex 78 0 0
      vertex 78 5 2
      vertex 78 10 -2.22045e-015
    endloop
  endfacet
  facet normal -1 0 0
    outer loop
      vertex 78 2.14683 4.07295
      vertex 78 2.22045e-015 10
      vertex 78 2.14683 5.92705
    endloop
  endfacet
  facet normal -1 -0 0
    outer loop
      vertex 78 2.14683 4.07295
      vertex 78 0 0
      vertex 78 2.22045e-015 10
    endloop
  endfacet
  facet normal -1 -0 0
    outer loop
      vertex 78 3.23664 2.57295
      vertex 78 0 0
      vertex 78 2.14683 4.07295
    endloop
  endfacet
  facet normal -1 -0 0
    outer loop
      vertex 78 5 2
      vertex 78 0 0
      vertex 78 3.23664 2.57295
    endloop
  endfacet
  facet normal -1 0 0
    outer loop
      vertex 78 7.85317 5.92705
      vertex 78 10 10
      vertex 78 7.85317 4.07295
    endloop
  endfacet
  facet normal -1 0 0
    outer loop
      vertex 78 6.76336 7.42705
      vertex 78 10 10
      vertex 78 7.85317 5.92705
    endloop
  endfacet
  facet normal -1 0 0
    outer loop
      vertex 78 5 8
      vertex 78 10 10
      vertex 78 6.76336 7.42705
    endloop
  endfacet
  facet normal -1 0 0
    outer loop
      vertex 78 2.22045e-015 10
      vertex 78 5 8
      vertex 78 3.23664 7.42705
    endloop
  endfacet
  facet normal -1 0 0
    outer loop
      vertex 78 5 8
      vertex 78 2.22045e-015 10
      vertex 78 10 10
    endloop
  endfacet
  facet normal -1 0 0
    outer loop
      vertex 78 2.22045e-015 10
      vertex 78 3.23664 7.42705
      vertex 78 2.14683 5.92705
    endloop
  endfacet
  facet normal 0 0.309017 -0.951056
    outer loop
      vertex 78 3.23664 7.42705
      vertex 80 5 8
      vertex 80 3.23664 7.42705
    endloop
  endfacet
  facet normal 0 0.309017 -0.951056
    outer loop
      vertex 80 5 8
      vertex 78 3.23664 7.42705
      vertex 78 5 8
    endloop
  endfacet
  facet normal 0 1 -0
    outer loop
      vertex 80 2.14683 4.07295
      vertex 78 2.14683 5.92705
      vertex 80 2.14683 5.92705
    endloop
  endfacet
  facet normal 0 1 0
    outer loop
      vertex 78 2.14683 5.92705
      vertex 80 2.14683 4.07295
      vertex 78 2.14683 4.07295
    endloop
  endfacet
  facet normal 0 0.809017 -0.587785
    outer loop
      vertex 80 2.14683 5.92705
      vertex 78 3.23664 7.42705
      vertex 80 3.23664 7.42705
    endloop
  endfacet
  facet normal 0 0.809017 -0.587785
    outer loop
      vertex 78 3.23664 7.42705
      vertex 80 2.14683 5.92705
      vertex 78 2.14683 5.92705
    endloop
  endfacet
  facet normal 0 0.809017 0.587785
    outer loop
      vertex 80 3.23664 2.57295
      vertex 78 2.14683 4.07295
      vertex 80 2.14683 4.07295
    endloop
  endfacet
  facet normal 0 0.809017 0.587785
    outer loop
      vertex 78 2.14683 4.07295
      vertex 80 3.23664 2.57295
      vertex 78 3.23664 2.57295
    endloop
  endfacet
  facet normal 0 -0.809017 -0.587785
    outer loop
      vertex 78 7.85317 5.92705
      vertex 80 6.76336 7.42705
      vertex 78 6.76336 7.42705
    endloop
  endfacet
  facet normal 0 -0.809017 -0.587785
    outer loop
      vertex 80 6.76336 7.42705
      vertex 78 7.85317 5.92705
      vertex 80 7.85317 5.92705
    endloop
  endfacet
  facet normal 0 -0.809017 0.587785
    outer loop
      vertex 78 6.76336 2.57295
      vertex 80 7.85317 4.07295
      vertex 78 7.85317 4.07295
    endloop
  endfacet
  facet normal 0 -0.809017 0.587785
    outer loop
      vertex 80 7.85317 4.07295
      vertex 78 6.76336 2.57295
      vertex 80 6.76336 2.57295
    endloop
  endfacet
  facet normal -0 0.309017 0.951057
    outer loop
      vertex 78 5 2
      vertex 80 3.23664 2.57295
      vertex 80 5 2
    endloop
  endfacet
  facet normal 0 0.309017 0.951057
    outer loop
      vertex 80 3.23664 2.57295
      vertex 78 5 2
      vertex 78 3.23664 2.57295
    endloop
  endfacet
  facet normal 0 -0.309017 -0.951056
    outer loop
      vertex 78 5 8
      vertex 80 6.76336 7.42705
      vertex 80 5 8
    endloop
  endfacet
  facet normal -0 -0.309017 -0.951056
    outer loop
      vertex 80 6.76336 7.42705
      vertex 78 5 8
      vertex 78 6.76336 7.42705
    endloop
  endfacet
  facet normal 0 -1 0
    outer loop
      vertex 78 7.85317 4.07295
      vertex 80 7.85317 5.92705
      vertex 78 7.85317 5.92705
    endloop
  endfacet
  facet normal 0 -1 -0
    outer loop
      vertex 80 7.85317 5.92705
      vertex 78 7.85317 4.07295
      vertex 80 7.85317 4.07295
    endloop
  endfacet
  facet normal 0 -0.309017 0.951057
    outer loop
      vertex 78 6.76336 2.57295
      vertex 80 5 2
      vertex 80 6.76336 2.57295
    endloop
  endfacet
  facet normal 0 -0.309017 0.951057
    outer loop
      vertex 80 5 2
      vertex 78 6.76336 2.57295
      vertex 78 5 2
    endloop
  endfacet
  facet normal -1 0 0
    outer loop
      vertex 62 -2.88658e-015 -13
      vertex 62 -13 -11
      vertex 62 -2 -11
    endloop
  endfacet
  facet normal -1 -0 0
    outer loop
      vertex 62 -13 -11
      vertex 62 -15 -13
      vertex 62 -13 -2
    endloop
  endfacet
  facet normal -1 0 0
    outer loop
      vertex 62 -15 -13
      vertex 62 -13 -11
      vertex 62 -2.88658e-015 -13
    endloop
  endfacet
  facet normal -1 0 0
    outer loop
      vertex 62 -2 -11
      vertex 62 0 0
      vertex 62 -2.88658e-015 -13
    endloop
  endfacet
  facet normal -1 0 0
    outer loop
      vertex 62 -2 -2
      vertex 62 0 0
      vertex 62 -2 -11
    endloop
  endfacet
  facet normal -1 0 0
    outer loop
      vertex 62 -13 -2
      vertex 62 0 0
      vertex 62 -2 -2
    endloop
  endfacet
  facet normal -1 0 0
    outer loop
      vertex 62 -13 -2
      vertex 62 -15 3.33067e-015
      vertex 62 0 0
    endloop
  endfacet
  facet normal -1 0 0
    outer loop
      vertex 62 -15 3.33067e-015
      vertex 62 -13 -2
      vertex 62 -15 -13
    endloop
  endfacet
  facet normal 0 -1 0
    outer loop
      vertex 62 -15 -13
      vertex 66 -15 3.33067e-015
      vertex 62 -15 3.33067e-015
    endloop
  endfacet
  facet normal 0 -1 -0
    outer loop
      vertex 66 -15 3.33067e-015
      vertex 62 -15 -13
      vertex 66 -15 -13
    endloop
  endfacet
  facet normal 1 0 0
    outer loop
      vertex 66 0 0
      vertex 66 -2 -2
      vertex 66 -2.88658e-015 -13
    endloop
  endfacet
  facet normal 1 0 0
    outer loop
      vertex 66 0 0
      vertex 66 -13 -2
      vertex 66 -2 -2
    endloop
  endfacet
  facet normal 1 0 0
    outer loop
      vertex 66 -13 -2
      vertex 66 -15 3.33067e-015
      vertex 66 -13 -11
    endloop
  endfacet
  facet normal 1 0 0
    outer loop
      vertex 66 -15 3.33067e-015
      vertex 66 -13 -2
      vertex 66 0 0
    endloop
  endfacet
  facet normal 1 -0 0
    outer loop
      vertex 66 -2 -11
      vertex 66 -2.88658e-015 -13
      vertex 66 -2 -2
    endloop
  endfacet
  facet normal 1 -0 0
    outer loop
      vertex 66 -13 -11
      vertex 66 -2.88658e-015 -13
      vertex 66 -2 -11
    endloop
  endfacet
  facet normal 1 0 0
    outer loop
      vertex 66 -13 -11
      vertex 66 -15 -13
      vertex 66 -2.88658e-015 -13
    endloop
  endfacet
  facet normal 1 0 0
    outer loop
      vertex 66 -15 -13
      vertex 66 -13 -11
      vertex 66 -15 3.33067e-015
    endloop
  endfacet
  facet normal 0 0 -1
    outer loop
      vertex 62 -15 -13
      vertex 66 -2.88658e-015 -13
      vertex 66 -15 -13
    endloop
  endfacet
  facet normal -0 0 -1
    outer loop
      vertex 66 -2.88658e-015 -13
      vertex 62 -15 -13
      vertex 62 -2.88658e-015 -13
    endloop
  endfacet
  facet normal 0 1 -0
    outer loop
      vertex 66 -13 -11
      vertex 62 -13 -2
      vertex 66 -13 -2
    endloop
  endfacet
  facet normal 0 1 0
    outer loop
      vertex 62 -13 -2
      vertex 66 -13 -11
      vertex 62 -13 -11
    endloop
  endfacet
  facet normal 0 0 -1
    outer loop
      vertex 62 -13 -2
      vertex 66 -2 -2
      vertex 66 -13 -2
    endloop
  endfacet
  facet normal -0 0 -1
    outer loop
      vertex 66 -2 -2
      vertex 62 -13 -2
      vertex 62 -2 -2
    endloop
  endfacet
  facet normal 0 -1 0
    outer loop
      vertex 62 -2 -11
      vertex 66 -2 -2
      vertex 62 -2 -2
    endloop
  endfacet
  facet normal 0 -1 -0
    outer loop
      vertex 66 -2 -2
      vertex 62 -2 -11
      vertex 66 -2 -11
    endloop
  endfacet
  facet normal -0 0 1
    outer loop
      vertex 62 -2 -11
      vertex 66 -13 -11
      vertex 66 -2 -11
    endloop
  endfacet
  facet normal 0 0 1
    outer loop
      vertex 66 -13 -11
      vertex 62 -2 -11
      vertex 62 -13 -11
    endloop
  endfacet
  facet normal -1 0 0
    outer loop
      vertex 10 -29 -6
      vertex 10 -21 4.66294e-015
      vertex 10 -21 -6
    endloop
  endfacet
  facet normal -1 -0 0
    outer loop
      vertex 10 -21 4.66294e-015
      vertex 10 -29 -6
      vertex 10 -29 6.43929e-015
    endloop
  endfacet
  facet normal 0 -1 0
    outer loop
      vertex 10 -29 -6
      vertex 13 -29 6.43929e-015
      vertex 10 -29 6.43929e-015
    endloop
  endfacet
  facet normal 0 -1 -0
    outer loop
      vertex 13 -29 6.43929e-015
      vertex 10 -29 -6
      vertex 13 -29 -6
    endloop
  endfacet
  facet normal 1 0 0
    outer loop
      vertex 13 -29 6.43929e-015
      vertex 13 -21 -6
      vertex 13 -21 4.66294e-015
    endloop
  endfacet
  facet normal 1 0 0
    outer loop
      vertex 13 -21 -6
      vertex 13 -29 6.43929e-015
      vertex 13 -29 -6
    endloop
  endfacet
  facet normal 0 1 -0
    outer loop
      vertex 13 -21 -6
      vertex 10 -21 4.66294e-015
      vertex 13 -21 4.66294e-015
    endloop
  endfacet
  facet normal 0 1 0
    outer loop
      vertex 10 -21 4.66294e-015
      vertex 13 -21 -6
      vertex 10 -21 -6
    endloop
  endfacet
  facet normal 0 0 -1
    outer loop
      vertex 10 -29 -6
      vertex 13 -21 -6
      vertex 13 -29 -6
    endloop
  endfacet
  facet normal -0 0 -1
    outer loop
      vertex 13 -21 -6
      vertex 10 -29 -6
      vertex 10 -21 -6
    endloop
  endfacet
  facet normal -1 0 0
    outer loop
      vertex 30 -29 -6
      vertex 30 -21 4.66294e-015
      vertex 30 -21 -6
    endloop
  endfacet
  facet normal -1 -0 0
    outer loop
      vertex 30 -21 4.66294e-015
      vertex 30 -29 -6
      vertex 30 -29 6.43929e-015
    endloop
  endfacet
  facet normal 0 -1 0
    outer loop
      vertex 30 -29 -6
      vertex 33 -29 6.43929e-015
      vertex 30 -29 6.43929e-015
    endloop
  endfacet
  facet normal 0 -1 -0
    outer loop
      vertex 33 -29 6.43929e-015
      vertex 30 -29 -6
      vertex 33 -29 -6
    endloop
  endfacet
  facet normal 1 0 0
    outer loop
      vertex 33 -29 6.43929e-015
      vertex 33 -21 -6
      vertex 33 -21 4.66294e-015
    endloop
  endfacet
  facet normal 1 0 0
    outer loop
      vertex 33 -21 -6
      vertex 33 -29 6.43929e-015
      vertex 33 -29 -6
    endloop
  endfacet
  facet normal 0 1 -0
    outer loop
      vertex 33 -21 -6
      vertex 30 -21 4.66294e-015
      vertex 33 -21 4.66294e-015
    endloop
  endfacet
  facet normal 0 1 0
    outer loop
      vertex 30 -21 4.66294e-015
      vertex 33 -21 -6
      vertex 30 -21 -6
    endloop
  endfacet
  facet normal 0 0 -1
    outer loop
      vertex 30 -29 -6
      vertex 33 -21 -6
      vertex 33 -29 -6
    endloop
  endfacet
  facet normal -0 0 -1
    outer loop
      vertex 33 -21 -6
      vertex 30 -29 -6
      vertex 30 -21 -6
    endloop
  endfacet
  facet normal 0 -1 0
    outer loop
      vertex 0 -2 2
      vertex 80 -2 20
      vertex 0 -2 20
    endloop
  endfacet
  facet normal 0 -1 -0
    outer loop
      vertex 80 -2 20
      vertex 0 -2 2
      vertex 80 -2 2
    endloop
  endfacet
  facet normal -0 0 1
    outer loop
      vertex 0 4.44089e-015 20
      vertex 80 -2 20
      vertex 80 4.44089e-015 20
    endloop
  endfacet
  facet normal 0 0 1
    outer loop
      vertex 80 -2 20
      vertex 0 4.44089e-015 20
      vertex 0 -2 20
    endloop
  endfacet
endsolid OpenSCAD_Model
