solid OpenSCAD_Model
  facet normal -1 0 0
    outer loop
      vertex 0 0 0
      vertex 0 0 18
      vertex 0 27 0
    endloop
  endfacet
  facet normal -1 0 0
    outer loop
      vertex 0 11 14
      vertex 0 0 18
      vertex 0 11 18
    endloop
  endfacet
  facet normal -1 0 0
    outer loop
      vertex 0 27 0
      vertex 0 0 18
      vertex 0 11 14
    endloop
  endfacet
  facet normal -1 0 0
    outer loop
      vertex 0 27 0
      vertex 0 16 14
      vertex 0 16 18
    endloop
  endfacet
  facet normal -1 0 0
    outer loop
      vertex 0 27 0
      vertex 0 16 18
      vertex 0 27 18
    endloop
  endfacet
  facet normal -1 0 0
    outer loop
      vertex 0 16 14
      vertex 0 27 0
      vertex 0 11 14
    endloop
  endfacet
  facet normal 0 -1 0
    outer loop
      vertex 0 0 18
      vertex 0 0 0
      vertex 65 0 0
    endloop
  endfacet
  facet normal 0 -1 0
    outer loop
      vertex 63 0 2
      vertex 0 0 18
      vertex 65 0 0
    endloop
  endfacet
  facet normal 0 -1 0
    outer loop
      vertex 65 0 2
      vertex 64 0 2
      vertex 65 0 0
    endloop
  endfacet
  facet normal 0 -1 0
    outer loop
      vertex 64 0 2
      vertex 63 0 2
      vertex 65 0 0
    endloop
  endfacet
  facet normal 0 -1 0
    outer loop
      vertex 63 0 2
      vertex 63 0 18
      vertex 0 0 18
    endloop
  endfacet
  facet normal 0 0 -1
    outer loop
      vertex 0 0 0
      vertex 0 27 0
      vertex 65 0 0
    endloop
  endfacet
  facet normal 0 0 -1
    outer loop
      vertex 65 0 0
      vertex 0 27 0
      vertex 65 27 0
    endloop
  endfacet
  facet normal 0 1 0
    outer loop
      vertex 0 27 0
      vertex 0 27 18
      vertex 65 27 0
    endloop
  endfacet
  facet normal 0 1 0
    outer loop
      vertex 63 27 2
      vertex 0 27 18
      vertex 63 27 18
    endloop
  endfacet
  facet normal 0 1 0
    outer loop
      vertex 65 27 0
      vertex 0 27 18
      vertex 63 27 2
    endloop
  endfacet
  facet normal 0 1 0
    outer loop
      vertex 65 27 2
      vertex 65 27 0
      vertex 64 27 2
    endloop
  endfacet
  facet normal 0 1 0
    outer loop
      vertex 64 27 2
      vertex 65 27 0
      vertex 63 27 2
    endloop
  endfacet
  facet normal 0 0 1
    outer loop
      vertex 0 27 18
      vertex 0 16 18
      vertex 2 16 18
    endloop
  endfacet
  facet normal 0 0 1
    outer loop
      vertex 63 25 18
      vertex 0 27 18
      vertex 2 25 18
    endloop
  endfacet
  facet normal 0 0 1
    outer loop
      vertex 2 25 18
      vertex 0 27 18
      vertex 2 16 18
    endloop
  endfacet
  facet normal 0 0 1
    outer loop
      vertex 63 27 18
      vertex 0 27 18
      vertex 63 25 18
    endloop
  endfacet
  facet normal 0 -1 0
    outer loop
      vertex 2 16 14
      vertex 2 16 18
      vertex 0 16 18
    endloop
  endfacet
  facet normal 0 -1 0
    outer loop
      vertex 0 16 14
      vertex 2 16 14
      vertex 0 16 18
    endloop
  endfacet
  facet normal 0 0 1
    outer loop
      vertex 2 11 14
      vertex 2 16 14
      vertex 0 16 14
    endloop
  endfacet
  facet normal 0 0 1
    outer loop
      vertex 0 11 14
      vertex 2 11 14
      vertex 0 16 14
    endloop
  endfacet
  facet normal 0 1 0
    outer loop
      vertex 2 11 18
      vertex 2 11 14
      vertex 0 11 18
    endloop
  endfacet
  facet normal 0 1 0
    outer loop
      vertex 0 11 18
      vertex 2 11 14
      vertex 0 11 14
    endloop
  endfacet
  facet normal 0 0 1
    outer loop
      vertex 2 2 18
      vertex 0 0 18
      vertex 63 0 18
    endloop
  endfacet
  facet normal 0 0 1
    outer loop
      vertex 2 2 18
      vertex 2 11 18
      vertex 0 11 18
    endloop
  endfacet
  facet normal 0 0 1
    outer loop
      vertex 0 11 18
      vertex 0 0 18
      vertex 2 2 18
    endloop
  endfacet
  facet normal 0 0 1
    outer loop
      vertex 63 2 18
      vertex 2 2 18
      vertex 63 0 18
    endloop
  endfacet
  facet normal 1 0 0
    outer loop
      vertex 63 0 18
      vertex 63 0 2
      vertex 63 2.22045e-016 2
    endloop
  endfacet
  facet normal 1 0 0
    outer loop
      vertex 63 2 18
      vertex 63 0 18
      vertex 63 2.22045e-016 18
    endloop
  endfacet
  facet normal 1 0 0
    outer loop
      vertex 63 2.22045e-016 18
      vertex 63 0 18
      vertex 63 2.22045e-016 2
    endloop
  endfacet
  facet normal 0 0 1
    outer loop
      vertex 64 0 2
      vertex 63 2.22045e-016 2
      vertex 63 0 2
    endloop
  endfacet
  facet normal -2.22045e-016 -1 -4.93038e-032
    outer loop
      vertex 65 -2.22045e-016 18
      vertex 63 2.22045e-016 18
      vertex 63 2.22045e-016 2
    endloop
  endfacet
  facet normal -2.22045e-016 -1 -4.93038e-032
    outer loop
      vertex 65 -2.22045e-016 2
      vertex 65 -2.22045e-016 18
      vertex 64 0 2
    endloop
  endfacet
  facet normal -2.22045e-016 -1 -4.93038e-032
    outer loop
      vertex 64 0 2
      vertex 65 -2.22045e-016 18
      vertex 63 2.22045e-016 2
    endloop
  endfacet
  facet normal 2.22045e-016 -4.93038e-032 -1
    outer loop
      vertex 64 0 2
      vertex 64 27 2
      vertex 65 -2.22045e-016 2
    endloop
  endfacet
  facet normal 2.22045e-016 -4.93038e-032 -1
    outer loop
      vertex 65 -2.22045e-016 2
      vertex 64 27 2
      vertex 65 27 2
    endloop
  endfacet
  facet normal 0 0 1
    outer loop
      vertex 65 0 2
      vertex 65 27 2
      vertex 64 27 2
    endloop
  endfacet
  facet normal 0 0 1
    outer loop
      vertex 64 0 2
      vertex 65 0 2
      vertex 64 27 2
    endloop
  endfacet
  facet normal 1 0 0
    outer loop
      vertex 65 0 2
      vertex 65 0 0
      vertex 65 27 0
    endloop
  endfacet
  facet normal 1 0 0
    outer loop
      vertex 65 27 2
      vertex 65 0 2
      vertex 65 27 0
    endloop
  endfacet
  facet normal 2.22045e-016 1 4.93038e-032
    outer loop
      vertex 63 27 18
      vertex 65 27 18
      vertex 63 27 2
    endloop
  endfacet
  facet normal 2.22045e-016 1 4.93038e-032
    outer loop
      vertex 64 27 2
      vertex 65 27 18
      vertex 65 27 2
    endloop
  endfacet
  facet normal 2.22045e-016 1 4.93038e-032
    outer loop
      vertex 63 27 2
      vertex 65 27 18
      vertex 64 27 2
    endloop
  endfacet
  facet normal -1 2.22045e-016 -2.22045e-016
    outer loop
      vertex 63 18.5 5
      vertex 63 27 18
      vertex 63 27 2
    endloop
  endfacet
  facet normal -1 2.22045e-016 -2.22045e-016
    outer loop
      vertex 63 8.5 5
      vertex 63 2 2
      vertex 63 8.5 13
    endloop
  endfacet
  facet normal -1 2.22045e-016 -2.22045e-016
    outer loop
      vertex 63 2 18
      vertex 63 27 18
      vertex 63 8.5 13
    endloop
  endfacet
  facet normal -1 2.22045e-016 -2.22045e-016
    outer loop
      vertex 63 2 18
      vertex 63 8.5 13
      vertex 63 2 2
    endloop
  endfacet
  facet normal -1 2.22045e-016 -2.22045e-016
    outer loop
      vertex 63 18.5 13
      vertex 63 27 18
      vertex 63 18.5 5
    endloop
  endfacet
  facet normal -1 2.22045e-016 -2.22045e-016
    outer loop
      vertex 63 2 2
      vertex 63 8.5 5
      vertex 63 27 2
    endloop
  endfacet
  facet normal -1 2.22045e-016 -2.22045e-016
    outer loop
      vertex 63 8.5 5
      vertex 63 18.5 5
      vertex 63 27 2
    endloop
  endfacet
  facet normal -1 2.22045e-016 -2.22045e-016
    outer loop
      vertex 63 8.5 13
      vertex 63 27 18
      vertex 63 18.5 13
    endloop
  endfacet
  facet normal 0 0 1
    outer loop
      vertex 63 2 2
      vertex 63 27 2
      vertex 63 25 2
    endloop
  endfacet
  facet normal 0 0 1
    outer loop
      vertex 2 2 2
      vertex 63 2 2
      vertex 2 25 2
    endloop
  endfacet
  facet normal 0 0 1
    outer loop
      vertex 63 25 2
      vertex 2 25 2
      vertex 63 2 2
    endloop
  endfacet
  facet normal 1 0 0
    outer loop
      vertex 63 25 18
      vertex 63 25 2
      vertex 63 27 2
    endloop
  endfacet
  facet normal 1 0 0
    outer loop
      vertex 63 27 18
      vertex 63 25 18
      vertex 63 27 2
    endloop
  endfacet
  facet normal 0 -1 0
    outer loop
      vertex 2 25 18
      vertex 2 25 2
      vertex 63 25 2
    endloop
  endfacet
  facet normal 0 -1 0
    outer loop
      vertex 63 25 18
      vertex 2 25 18
      vertex 63 25 2
    endloop
  endfacet
  facet normal 1 0 0
    outer loop
      vertex 2 25 2
      vertex 2 25 18
      vertex 2 16 18
    endloop
  endfacet
  facet normal 1 0 0
    outer loop
      vertex 2 11 14
      vertex 2 25 2
      vertex 2 16 14
    endloop
  endfacet
  facet normal 1 0 0
    outer loop
      vertex 2 16 14
      vertex 2 25 2
      vertex 2 16 18
    endloop
  endfacet
  facet normal 1 0 0
    outer loop
      vertex 2 2 18
      vertex 2 25 2
      vertex 2 11 14
    endloop
  endfacet
  facet normal 1 0 0
    outer loop
      vertex 2 2 18
      vertex 2 11 14
      vertex 2 11 18
    endloop
  endfacet
  facet normal 1 0 0
    outer loop
      vertex 2 2 2
      vertex 2 25 2
      vertex 2 2 18
    endloop
  endfacet
  facet normal 0 1 0
    outer loop
      vertex 2 2 2
      vertex 2 2 18
      vertex 63 2 2
    endloop
  endfacet
  facet normal 0 1 0
    outer loop
      vertex 63 2 2
      vertex 2 2 18
      vertex 63 2 18
    endloop
  endfacet
  facet normal -2.22045e-016 4.93038e-032 1
    outer loop
      vertex 63 2.22045e-016 18
      vertex 63 27 18
      vertex 63 2 18
    endloop
  endfacet
  facet normal -2.22045e-016 4.93038e-032 1
    outer loop
      vertex 63 2.22045e-016 18
      vertex 65 -2.22045e-016 18
      vertex 63 27 18
    endloop
  endfacet
  facet normal -2.22045e-016 4.93038e-032 1
    outer loop
      vertex 65 -2.22045e-016 18
      vertex 65 27 18
      vertex 63 27 18
    endloop
  endfacet
  facet normal 1 -2.22045e-016 2.22045e-016
    outer loop
      vertex 65 8.5 13
      vertex 65 -2.22045e-016 18
      vertex 65 -2.22045e-016 2
    endloop
  endfacet
  facet normal 1 -2.22045e-016 2.22045e-016
    outer loop
      vertex 65 27 2
      vertex 65 8.5 5
      vertex 65 -2.22045e-016 2
    endloop
  endfacet
  facet normal 1 -2.22045e-016 2.22045e-016
    outer loop
      vertex 65 27 18
      vertex 65 -2.22045e-016 18
      vertex 65 8.5 13
    endloop
  endfacet
  facet normal 1 -2.22045e-016 2.22045e-016
    outer loop
      vertex 65 18.5 13
      vertex 65 18.5 5
      vertex 65 27 18
    endloop
  endfacet
  facet normal 1 -2.22045e-016 2.22045e-016
    outer loop
      vertex 65 27 18
      vertex 65 8.5 13
      vertex 65 18.5 13
    endloop
  endfacet
  facet normal 1 -2.22045e-016 2.22045e-016
    outer loop
      vertex 65 27 2
      vertex 65 18.5 5
      vertex 65 8.5 5
    endloop
  endfacet
  facet normal 1 -2.22045e-016 2.22045e-016
    outer loop
      vertex 65 27 2
      vertex 65 27 18
      vertex 65 18.5 5
    endloop
  endfacet
  facet normal 1 -2.22045e-016 2.22045e-016
    outer loop
      vertex 65 8.5 5
      vertex 65 8.5 13
      vertex 65 -2.22045e-016 2
    endloop
  endfacet
  facet normal 2.22045e-016 1 4.93038e-032
    outer loop
      vertex 65 8.5 5
      vertex 63 8.5 5
      vertex 65 8.5 13
    endloop
  endfacet
  facet normal 2.22045e-016 1 4.93038e-032
    outer loop
      vertex 65 8.5 13
      vertex 63 8.5 5
      vertex 63 8.5 13
    endloop
  endfacet
  facet normal 2.22045e-016 -4.93038e-032 -1
    outer loop
      vertex 65 18.5 13
      vertex 65 8.5 13
      vertex 63 18.5 13
    endloop
  endfacet
  facet normal 2.22045e-016 -4.93038e-032 -1
    outer loop
      vertex 63 18.5 13
      vertex 65 8.5 13
      vertex 63 8.5 13
    endloop
  endfacet
  facet normal -2.22045e-016 -1 -4.93038e-032
    outer loop
      vertex 63 18.5 5
      vertex 65 18.5 5
      vertex 65 18.5 13
    endloop
  endfacet
  facet normal -2.22045e-016 -1 -4.93038e-032
    outer loop
      vertex 63 18.5 13
      vertex 63 18.5 5
      vertex 65 18.5 13
    endloop
  endfacet
  facet normal -2.22045e-016 4.93038e-032 1
    outer loop
      vertex 65 8.5 5
      vertex 65 18.5 5
      vertex 63 18.5 5
    endloop
  endfacet
  facet normal -2.22045e-016 4.93038e-032 1
    outer loop
      vertex 63 8.5 5
      vertex 65 8.5 5
      vertex 63 18.5 5
    endloop
  endfacet
  facet normal -1.22461e-016 -1 0
    outer loop
      vertex 2 28.5 1
      vertex 2 28.5 -1
      vertex 63 28.5 -1
    endloop
  endfacet
  facet normal -1.22461e-016 -1 0
    outer loop
      vertex 4 28.5 1
      vertex 2 28.5 1
      vertex 63 28.5 -1
    endloop
  endfacet
  facet normal -1.22461e-016 -1 0
    outer loop
      vertex 61 28.5 1
      vertex 4 28.5 1
      vertex 63 28.5 -1
    endloop
  endfacet
  facet normal -1.22461e-016 -1 0
    outer loop
      vertex 63 28.5 1
      vertex 61 28.5 1
      vertex 63 28.5 -1
    endloop
  endfacet
  facet normal -1.22461e-016 -1 0
    outer loop
      vertex 61 28.5 3
      vertex 4 28.5 1
      vertex 61 28.5 1
    endloop
  endfacet
  facet normal -1.22461e-016 -1 0
    outer loop
      vertex 4 28.5 3
      vertex 4 28.5 1
      vertex 61 28.5 3
    endloop
  endfacet
  facet normal 0 0 -1
    outer loop
      vertex 2 28.5 -1
      vertex 2 51.5 -1
      vertex 63 28.5 -1
    endloop
  endfacet
  facet normal 0 0 -1
    outer loop
      vertex 63 28.5 -1
      vertex 2 51.5 -1
      vertex 63 51.5 -1
    endloop
  endfacet
  facet normal -1 1.22461e-016 0
    outer loop
      vertex 2 28.5 -1
      vertex 2 28.5 1
      vertex 2 51.5 -1
    endloop
  endfacet
  facet normal -1 1.22461e-016 0
    outer loop
      vertex 2 51.5 -1
      vertex 2 28.5 1
      vertex 2 51.5 1
    endloop
  endfacet
  facet normal 0 0 1
    outer loop
      vertex 2 51.5 1
      vertex 2 28.5 1
      vertex 4 28.5 1
    endloop
  endfacet
  facet normal 0 0 1
    outer loop
      vertex 4 51.5 1
      vertex 2 51.5 1
      vertex 4 28.5 1
    endloop
  endfacet
  facet normal -1 1.22461e-016 0
    outer loop
      vertex 4 28.5 1
      vertex 4 28.5 3
      vertex 4 51.5 1
    endloop
  endfacet
  facet normal -1 1.22461e-016 0
    outer loop
      vertex 4 51.5 1
      vertex 4 28.5 3
      vertex 4 51.5 3
    endloop
  endfacet
  facet normal 0 0 1
    outer loop
      vertex 4 51.5 3
      vertex 4 28.5 3
      vertex 61 28.5 3
    endloop
  endfacet
  facet normal 0 0 1
    outer loop
      vertex 61 51.5 3
      vertex 4 51.5 3
      vertex 61 28.5 3
    endloop
  endfacet
  facet normal 1 -1.22461e-016 0
    outer loop
      vertex 61 28.5 3
      vertex 61 28.5 1
      vertex 61 51.5 1
    endloop
  endfacet
  facet normal 1 -1.22461e-016 0
    outer loop
      vertex 61 51.5 3
      vertex 61 28.5 3
      vertex 61 51.5 1
    endloop
  endfacet
  facet normal 0 0 1
    outer loop
      vertex 61 51.5 1
      vertex 61 28.5 1
      vertex 63 28.5 1
    endloop
  endfacet
  facet normal 0 0 1
    outer loop
      vertex 63 51.5 1
      vertex 61 51.5 1
      vertex 63 28.5 1
    endloop
  endfacet
  facet normal 1 -1.22461e-016 0
    outer loop
      vertex 63 28.5 1
      vertex 63 28.5 -1
      vertex 63 51.5 -1
    endloop
  endfacet
  facet normal 1 -1.22461e-016 0
    outer loop
      vertex 63 51.5 1
      vertex 63 28.5 1
      vertex 63 51.5 -1
    endloop
  endfacet
  facet normal 1.22461e-016 1 0
    outer loop
      vertex 2 51.5 -1
      vertex 2 51.5 1
      vertex 63 51.5 -1
    endloop
  endfacet
  facet normal 1.22461e-016 1 0
    outer loop
      vertex 63 51.5 -1
      vertex 2 51.5 1
      vertex 4 51.5 1
    endloop
  endfacet
  facet normal 1.22461e-016 1 0
    outer loop
      vertex 63 51.5 -1
      vertex 4 51.5 1
      vertex 4 51.5 3
    endloop
  endfacet
  facet normal 1.22461e-016 1 0
    outer loop
      vertex 61 51.5 1
      vertex 4 51.5 3
      vertex 61 51.5 3
    endloop
  endfacet
  facet normal 1.22461e-016 1 0
    outer loop
      vertex 63 51.5 -1
      vertex 4 51.5 3
      vertex 61 51.5 1
    endloop
  endfacet
  facet normal 1.22461e-016 1 0
    outer loop
      vertex 63 51.5 1
      vertex 63 51.5 -1
      vertex 61 51.5 1
    endloop
  endfacet
  facet normal -1.22461e-016 -1 0
    outer loop
      vertex 53 36 6.5
      vertex 53 36 3.5
      vertex 59 36 3.5
    endloop
  endfacet
  facet normal -1.22461e-016 -1 0
    outer loop
      vertex 59 36 6.5
      vertex 53 36 6.5
      vertex 59 36 3.5
    endloop
  endfacet
  facet normal 0 0 -1
    outer loop
      vertex 53 36 3.5
      vertex 53 44 3.5
      vertex 59 36 3.5
    endloop
  endfacet
  facet normal 0 0 -1
    outer loop
      vertex 59 36 3.5
      vertex 53 44 3.5
      vertex 59 44 3.5
    endloop
  endfacet
  facet normal -1 1.22461e-016 0
    outer loop
      vertex 53 36 3.5
      vertex 53 36 6.5
      vertex 53 44 3.5
    endloop
  endfacet
  facet normal -1 1.22461e-016 0
    outer loop
      vertex 53 44 3.5
      vertex 53 36 6.5
      vertex 53 44 6.5
    endloop
  endfacet
  facet normal 0 0 1
    outer loop
      vertex 53 44 6.5
      vertex 53 36 6.5
      vertex 59 36 6.5
    endloop
  endfacet
  facet normal 0 0 1
    outer loop
      vertex 59 44 6.5
      vertex 53 44 6.5
      vertex 59 36 6.5
    endloop
  endfacet
  facet normal 1 -1.22461e-016 0
    outer loop
      vertex 59 36 6.5
      vertex 59 36 3.5
      vertex 59 44 3.5
    endloop
  endfacet
  facet normal 1 -1.22461e-016 0
    outer loop
      vertex 59 44 6.5
      vertex 59 36 6.5
      vertex 59 44 3.5
    endloop
  endfacet
  facet normal 1.22461e-016 1 0
    outer loop
      vertex 53 44 3.5
      vertex 53 44 6.5
      vertex 59 44 3.5
    endloop
  endfacet
  facet normal 1.22461e-016 1 0
    outer loop
      vertex 59 44 3.5
      vertex 53 44 6.5
      vertex 59 44 6.5
    endloop
  endfacet
endsolid OpenSCAD_Model
