solid OpenSCAD_Model
  facet normal -1 0 0
    outer loop
      vertex 0 26 0
      vertex 0 25 1
      vertex 0 26 26
    endloop
  endfacet
  facet normal -1 0 0
    outer loop
      vertex 0 26 0
      vertex 0 1 1
      vertex 0 25 1
    endloop
  endfacet
  facet normal -1 -0 0
    outer loop
      vertex 0 1 1
      vertex 0 0 0
      vertex 0 1 25
    endloop
  endfacet
  facet normal -1 0 0
    outer loop
      vertex 0 0 0
      vertex 0 1 1
      vertex 0 26 0
    endloop
  endfacet
  facet normal -1 0 0
    outer loop
      vertex 0 25 25
      vertex 0 26 26
      vertex 0 25 1
    endloop
  endfacet
  facet normal -1 0 0
    outer loop
      vertex 0 1 25
      vertex 0 26 26
      vertex 0 25 25
    endloop
  endfacet
  facet normal -1 0 0
    outer loop
      vertex 0 1 25
      vertex 0 0 26
      vertex 0 26 26
    endloop
  endfacet
  facet normal -1 0 0
    outer loop
      vertex 0 0 26
      vertex 0 1 25
      vertex 0 0 0
    endloop
  endfacet
  facet normal -0 0 1
    outer loop
      vertex 0 25 1
      vertex 50 1 1
      vertex 50 25 1
    endloop
  endfacet
  facet normal 0 0 1
    outer loop
      vertex 50 1 1
      vertex 0 25 1
      vertex 0 1 1
    endloop
  endfacet
  facet normal 1 0 0
    outer loop
      vertex 50 26 26
      vertex 50 25 25
      vertex 50 26 0
    endloop
  endfacet
  facet normal 1 0 0
    outer loop
      vertex 50 26 26
      vertex 50 1 25
      vertex 50 25 25
    endloop
  endfacet
  facet normal 1 0 0
    outer loop
      vertex 50 1 25
      vertex 50 0 26
      vertex 50 1 1
    endloop
  endfacet
  facet normal 1 -0 0
    outer loop
      vertex 50 0 26
      vertex 50 1 25
      vertex 50 26 26
    endloop
  endfacet
  facet normal 1 -0 0
    outer loop
      vertex 50 25 1
      vertex 50 26 0
      vertex 50 25 25
    endloop
  endfacet
  facet normal 1 -0 0
    outer loop
      vertex 50 1 1
      vertex 50 26 0
      vertex 50 25 1
    endloop
  endfacet
  facet normal 1 0 0
    outer loop
      vertex 50 1 1
      vertex 50 0 0
      vertex 50 26 0
    endloop
  endfacet
  facet normal 1 0 0
    outer loop
      vertex 50 0 0
      vertex 50 1 1
      vertex 50 0 26
    endloop
  endfacet
  facet normal 0 -1 0
    outer loop
      vertex 0 25 1
      vertex 50 25 25
      vertex 0 25 25
    endloop
  endfacet
  facet normal 0 -1 -0
    outer loop
      vertex 50 25 25
      vertex 0 25 1
      vertex 50 25 1
    endloop
  endfacet
  facet normal 0 0 -1
    outer loop
      vertex 0 0 0
      vertex 50 26 0
      vertex 50 0 0
    endloop
  endfacet
  facet normal -0 0 -1
    outer loop
      vertex 50 26 0
      vertex 0 0 0
      vertex 0 26 0
    endloop
  endfacet
  facet normal 0 -1 0
    outer loop
      vertex 0 0 0
      vertex 50 0 26
      vertex 0 0 26
    endloop
  endfacet
  facet normal 0 -1 -0
    outer loop
      vertex 50 0 26
      vertex 0 0 0
      vertex 50 0 0
    endloop
  endfacet
  facet normal -0 0 1
    outer loop
      vertex 0 26 26
      vertex 50 0 26
      vertex 50 26 26
    endloop
  endfacet
  facet normal 0 0 1
    outer loop
      vertex 50 0 26
      vertex 0 26 26
      vertex 0 0 26
    endloop
  endfacet
  facet normal 0 0 -1
    outer loop
      vertex 0 1 25
      vertex 50 25 25
      vertex 50 1 25
    endloop
  endfacet
  facet normal -0 0 -1
    outer loop
      vertex 50 25 25
      vertex 0 1 25
      vertex 0 25 25
    endloop
  endfacet
  facet normal 0 1 -0
    outer loop
      vertex 50 1 1
      vertex 0 1 25
      vertex 50 1 25
    endloop
  endfacet
  facet normal 0 1 0
    outer loop
      vertex 0 1 25
      vertex 50 1 1
      vertex 0 1 1
    endloop
  endfacet
  facet normal 0 1 -0
    outer loop
      vertex 50 26 0
      vertex 0 26 26
      vertex 50 26 26
    endloop
  endfacet
  facet normal 0 1 0
    outer loop
      vertex 0 26 26
      vertex 50 26 0
      vertex 0 26 0
    endloop
  endfacet
endsolid OpenSCAD_Model
